G04 #@! TF.GenerationSoftware,KiCad,Pcbnew,(5.1.10)-1*
G04 #@! TF.CreationDate,2021-12-04T11:06:55-08:00*
G04 #@! TF.ProjectId,fuelCellControl,6675656c-4365-46c6-9c43-6f6e74726f6c,rev?*
G04 #@! TF.SameCoordinates,Original*
G04 #@! TF.FileFunction,Legend,Bot*
G04 #@! TF.FilePolarity,Positive*
%FSLAX46Y46*%
G04 Gerber Fmt 4.6, Leading zero omitted, Abs format (unit mm)*
G04 Created by KiCad (PCBNEW (5.1.10)-1) date 2021-12-04 11:06:55*
%MOMM*%
%LPD*%
G01*
G04 APERTURE LIST*
%ADD10C,0.300000*%
%ADD11C,0.010000*%
%ADD12O,1.600000X1.600000*%
%ADD13R,1.600000X1.600000*%
%ADD14R,1.700000X1.700000*%
%ADD15C,3.200000*%
%ADD16O,3.600000X1.800000*%
%ADD17C,3.000000*%
%ADD18O,3.700000X2.700000*%
%ADD19O,1.700000X1.700000*%
%ADD20O,2.700000X3.700000*%
G04 APERTURE END LIST*
D10*
X126121428Y-126887857D02*
X126621428Y-126887857D01*
X126621428Y-127673571D02*
X126621428Y-126173571D01*
X125907142Y-126173571D01*
X124692857Y-126673571D02*
X124692857Y-127673571D01*
X125335714Y-126673571D02*
X125335714Y-127459285D01*
X125264285Y-127602142D01*
X125121428Y-127673571D01*
X124907142Y-127673571D01*
X124764285Y-127602142D01*
X124692857Y-127530714D01*
X123407142Y-127602142D02*
X123550000Y-127673571D01*
X123835714Y-127673571D01*
X123978571Y-127602142D01*
X124050000Y-127459285D01*
X124050000Y-126887857D01*
X123978571Y-126745000D01*
X123835714Y-126673571D01*
X123550000Y-126673571D01*
X123407142Y-126745000D01*
X123335714Y-126887857D01*
X123335714Y-127030714D01*
X124050000Y-127173571D01*
X122478571Y-127673571D02*
X122621428Y-127602142D01*
X122692857Y-127459285D01*
X122692857Y-126173571D01*
X119907142Y-127530714D02*
X119978571Y-127602142D01*
X120192857Y-127673571D01*
X120335714Y-127673571D01*
X120550000Y-127602142D01*
X120692857Y-127459285D01*
X120764285Y-127316428D01*
X120835714Y-127030714D01*
X120835714Y-126816428D01*
X120764285Y-126530714D01*
X120692857Y-126387857D01*
X120550000Y-126245000D01*
X120335714Y-126173571D01*
X120192857Y-126173571D01*
X119978571Y-126245000D01*
X119907142Y-126316428D01*
X118692857Y-127602142D02*
X118835714Y-127673571D01*
X119121428Y-127673571D01*
X119264285Y-127602142D01*
X119335714Y-127459285D01*
X119335714Y-126887857D01*
X119264285Y-126745000D01*
X119121428Y-126673571D01*
X118835714Y-126673571D01*
X118692857Y-126745000D01*
X118621428Y-126887857D01*
X118621428Y-127030714D01*
X119335714Y-127173571D01*
X117764285Y-127673571D02*
X117907142Y-127602142D01*
X117978571Y-127459285D01*
X117978571Y-126173571D01*
X116978571Y-127673571D02*
X117121428Y-127602142D01*
X117192857Y-127459285D01*
X117192857Y-126173571D01*
X114407142Y-127530714D02*
X114478571Y-127602142D01*
X114692857Y-127673571D01*
X114835714Y-127673571D01*
X115050000Y-127602142D01*
X115192857Y-127459285D01*
X115264285Y-127316428D01*
X115335714Y-127030714D01*
X115335714Y-126816428D01*
X115264285Y-126530714D01*
X115192857Y-126387857D01*
X115050000Y-126245000D01*
X114835714Y-126173571D01*
X114692857Y-126173571D01*
X114478571Y-126245000D01*
X114407142Y-126316428D01*
X113550000Y-127673571D02*
X113692857Y-127602142D01*
X113764285Y-127530714D01*
X113835714Y-127387857D01*
X113835714Y-126959285D01*
X113764285Y-126816428D01*
X113692857Y-126745000D01*
X113550000Y-126673571D01*
X113335714Y-126673571D01*
X113192857Y-126745000D01*
X113121428Y-126816428D01*
X113050000Y-126959285D01*
X113050000Y-127387857D01*
X113121428Y-127530714D01*
X113192857Y-127602142D01*
X113335714Y-127673571D01*
X113550000Y-127673571D01*
X112407142Y-126673571D02*
X112407142Y-127673571D01*
X112407142Y-126816428D02*
X112335714Y-126745000D01*
X112192857Y-126673571D01*
X111978571Y-126673571D01*
X111835714Y-126745000D01*
X111764285Y-126887857D01*
X111764285Y-127673571D01*
X111264285Y-126673571D02*
X110692857Y-126673571D01*
X111050000Y-126173571D02*
X111050000Y-127459285D01*
X110978571Y-127602142D01*
X110835714Y-127673571D01*
X110692857Y-127673571D01*
X110192857Y-127673571D02*
X110192857Y-126673571D01*
X110192857Y-126959285D02*
X110121428Y-126816428D01*
X110050000Y-126745000D01*
X109907142Y-126673571D01*
X109764285Y-126673571D01*
X109050000Y-127673571D02*
X109192857Y-127602142D01*
X109264285Y-127530714D01*
X109335714Y-127387857D01*
X109335714Y-126959285D01*
X109264285Y-126816428D01*
X109192857Y-126745000D01*
X109050000Y-126673571D01*
X108835714Y-126673571D01*
X108692857Y-126745000D01*
X108621428Y-126816428D01*
X108550000Y-126959285D01*
X108550000Y-127387857D01*
X108621428Y-127530714D01*
X108692857Y-127602142D01*
X108835714Y-127673571D01*
X109050000Y-127673571D01*
X107692857Y-127673571D02*
X107835714Y-127602142D01*
X107907142Y-127459285D01*
X107907142Y-126173571D01*
X106121428Y-126673571D02*
X105764285Y-127673571D01*
X105407142Y-126673571D01*
X104050000Y-127673571D02*
X104907142Y-127673571D01*
X104478571Y-127673571D02*
X104478571Y-126173571D01*
X104621428Y-126387857D01*
X104764285Y-126530714D01*
X104907142Y-126602142D01*
X103407142Y-127530714D02*
X103335714Y-127602142D01*
X103407142Y-127673571D01*
X103478571Y-127602142D01*
X103407142Y-127530714D01*
X103407142Y-127673571D01*
X102407142Y-126173571D02*
X102264285Y-126173571D01*
X102121428Y-126245000D01*
X102050000Y-126316428D01*
X101978571Y-126459285D01*
X101907142Y-126745000D01*
X101907142Y-127102142D01*
X101978571Y-127387857D01*
X102050000Y-127530714D01*
X102121428Y-127602142D01*
X102264285Y-127673571D01*
X102407142Y-127673571D01*
X102550000Y-127602142D01*
X102621428Y-127530714D01*
X102692857Y-127387857D01*
X102764285Y-127102142D01*
X102764285Y-126745000D01*
X102692857Y-126459285D01*
X102621428Y-126316428D01*
X102550000Y-126245000D01*
X102407142Y-126173571D01*
X121907142Y-130223571D02*
X121907142Y-128723571D01*
X121907142Y-129295000D02*
X121764285Y-129223571D01*
X121478571Y-129223571D01*
X121335714Y-129295000D01*
X121264285Y-129366428D01*
X121192857Y-129509285D01*
X121192857Y-129937857D01*
X121264285Y-130080714D01*
X121335714Y-130152142D01*
X121478571Y-130223571D01*
X121764285Y-130223571D01*
X121907142Y-130152142D01*
X120692857Y-129223571D02*
X120335714Y-130223571D01*
X119978571Y-129223571D02*
X120335714Y-130223571D01*
X120478571Y-130580714D01*
X120550000Y-130652142D01*
X120692857Y-130723571D01*
X118264285Y-130223571D02*
X118264285Y-128723571D01*
X117764285Y-129795000D01*
X117264285Y-128723571D01*
X117264285Y-130223571D01*
X116550000Y-130223571D02*
X116550000Y-129223571D01*
X116550000Y-128723571D02*
X116621428Y-128795000D01*
X116550000Y-128866428D01*
X116478571Y-128795000D01*
X116550000Y-128723571D01*
X116550000Y-128866428D01*
X115192857Y-130152142D02*
X115335714Y-130223571D01*
X115621428Y-130223571D01*
X115764285Y-130152142D01*
X115835714Y-130080714D01*
X115907142Y-129937857D01*
X115907142Y-129509285D01*
X115835714Y-129366428D01*
X115764285Y-129295000D01*
X115621428Y-129223571D01*
X115335714Y-129223571D01*
X115192857Y-129295000D01*
X114550000Y-130223571D02*
X114550000Y-128723571D01*
X113907142Y-130223571D02*
X113907142Y-129437857D01*
X113978571Y-129295000D01*
X114121428Y-129223571D01*
X114335714Y-129223571D01*
X114478571Y-129295000D01*
X114550000Y-129366428D01*
X112621428Y-130152142D02*
X112764285Y-130223571D01*
X113050000Y-130223571D01*
X113192857Y-130152142D01*
X113264285Y-130009285D01*
X113264285Y-129437857D01*
X113192857Y-129295000D01*
X113050000Y-129223571D01*
X112764285Y-129223571D01*
X112621428Y-129295000D01*
X112550000Y-129437857D01*
X112550000Y-129580714D01*
X113264285Y-129723571D01*
X111692857Y-130223571D02*
X111835714Y-130152142D01*
X111907142Y-130009285D01*
X111907142Y-128723571D01*
X110907142Y-130223571D02*
X111050000Y-130152142D01*
X111121428Y-130009285D01*
X111121428Y-128723571D01*
X109764285Y-130152142D02*
X109907142Y-130223571D01*
X110192857Y-130223571D01*
X110335714Y-130152142D01*
X110407142Y-130009285D01*
X110407142Y-129437857D01*
X110335714Y-129295000D01*
X110192857Y-129223571D01*
X109907142Y-129223571D01*
X109764285Y-129295000D01*
X109692857Y-129437857D01*
X109692857Y-129580714D01*
X110407142Y-129723571D01*
X107192857Y-130223571D02*
X107907142Y-130223571D01*
X107907142Y-128723571D01*
X106692857Y-130223571D02*
X106692857Y-129223571D01*
X106692857Y-128723571D02*
X106764285Y-128795000D01*
X106692857Y-128866428D01*
X106621428Y-128795000D01*
X106692857Y-128723571D01*
X106692857Y-128866428D01*
D11*
G36*
X122553810Y-115436245D02*
G01*
X122306448Y-115446056D01*
X122125113Y-115469912D01*
X121992091Y-115512058D01*
X121889672Y-115576735D01*
X121800145Y-115668188D01*
X121772086Y-115702835D01*
X121686721Y-115886490D01*
X121669058Y-116107482D01*
X121712802Y-116333524D01*
X121811662Y-116532329D01*
X121959346Y-116671610D01*
X121961088Y-116672616D01*
X122107998Y-116756931D01*
X121905964Y-116949121D01*
X121790640Y-117064958D01*
X121733339Y-117156137D01*
X121717942Y-117265404D01*
X121727286Y-117422955D01*
X121798255Y-117715468D01*
X121959607Y-117963270D01*
X122212473Y-118167967D01*
X122280111Y-118207165D01*
X122374230Y-118254254D01*
X122470461Y-118288485D01*
X122588193Y-118312601D01*
X122746816Y-118329352D01*
X122965718Y-118341482D01*
X123264289Y-118351738D01*
X123310230Y-118353085D01*
X124116259Y-118376440D01*
X124091412Y-118179720D01*
X124073320Y-118056276D01*
X124041529Y-117858348D01*
X124032681Y-117805200D01*
X123430358Y-117805200D01*
X123037630Y-117805200D01*
X122819222Y-117799829D01*
X122672698Y-117779806D01*
X122568724Y-117739266D01*
X122511051Y-117699912D01*
X122414239Y-117593518D01*
X122378951Y-117454172D01*
X122377200Y-117396417D01*
X122389679Y-117256977D01*
X122441370Y-117177304D01*
X122516900Y-117133404D01*
X122652064Y-117098433D01*
X122844003Y-117082248D01*
X122968205Y-117083571D01*
X123110348Y-117089664D01*
X123204547Y-117103462D01*
X123265075Y-117142869D01*
X123306204Y-117225790D01*
X123342207Y-117370129D01*
X123387357Y-117593791D01*
X123391599Y-117614700D01*
X123430358Y-117805200D01*
X124032681Y-117805200D01*
X123999997Y-117608876D01*
X123952684Y-117330798D01*
X123903548Y-117047053D01*
X123856550Y-116780580D01*
X123821376Y-116586000D01*
X123201537Y-116586000D01*
X122875278Y-116586000D01*
X122683768Y-116576164D01*
X122535871Y-116550100D01*
X122472646Y-116522500D01*
X122378770Y-116399898D01*
X122320082Y-116242023D01*
X122314916Y-116113215D01*
X122386808Y-116015408D01*
X122547445Y-115952102D01*
X122789042Y-115926108D01*
X122834284Y-115925600D01*
X122968522Y-115929069D01*
X123053002Y-115952896D01*
X123103725Y-116017209D01*
X123136695Y-116142136D01*
X123167475Y-116344700D01*
X123201537Y-116586000D01*
X123821376Y-116586000D01*
X123815648Y-116554317D01*
X123784801Y-116391204D01*
X123772497Y-116332000D01*
X123750309Y-116219853D01*
X123719004Y-116043816D01*
X123685056Y-115840395D01*
X123682415Y-115824000D01*
X123621215Y-115443000D01*
X122884908Y-115436238D01*
X122553810Y-115436245D01*
G37*
X122553810Y-115436245D02*
X122306448Y-115446056D01*
X122125113Y-115469912D01*
X121992091Y-115512058D01*
X121889672Y-115576735D01*
X121800145Y-115668188D01*
X121772086Y-115702835D01*
X121686721Y-115886490D01*
X121669058Y-116107482D01*
X121712802Y-116333524D01*
X121811662Y-116532329D01*
X121959346Y-116671610D01*
X121961088Y-116672616D01*
X122107998Y-116756931D01*
X121905964Y-116949121D01*
X121790640Y-117064958D01*
X121733339Y-117156137D01*
X121717942Y-117265404D01*
X121727286Y-117422955D01*
X121798255Y-117715468D01*
X121959607Y-117963270D01*
X122212473Y-118167967D01*
X122280111Y-118207165D01*
X122374230Y-118254254D01*
X122470461Y-118288485D01*
X122588193Y-118312601D01*
X122746816Y-118329352D01*
X122965718Y-118341482D01*
X123264289Y-118351738D01*
X123310230Y-118353085D01*
X124116259Y-118376440D01*
X124091412Y-118179720D01*
X124073320Y-118056276D01*
X124041529Y-117858348D01*
X124032681Y-117805200D01*
X123430358Y-117805200D01*
X123037630Y-117805200D01*
X122819222Y-117799829D01*
X122672698Y-117779806D01*
X122568724Y-117739266D01*
X122511051Y-117699912D01*
X122414239Y-117593518D01*
X122378951Y-117454172D01*
X122377200Y-117396417D01*
X122389679Y-117256977D01*
X122441370Y-117177304D01*
X122516900Y-117133404D01*
X122652064Y-117098433D01*
X122844003Y-117082248D01*
X122968205Y-117083571D01*
X123110348Y-117089664D01*
X123204547Y-117103462D01*
X123265075Y-117142869D01*
X123306204Y-117225790D01*
X123342207Y-117370129D01*
X123387357Y-117593791D01*
X123391599Y-117614700D01*
X123430358Y-117805200D01*
X124032681Y-117805200D01*
X123999997Y-117608876D01*
X123952684Y-117330798D01*
X123903548Y-117047053D01*
X123856550Y-116780580D01*
X123821376Y-116586000D01*
X123201537Y-116586000D01*
X122875278Y-116586000D01*
X122683768Y-116576164D01*
X122535871Y-116550100D01*
X122472646Y-116522500D01*
X122378770Y-116399898D01*
X122320082Y-116242023D01*
X122314916Y-116113215D01*
X122386808Y-116015408D01*
X122547445Y-115952102D01*
X122789042Y-115926108D01*
X122834284Y-115925600D01*
X122968522Y-115929069D01*
X123053002Y-115952896D01*
X123103725Y-116017209D01*
X123136695Y-116142136D01*
X123167475Y-116344700D01*
X123201537Y-116586000D01*
X123821376Y-116586000D01*
X123815648Y-116554317D01*
X123784801Y-116391204D01*
X123772497Y-116332000D01*
X123750309Y-116219853D01*
X123719004Y-116043816D01*
X123685056Y-115840395D01*
X123682415Y-115824000D01*
X123621215Y-115443000D01*
X122884908Y-115436238D01*
X122553810Y-115436245D01*
G36*
X119325177Y-115407032D02*
G01*
X119038510Y-115493376D01*
X118794339Y-115634309D01*
X118607738Y-115828309D01*
X118493783Y-116073854D01*
X118490258Y-116087476D01*
X118477826Y-116177913D01*
X118515360Y-116229082D01*
X118626003Y-116267850D01*
X118651402Y-116274533D01*
X118849588Y-116321714D01*
X118980140Y-116334867D01*
X119072661Y-116309426D01*
X119156753Y-116240824D01*
X119204643Y-116189184D01*
X119403291Y-116036852D01*
X119639573Y-115964001D01*
X119894782Y-115965567D01*
X120150210Y-116036485D01*
X120387150Y-116171689D01*
X120586892Y-116366115D01*
X120725048Y-116600806D01*
X120778347Y-116800018D01*
X120799328Y-117037707D01*
X120787833Y-117272282D01*
X120743704Y-117462157D01*
X120728438Y-117496072D01*
X120593400Y-117654713D01*
X120397153Y-117754862D01*
X120161405Y-117796744D01*
X119907865Y-117780583D01*
X119658240Y-117706601D01*
X119434239Y-117575023D01*
X119333045Y-117481701D01*
X119229193Y-117391794D01*
X119138239Y-117348891D01*
X119129845Y-117348283D01*
X118991842Y-117365296D01*
X118846545Y-117406965D01*
X118727973Y-117460545D01*
X118670144Y-117513289D01*
X118668800Y-117521035D01*
X118709414Y-117625297D01*
X118817819Y-117761626D01*
X118973862Y-117911214D01*
X119157390Y-118055254D01*
X119348251Y-118174938D01*
X119395480Y-118199206D01*
X119694157Y-118313068D01*
X120012759Y-118381163D01*
X120315432Y-118398079D01*
X120526846Y-118369899D01*
X120824279Y-118249703D01*
X121085174Y-118061481D01*
X121258976Y-117856973D01*
X121382373Y-117611942D01*
X121442270Y-117348792D01*
X121439933Y-117048135D01*
X121376626Y-116690586D01*
X121343593Y-116560600D01*
X121271088Y-116388875D01*
X121146353Y-116184110D01*
X120992670Y-115981239D01*
X120868321Y-115847403D01*
X120595300Y-115637977D01*
X120289401Y-115490748D01*
X119965697Y-115404196D01*
X119639264Y-115376798D01*
X119325177Y-115407032D01*
G37*
X119325177Y-115407032D02*
X119038510Y-115493376D01*
X118794339Y-115634309D01*
X118607738Y-115828309D01*
X118493783Y-116073854D01*
X118490258Y-116087476D01*
X118477826Y-116177913D01*
X118515360Y-116229082D01*
X118626003Y-116267850D01*
X118651402Y-116274533D01*
X118849588Y-116321714D01*
X118980140Y-116334867D01*
X119072661Y-116309426D01*
X119156753Y-116240824D01*
X119204643Y-116189184D01*
X119403291Y-116036852D01*
X119639573Y-115964001D01*
X119894782Y-115965567D01*
X120150210Y-116036485D01*
X120387150Y-116171689D01*
X120586892Y-116366115D01*
X120725048Y-116600806D01*
X120778347Y-116800018D01*
X120799328Y-117037707D01*
X120787833Y-117272282D01*
X120743704Y-117462157D01*
X120728438Y-117496072D01*
X120593400Y-117654713D01*
X120397153Y-117754862D01*
X120161405Y-117796744D01*
X119907865Y-117780583D01*
X119658240Y-117706601D01*
X119434239Y-117575023D01*
X119333045Y-117481701D01*
X119229193Y-117391794D01*
X119138239Y-117348891D01*
X119129845Y-117348283D01*
X118991842Y-117365296D01*
X118846545Y-117406965D01*
X118727973Y-117460545D01*
X118670144Y-117513289D01*
X118668800Y-117521035D01*
X118709414Y-117625297D01*
X118817819Y-117761626D01*
X118973862Y-117911214D01*
X119157390Y-118055254D01*
X119348251Y-118174938D01*
X119395480Y-118199206D01*
X119694157Y-118313068D01*
X120012759Y-118381163D01*
X120315432Y-118398079D01*
X120526846Y-118369899D01*
X120824279Y-118249703D01*
X121085174Y-118061481D01*
X121258976Y-117856973D01*
X121382373Y-117611942D01*
X121442270Y-117348792D01*
X121439933Y-117048135D01*
X121376626Y-116690586D01*
X121343593Y-116560600D01*
X121271088Y-116388875D01*
X121146353Y-116184110D01*
X120992670Y-115981239D01*
X120868321Y-115847403D01*
X120595300Y-115637977D01*
X120289401Y-115490748D01*
X119965697Y-115404196D01*
X119639264Y-115376798D01*
X119325177Y-115407032D01*
G36*
X125955003Y-115580204D02*
G01*
X125979623Y-115724454D01*
X126013927Y-115917581D01*
X126038516Y-116052600D01*
X126071714Y-116233937D01*
X126099306Y-116386752D01*
X126112035Y-116459000D01*
X126131605Y-116565668D01*
X126162715Y-116727558D01*
X126183692Y-116834233D01*
X126234426Y-117165790D01*
X126234995Y-117416298D01*
X126181376Y-117595227D01*
X126069541Y-117712047D01*
X125895467Y-117776229D01*
X125776540Y-117792145D01*
X125510758Y-117779755D01*
X125305550Y-117690115D01*
X125151319Y-117516651D01*
X125052330Y-117296003D01*
X125017116Y-117168075D01*
X124970313Y-116966024D01*
X124916493Y-116713389D01*
X124860231Y-116433706D01*
X124806099Y-116150512D01*
X124758671Y-115887345D01*
X124722521Y-115667741D01*
X124702223Y-115515237D01*
X124699669Y-115481100D01*
X124652906Y-115440424D01*
X124513637Y-115420290D01*
X124400734Y-115417600D01*
X124234990Y-115420035D01*
X124146799Y-115434968D01*
X124112119Y-115473834D01*
X124106910Y-115548071D01*
X124107073Y-115557300D01*
X124118037Y-115678037D01*
X124144139Y-115858451D01*
X124178450Y-116052600D01*
X124223432Y-116287016D01*
X124275840Y-116562449D01*
X124324472Y-116820039D01*
X124325328Y-116824595D01*
X124391191Y-117154263D01*
X124453556Y-117404422D01*
X124521655Y-117596363D01*
X124604715Y-117751378D01*
X124711966Y-117890757D01*
X124848717Y-118032000D01*
X125081056Y-118196761D01*
X125375335Y-118317085D01*
X125698627Y-118384908D01*
X126018003Y-118392165D01*
X126199312Y-118362785D01*
X126463586Y-118248434D01*
X126666616Y-118059721D01*
X126803252Y-117806998D01*
X126868344Y-117500615D01*
X126856743Y-117150922D01*
X126843273Y-117068600D01*
X126812539Y-116897862D01*
X126770944Y-116658643D01*
X126723956Y-116382739D01*
X126677283Y-116103400D01*
X126568139Y-115443000D01*
X126247900Y-115427804D01*
X125927660Y-115412608D01*
X125955003Y-115580204D01*
G37*
X125955003Y-115580204D02*
X125979623Y-115724454D01*
X126013927Y-115917581D01*
X126038516Y-116052600D01*
X126071714Y-116233937D01*
X126099306Y-116386752D01*
X126112035Y-116459000D01*
X126131605Y-116565668D01*
X126162715Y-116727558D01*
X126183692Y-116834233D01*
X126234426Y-117165790D01*
X126234995Y-117416298D01*
X126181376Y-117595227D01*
X126069541Y-117712047D01*
X125895467Y-117776229D01*
X125776540Y-117792145D01*
X125510758Y-117779755D01*
X125305550Y-117690115D01*
X125151319Y-117516651D01*
X125052330Y-117296003D01*
X125017116Y-117168075D01*
X124970313Y-116966024D01*
X124916493Y-116713389D01*
X124860231Y-116433706D01*
X124806099Y-116150512D01*
X124758671Y-115887345D01*
X124722521Y-115667741D01*
X124702223Y-115515237D01*
X124699669Y-115481100D01*
X124652906Y-115440424D01*
X124513637Y-115420290D01*
X124400734Y-115417600D01*
X124234990Y-115420035D01*
X124146799Y-115434968D01*
X124112119Y-115473834D01*
X124106910Y-115548071D01*
X124107073Y-115557300D01*
X124118037Y-115678037D01*
X124144139Y-115858451D01*
X124178450Y-116052600D01*
X124223432Y-116287016D01*
X124275840Y-116562449D01*
X124324472Y-116820039D01*
X124325328Y-116824595D01*
X124391191Y-117154263D01*
X124453556Y-117404422D01*
X124521655Y-117596363D01*
X124604715Y-117751378D01*
X124711966Y-117890757D01*
X124848717Y-118032000D01*
X125081056Y-118196761D01*
X125375335Y-118317085D01*
X125698627Y-118384908D01*
X126018003Y-118392165D01*
X126199312Y-118362785D01*
X126463586Y-118248434D01*
X126666616Y-118059721D01*
X126803252Y-117806998D01*
X126868344Y-117500615D01*
X126856743Y-117150922D01*
X126843273Y-117068600D01*
X126812539Y-116897862D01*
X126770944Y-116658643D01*
X126723956Y-116382739D01*
X126677283Y-116103400D01*
X126568139Y-115443000D01*
X126247900Y-115427804D01*
X125927660Y-115412608D01*
X125955003Y-115580204D01*
G36*
X98022418Y-119227839D02*
G01*
X97766433Y-119230635D01*
X97587457Y-119239103D01*
X97473195Y-119256360D01*
X97411354Y-119285521D01*
X97389638Y-119329703D01*
X97395754Y-119392021D01*
X97415619Y-119468900D01*
X97430457Y-119511848D01*
X97458479Y-119542416D01*
X97515018Y-119562708D01*
X97615405Y-119574829D01*
X97774974Y-119580881D01*
X98009056Y-119582969D01*
X98248536Y-119583200D01*
X99050821Y-119583200D01*
X99109495Y-119951500D01*
X99140987Y-120140692D01*
X99168940Y-120293821D01*
X99187694Y-120380023D01*
X99188690Y-120383300D01*
X99173213Y-120410891D01*
X99097920Y-120429759D01*
X98950895Y-120441129D01*
X98720221Y-120446223D01*
X98570371Y-120446800D01*
X98304881Y-120448140D01*
X98125950Y-120453485D01*
X98018560Y-120464821D01*
X97967690Y-120484130D01*
X97958320Y-120513400D01*
X97962365Y-120527154D01*
X97989438Y-120648646D01*
X97993200Y-120704954D01*
X97999953Y-120745594D01*
X98031220Y-120773061D01*
X98103519Y-120789912D01*
X98233366Y-120798706D01*
X98437277Y-120801998D01*
X98622547Y-120802400D01*
X99251893Y-120802400D01*
X99283142Y-120967500D01*
X99314193Y-121127717D01*
X99340730Y-121259600D01*
X99365112Y-121392722D01*
X99392378Y-121562753D01*
X99398240Y-121602500D01*
X99429410Y-121818400D01*
X97828951Y-121818400D01*
X97859582Y-121932700D01*
X97884552Y-122050829D01*
X97890907Y-122110500D01*
X97915297Y-122133516D01*
X97994685Y-122150673D01*
X98139252Y-122162623D01*
X98359179Y-122170016D01*
X98664649Y-122173507D01*
X98882200Y-122174000D01*
X99186903Y-122171864D01*
X99453628Y-122165911D01*
X99666975Y-122156823D01*
X99811545Y-122145283D01*
X99871936Y-122131971D01*
X99872800Y-122130133D01*
X99863345Y-122059179D01*
X99839033Y-121923559D01*
X99817221Y-121812633D01*
X99793746Y-121696911D01*
X99774584Y-121600855D01*
X99756442Y-121506359D01*
X99736028Y-121395311D01*
X99710051Y-121249603D01*
X99675217Y-121051127D01*
X99628235Y-120781773D01*
X99592008Y-120573800D01*
X99544683Y-120302844D01*
X99502715Y-120063941D01*
X99469556Y-119876629D01*
X99448655Y-119760446D01*
X99443974Y-119735600D01*
X99425780Y-119639525D01*
X99399041Y-119492698D01*
X99390242Y-119443500D01*
X99351815Y-119227600D01*
X98367708Y-119227600D01*
X98022418Y-119227839D01*
G37*
X98022418Y-119227839D02*
X97766433Y-119230635D01*
X97587457Y-119239103D01*
X97473195Y-119256360D01*
X97411354Y-119285521D01*
X97389638Y-119329703D01*
X97395754Y-119392021D01*
X97415619Y-119468900D01*
X97430457Y-119511848D01*
X97458479Y-119542416D01*
X97515018Y-119562708D01*
X97615405Y-119574829D01*
X97774974Y-119580881D01*
X98009056Y-119582969D01*
X98248536Y-119583200D01*
X99050821Y-119583200D01*
X99109495Y-119951500D01*
X99140987Y-120140692D01*
X99168940Y-120293821D01*
X99187694Y-120380023D01*
X99188690Y-120383300D01*
X99173213Y-120410891D01*
X99097920Y-120429759D01*
X98950895Y-120441129D01*
X98720221Y-120446223D01*
X98570371Y-120446800D01*
X98304881Y-120448140D01*
X98125950Y-120453485D01*
X98018560Y-120464821D01*
X97967690Y-120484130D01*
X97958320Y-120513400D01*
X97962365Y-120527154D01*
X97989438Y-120648646D01*
X97993200Y-120704954D01*
X97999953Y-120745594D01*
X98031220Y-120773061D01*
X98103519Y-120789912D01*
X98233366Y-120798706D01*
X98437277Y-120801998D01*
X98622547Y-120802400D01*
X99251893Y-120802400D01*
X99283142Y-120967500D01*
X99314193Y-121127717D01*
X99340730Y-121259600D01*
X99365112Y-121392722D01*
X99392378Y-121562753D01*
X99398240Y-121602500D01*
X99429410Y-121818400D01*
X97828951Y-121818400D01*
X97859582Y-121932700D01*
X97884552Y-122050829D01*
X97890907Y-122110500D01*
X97915297Y-122133516D01*
X97994685Y-122150673D01*
X98139252Y-122162623D01*
X98359179Y-122170016D01*
X98664649Y-122173507D01*
X98882200Y-122174000D01*
X99186903Y-122171864D01*
X99453628Y-122165911D01*
X99666975Y-122156823D01*
X99811545Y-122145283D01*
X99871936Y-122131971D01*
X99872800Y-122130133D01*
X99863345Y-122059179D01*
X99839033Y-121923559D01*
X99817221Y-121812633D01*
X99793746Y-121696911D01*
X99774584Y-121600855D01*
X99756442Y-121506359D01*
X99736028Y-121395311D01*
X99710051Y-121249603D01*
X99675217Y-121051127D01*
X99628235Y-120781773D01*
X99592008Y-120573800D01*
X99544683Y-120302844D01*
X99502715Y-120063941D01*
X99469556Y-119876629D01*
X99448655Y-119760446D01*
X99443974Y-119735600D01*
X99425780Y-119639525D01*
X99399041Y-119492698D01*
X99390242Y-119443500D01*
X99351815Y-119227600D01*
X98367708Y-119227600D01*
X98022418Y-119227839D01*
G36*
X104172084Y-119228155D02*
G01*
X104132667Y-119245141D01*
X104097361Y-119288660D01*
X104061563Y-119370018D01*
X104020671Y-119500522D01*
X103970083Y-119691478D01*
X103905196Y-119954191D01*
X103821410Y-120299969D01*
X103785772Y-120446800D01*
X103734522Y-120651470D01*
X103688746Y-120823449D01*
X103655991Y-120934757D01*
X103648752Y-120954800D01*
X103614336Y-121070782D01*
X103602979Y-121132600D01*
X103584657Y-121227378D01*
X103547986Y-121390276D01*
X103499867Y-121590999D01*
X103483618Y-121656518D01*
X103435546Y-121853984D01*
X103398926Y-122014400D01*
X103379600Y-122111776D01*
X103378000Y-122126418D01*
X103422992Y-122156562D01*
X103535023Y-122172986D01*
X103575547Y-122174000D01*
X103705057Y-122166644D01*
X103768252Y-122125306D01*
X103800290Y-122021080D01*
X103807249Y-121983500D01*
X103845436Y-121795370D01*
X103890119Y-121606122D01*
X103891060Y-121602500D01*
X103940717Y-121412000D01*
X104647587Y-121412000D01*
X104933629Y-121411491D01*
X105138298Y-121416475D01*
X105281730Y-121436714D01*
X105384063Y-121481972D01*
X105465432Y-121562012D01*
X105545974Y-121686598D01*
X105645827Y-121865493D01*
X105669131Y-121907300D01*
X105757287Y-122056150D01*
X105827222Y-122135972D01*
X105907096Y-122168132D01*
X106020628Y-122174000D01*
X106147557Y-122168836D01*
X106217839Y-122155947D01*
X106222800Y-122150855D01*
X106197683Y-122097755D01*
X106134865Y-121992972D01*
X106108500Y-121951761D01*
X106016082Y-121804864D01*
X105904814Y-121621736D01*
X105841800Y-121515376D01*
X105722896Y-121314315D01*
X105593680Y-121098916D01*
X105553798Y-121033255D01*
X105156000Y-121033255D01*
X105108620Y-121042556D01*
X104980149Y-121050072D01*
X104791092Y-121054954D01*
X104597200Y-121056400D01*
X104372646Y-121054805D01*
X104191174Y-121050481D01*
X104073290Y-121044119D01*
X104038400Y-121037594D01*
X104049135Y-120985410D01*
X104077718Y-120857792D01*
X104118723Y-120678202D01*
X104166720Y-120470102D01*
X104216283Y-120256954D01*
X104261983Y-120062223D01*
X104298391Y-119909370D01*
X104316113Y-119837200D01*
X104337168Y-119736265D01*
X104340852Y-119710200D01*
X104366035Y-119724666D01*
X104427308Y-119810238D01*
X104511930Y-119948921D01*
X104520717Y-119964200D01*
X104727638Y-120321202D01*
X104901495Y-120610617D01*
X105041700Y-120833234D01*
X105112877Y-120948446D01*
X105152844Y-121022975D01*
X105156000Y-121033255D01*
X105553798Y-121033255D01*
X105537000Y-121005600D01*
X105417670Y-120808560D01*
X105288093Y-120591985D01*
X105232200Y-120497600D01*
X105112870Y-120296870D01*
X104983293Y-120081523D01*
X104927400Y-119989600D01*
X104807271Y-119791877D01*
X104677023Y-119575788D01*
X104622600Y-119484889D01*
X104529693Y-119339586D01*
X104454749Y-119262863D01*
X104368995Y-119233088D01*
X104281659Y-119228559D01*
X104220214Y-119226396D01*
X104172084Y-119228155D01*
G37*
X104172084Y-119228155D02*
X104132667Y-119245141D01*
X104097361Y-119288660D01*
X104061563Y-119370018D01*
X104020671Y-119500522D01*
X103970083Y-119691478D01*
X103905196Y-119954191D01*
X103821410Y-120299969D01*
X103785772Y-120446800D01*
X103734522Y-120651470D01*
X103688746Y-120823449D01*
X103655991Y-120934757D01*
X103648752Y-120954800D01*
X103614336Y-121070782D01*
X103602979Y-121132600D01*
X103584657Y-121227378D01*
X103547986Y-121390276D01*
X103499867Y-121590999D01*
X103483618Y-121656518D01*
X103435546Y-121853984D01*
X103398926Y-122014400D01*
X103379600Y-122111776D01*
X103378000Y-122126418D01*
X103422992Y-122156562D01*
X103535023Y-122172986D01*
X103575547Y-122174000D01*
X103705057Y-122166644D01*
X103768252Y-122125306D01*
X103800290Y-122021080D01*
X103807249Y-121983500D01*
X103845436Y-121795370D01*
X103890119Y-121606122D01*
X103891060Y-121602500D01*
X103940717Y-121412000D01*
X104647587Y-121412000D01*
X104933629Y-121411491D01*
X105138298Y-121416475D01*
X105281730Y-121436714D01*
X105384063Y-121481972D01*
X105465432Y-121562012D01*
X105545974Y-121686598D01*
X105645827Y-121865493D01*
X105669131Y-121907300D01*
X105757287Y-122056150D01*
X105827222Y-122135972D01*
X105907096Y-122168132D01*
X106020628Y-122174000D01*
X106147557Y-122168836D01*
X106217839Y-122155947D01*
X106222800Y-122150855D01*
X106197683Y-122097755D01*
X106134865Y-121992972D01*
X106108500Y-121951761D01*
X106016082Y-121804864D01*
X105904814Y-121621736D01*
X105841800Y-121515376D01*
X105722896Y-121314315D01*
X105593680Y-121098916D01*
X105553798Y-121033255D01*
X105156000Y-121033255D01*
X105108620Y-121042556D01*
X104980149Y-121050072D01*
X104791092Y-121054954D01*
X104597200Y-121056400D01*
X104372646Y-121054805D01*
X104191174Y-121050481D01*
X104073290Y-121044119D01*
X104038400Y-121037594D01*
X104049135Y-120985410D01*
X104077718Y-120857792D01*
X104118723Y-120678202D01*
X104166720Y-120470102D01*
X104216283Y-120256954D01*
X104261983Y-120062223D01*
X104298391Y-119909370D01*
X104316113Y-119837200D01*
X104337168Y-119736265D01*
X104340852Y-119710200D01*
X104366035Y-119724666D01*
X104427308Y-119810238D01*
X104511930Y-119948921D01*
X104520717Y-119964200D01*
X104727638Y-120321202D01*
X104901495Y-120610617D01*
X105041700Y-120833234D01*
X105112877Y-120948446D01*
X105152844Y-121022975D01*
X105156000Y-121033255D01*
X105553798Y-121033255D01*
X105537000Y-121005600D01*
X105417670Y-120808560D01*
X105288093Y-120591985D01*
X105232200Y-120497600D01*
X105112870Y-120296870D01*
X104983293Y-120081523D01*
X104927400Y-119989600D01*
X104807271Y-119791877D01*
X104677023Y-119575788D01*
X104622600Y-119484889D01*
X104529693Y-119339586D01*
X104454749Y-119262863D01*
X104368995Y-119233088D01*
X104281659Y-119228559D01*
X104220214Y-119226396D01*
X104172084Y-119228155D01*
G36*
X106612076Y-119227834D02*
G01*
X106355052Y-119230598D01*
X106175095Y-119238981D01*
X106059939Y-119256075D01*
X105997319Y-119284971D01*
X105974969Y-119328759D01*
X105980623Y-119390530D01*
X106000819Y-119468900D01*
X106015657Y-119511848D01*
X106043679Y-119542416D01*
X106100218Y-119562708D01*
X106200605Y-119574829D01*
X106360174Y-119580881D01*
X106594256Y-119582969D01*
X106833736Y-119583200D01*
X107636021Y-119583200D01*
X107694695Y-119951500D01*
X107726187Y-120140692D01*
X107754140Y-120293821D01*
X107772894Y-120380023D01*
X107773890Y-120383300D01*
X107758413Y-120410891D01*
X107683120Y-120429759D01*
X107536095Y-120441129D01*
X107305421Y-120446223D01*
X107155571Y-120446800D01*
X106890081Y-120448140D01*
X106711150Y-120453485D01*
X106603760Y-120464821D01*
X106552890Y-120484130D01*
X106543520Y-120513400D01*
X106547565Y-120527154D01*
X106574788Y-120649104D01*
X106578400Y-120703437D01*
X106585923Y-120743185D01*
X106619304Y-120770856D01*
X106694760Y-120789208D01*
X106828509Y-120800998D01*
X107036769Y-120808985D01*
X107226100Y-120813582D01*
X107873800Y-120827800D01*
X107884840Y-120980200D01*
X107903096Y-121127628D01*
X107935106Y-121308681D01*
X107946128Y-121361200D01*
X107984235Y-121530633D01*
X108003889Y-121652214D01*
X107992335Y-121733838D01*
X107936813Y-121783402D01*
X107824568Y-121808801D01*
X107642842Y-121817932D01*
X107378878Y-121818692D01*
X107207476Y-121818400D01*
X106414151Y-121818400D01*
X106444782Y-121932700D01*
X106469752Y-122050829D01*
X106476107Y-122110500D01*
X106500497Y-122133516D01*
X106579885Y-122150673D01*
X106724452Y-122162623D01*
X106944379Y-122170016D01*
X107249849Y-122173507D01*
X107467400Y-122174000D01*
X107772068Y-122172145D01*
X108038723Y-122166975D01*
X108251974Y-122159082D01*
X108396431Y-122149060D01*
X108456701Y-122137499D01*
X108457550Y-122135900D01*
X108448868Y-122073262D01*
X108425672Y-121932539D01*
X108391654Y-121735601D01*
X108356749Y-121539000D01*
X108309644Y-121272920D01*
X108252707Y-120945551D01*
X108192662Y-120595845D01*
X108136232Y-120262755D01*
X108128757Y-120218200D01*
X108082211Y-119943147D01*
X108039578Y-119696406D01*
X108004522Y-119498800D01*
X107980706Y-119371151D01*
X107974590Y-119341900D01*
X107963004Y-119302654D01*
X107939967Y-119273609D01*
X107891829Y-119253230D01*
X107804943Y-119239982D01*
X107665660Y-119232329D01*
X107460332Y-119228736D01*
X107175309Y-119227667D01*
X106958433Y-119227600D01*
X106612076Y-119227834D01*
G37*
X106612076Y-119227834D02*
X106355052Y-119230598D01*
X106175095Y-119238981D01*
X106059939Y-119256075D01*
X105997319Y-119284971D01*
X105974969Y-119328759D01*
X105980623Y-119390530D01*
X106000819Y-119468900D01*
X106015657Y-119511848D01*
X106043679Y-119542416D01*
X106100218Y-119562708D01*
X106200605Y-119574829D01*
X106360174Y-119580881D01*
X106594256Y-119582969D01*
X106833736Y-119583200D01*
X107636021Y-119583200D01*
X107694695Y-119951500D01*
X107726187Y-120140692D01*
X107754140Y-120293821D01*
X107772894Y-120380023D01*
X107773890Y-120383300D01*
X107758413Y-120410891D01*
X107683120Y-120429759D01*
X107536095Y-120441129D01*
X107305421Y-120446223D01*
X107155571Y-120446800D01*
X106890081Y-120448140D01*
X106711150Y-120453485D01*
X106603760Y-120464821D01*
X106552890Y-120484130D01*
X106543520Y-120513400D01*
X106547565Y-120527154D01*
X106574788Y-120649104D01*
X106578400Y-120703437D01*
X106585923Y-120743185D01*
X106619304Y-120770856D01*
X106694760Y-120789208D01*
X106828509Y-120800998D01*
X107036769Y-120808985D01*
X107226100Y-120813582D01*
X107873800Y-120827800D01*
X107884840Y-120980200D01*
X107903096Y-121127628D01*
X107935106Y-121308681D01*
X107946128Y-121361200D01*
X107984235Y-121530633D01*
X108003889Y-121652214D01*
X107992335Y-121733838D01*
X107936813Y-121783402D01*
X107824568Y-121808801D01*
X107642842Y-121817932D01*
X107378878Y-121818692D01*
X107207476Y-121818400D01*
X106414151Y-121818400D01*
X106444782Y-121932700D01*
X106469752Y-122050829D01*
X106476107Y-122110500D01*
X106500497Y-122133516D01*
X106579885Y-122150673D01*
X106724452Y-122162623D01*
X106944379Y-122170016D01*
X107249849Y-122173507D01*
X107467400Y-122174000D01*
X107772068Y-122172145D01*
X108038723Y-122166975D01*
X108251974Y-122159082D01*
X108396431Y-122149060D01*
X108456701Y-122137499D01*
X108457550Y-122135900D01*
X108448868Y-122073262D01*
X108425672Y-121932539D01*
X108391654Y-121735601D01*
X108356749Y-121539000D01*
X108309644Y-121272920D01*
X108252707Y-120945551D01*
X108192662Y-120595845D01*
X108136232Y-120262755D01*
X108128757Y-120218200D01*
X108082211Y-119943147D01*
X108039578Y-119696406D01*
X108004522Y-119498800D01*
X107980706Y-119371151D01*
X107974590Y-119341900D01*
X107963004Y-119302654D01*
X107939967Y-119273609D01*
X107891829Y-119253230D01*
X107804943Y-119239982D01*
X107665660Y-119232329D01*
X107460332Y-119228736D01*
X107175309Y-119227667D01*
X106958433Y-119227600D01*
X106612076Y-119227834D01*
G36*
X110050312Y-119227600D02*
G01*
X109871470Y-119227600D01*
X109903232Y-119443500D01*
X109937343Y-119640955D01*
X109979024Y-119840039D01*
X109984394Y-119862600D01*
X110010226Y-119985116D01*
X110047722Y-120184043D01*
X110092551Y-120435457D01*
X110140388Y-120715435D01*
X110159022Y-120827800D01*
X110205128Y-121102960D01*
X110248130Y-121349776D01*
X110284271Y-121547401D01*
X110309797Y-121674986D01*
X110316850Y-121704100D01*
X110349450Y-121818400D01*
X109576090Y-121818400D01*
X109279372Y-121819434D01*
X109070376Y-121823538D01*
X108935238Y-121832213D01*
X108860092Y-121846958D01*
X108831074Y-121869274D01*
X108833565Y-121898754D01*
X108860638Y-122020246D01*
X108864400Y-122076554D01*
X108869477Y-122110713D01*
X108893727Y-122135804D01*
X108950680Y-122153221D01*
X109053863Y-122164355D01*
X109216808Y-122170600D01*
X109453042Y-122173350D01*
X109776095Y-122173997D01*
X109810807Y-122174000D01*
X110757214Y-122174000D01*
X110723419Y-121932700D01*
X110698459Y-121765678D01*
X110675121Y-121627284D01*
X110667763Y-121589800D01*
X110651637Y-121505596D01*
X110621842Y-121341645D01*
X110582026Y-121118309D01*
X110535834Y-120855956D01*
X110513173Y-120726200D01*
X110465941Y-120455254D01*
X110424227Y-120216357D01*
X110391447Y-120029045D01*
X110371018Y-119912856D01*
X110366586Y-119888000D01*
X110317862Y-119620572D01*
X110281100Y-119437088D01*
X110248753Y-119321787D01*
X110213271Y-119258903D01*
X110167103Y-119232673D01*
X110102702Y-119227333D01*
X110050312Y-119227600D01*
G37*
X110050312Y-119227600D02*
X109871470Y-119227600D01*
X109903232Y-119443500D01*
X109937343Y-119640955D01*
X109979024Y-119840039D01*
X109984394Y-119862600D01*
X110010226Y-119985116D01*
X110047722Y-120184043D01*
X110092551Y-120435457D01*
X110140388Y-120715435D01*
X110159022Y-120827800D01*
X110205128Y-121102960D01*
X110248130Y-121349776D01*
X110284271Y-121547401D01*
X110309797Y-121674986D01*
X110316850Y-121704100D01*
X110349450Y-121818400D01*
X109576090Y-121818400D01*
X109279372Y-121819434D01*
X109070376Y-121823538D01*
X108935238Y-121832213D01*
X108860092Y-121846958D01*
X108831074Y-121869274D01*
X108833565Y-121898754D01*
X108860638Y-122020246D01*
X108864400Y-122076554D01*
X108869477Y-122110713D01*
X108893727Y-122135804D01*
X108950680Y-122153221D01*
X109053863Y-122164355D01*
X109216808Y-122170600D01*
X109453042Y-122173350D01*
X109776095Y-122173997D01*
X109810807Y-122174000D01*
X110757214Y-122174000D01*
X110723419Y-121932700D01*
X110698459Y-121765678D01*
X110675121Y-121627284D01*
X110667763Y-121589800D01*
X110651637Y-121505596D01*
X110621842Y-121341645D01*
X110582026Y-121118309D01*
X110535834Y-120855956D01*
X110513173Y-120726200D01*
X110465941Y-120455254D01*
X110424227Y-120216357D01*
X110391447Y-120029045D01*
X110371018Y-119912856D01*
X110366586Y-119888000D01*
X110317862Y-119620572D01*
X110281100Y-119437088D01*
X110248753Y-119321787D01*
X110213271Y-119258903D01*
X110167103Y-119232673D01*
X110102702Y-119227333D01*
X110050312Y-119227600D01*
G36*
X110894616Y-119233231D02*
G01*
X110852301Y-119268940D01*
X110861796Y-119362948D01*
X110868035Y-119392700D01*
X110888524Y-119497856D01*
X110922526Y-119682163D01*
X110966247Y-119924656D01*
X111015897Y-120204370D01*
X111049514Y-120396000D01*
X111105723Y-120716695D01*
X111162894Y-121040731D01*
X111215751Y-121338335D01*
X111259015Y-121579732D01*
X111274660Y-121666000D01*
X111310326Y-121865542D01*
X111337598Y-122025942D01*
X111352196Y-122121707D01*
X111353531Y-122135900D01*
X111398274Y-122161092D01*
X111508192Y-122173674D01*
X111531400Y-122174000D01*
X111652035Y-122164126D01*
X111701338Y-122121263D01*
X111709200Y-122053933D01*
X111699111Y-121935907D01*
X111673325Y-121766154D01*
X111653330Y-121660233D01*
X111617840Y-121480087D01*
X111588865Y-121322023D01*
X111578618Y-121259600D01*
X111563089Y-121165316D01*
X111533247Y-120992733D01*
X111492893Y-120763522D01*
X111445823Y-120499356D01*
X111427268Y-120396000D01*
X111379383Y-120127065D01*
X111337663Y-119887602D01*
X111305661Y-119698392D01*
X111286929Y-119580215D01*
X111283980Y-119557800D01*
X111249029Y-119373354D01*
X111183022Y-119270471D01*
X111070547Y-119230324D01*
X111013627Y-119227600D01*
X110894616Y-119233231D01*
G37*
X110894616Y-119233231D02*
X110852301Y-119268940D01*
X110861796Y-119362948D01*
X110868035Y-119392700D01*
X110888524Y-119497856D01*
X110922526Y-119682163D01*
X110966247Y-119924656D01*
X111015897Y-120204370D01*
X111049514Y-120396000D01*
X111105723Y-120716695D01*
X111162894Y-121040731D01*
X111215751Y-121338335D01*
X111259015Y-121579732D01*
X111274660Y-121666000D01*
X111310326Y-121865542D01*
X111337598Y-122025942D01*
X111352196Y-122121707D01*
X111353531Y-122135900D01*
X111398274Y-122161092D01*
X111508192Y-122173674D01*
X111531400Y-122174000D01*
X111652035Y-122164126D01*
X111701338Y-122121263D01*
X111709200Y-122053933D01*
X111699111Y-121935907D01*
X111673325Y-121766154D01*
X111653330Y-121660233D01*
X111617840Y-121480087D01*
X111588865Y-121322023D01*
X111578618Y-121259600D01*
X111563089Y-121165316D01*
X111533247Y-120992733D01*
X111492893Y-120763522D01*
X111445823Y-120499356D01*
X111427268Y-120396000D01*
X111379383Y-120127065D01*
X111337663Y-119887602D01*
X111305661Y-119698392D01*
X111286929Y-119580215D01*
X111283980Y-119557800D01*
X111249029Y-119373354D01*
X111183022Y-119270471D01*
X111070547Y-119230324D01*
X111013627Y-119227600D01*
X110894616Y-119233231D01*
G36*
X114194602Y-119235622D02*
G01*
X114126355Y-119274154D01*
X114074405Y-119368810D01*
X114037092Y-119469399D01*
X113948818Y-119714913D01*
X113852190Y-119976840D01*
X113757888Y-120226851D01*
X113676594Y-120436615D01*
X113620715Y-120573800D01*
X113556890Y-120724367D01*
X113505856Y-120847584D01*
X113479608Y-120899168D01*
X113447835Y-120910241D01*
X113397723Y-120870230D01*
X113316456Y-120768558D01*
X113191221Y-120594652D01*
X113179767Y-120578500D01*
X113049320Y-120396040D01*
X112933359Y-120236664D01*
X112849690Y-120124726D01*
X112826729Y-120095604D01*
X112763716Y-120014282D01*
X112669419Y-119888000D01*
X112318800Y-119888000D01*
X112300214Y-119929814D01*
X112284934Y-119921866D01*
X112278854Y-119861578D01*
X112284934Y-119854133D01*
X112315134Y-119861106D01*
X112318800Y-119888000D01*
X112669419Y-119888000D01*
X112659512Y-119874734D01*
X112532182Y-119701261D01*
X112471129Y-119617193D01*
X112337031Y-119435734D01*
X112241264Y-119322093D01*
X112164556Y-119260396D01*
X112087635Y-119234769D01*
X112000333Y-119229405D01*
X111876694Y-119234680D01*
X111829530Y-119264969D01*
X111834041Y-119337159D01*
X111835116Y-119341900D01*
X111852447Y-119430905D01*
X111882569Y-119599345D01*
X111921852Y-119826387D01*
X111966664Y-120091203D01*
X111987842Y-120218200D01*
X112039860Y-120529322D01*
X112093620Y-120846952D01*
X112143493Y-121138088D01*
X112183855Y-121369730D01*
X112191358Y-121412000D01*
X112230542Y-121632890D01*
X112266052Y-121835306D01*
X112291588Y-121983270D01*
X112295902Y-122008900D01*
X112326037Y-122121162D01*
X112388860Y-122166287D01*
X112498902Y-122174000D01*
X112586430Y-122169268D01*
X112642440Y-122144580D01*
X112669168Y-122084192D01*
X112668847Y-121972362D01*
X112643712Y-121793349D01*
X112595996Y-121531411D01*
X112592632Y-121513600D01*
X112553520Y-121299654D01*
X112521312Y-121110522D01*
X112501469Y-120978687D01*
X112498707Y-120954800D01*
X112477539Y-120824434D01*
X112457178Y-120751600D01*
X112432609Y-120660504D01*
X112403333Y-120514993D01*
X112374275Y-120345858D01*
X112350360Y-120183889D01*
X112336513Y-120059876D01*
X112337659Y-120004608D01*
X112337689Y-120004578D01*
X112371772Y-120037767D01*
X112456057Y-120140399D01*
X112580733Y-120299936D01*
X112735993Y-120503836D01*
X112901344Y-120725134D01*
X113122352Y-121019749D01*
X113294180Y-121235600D01*
X113425799Y-121377237D01*
X113526179Y-121449210D01*
X113604288Y-121456070D01*
X113669098Y-121402367D01*
X113729578Y-121292651D01*
X113779677Y-121170700D01*
X113851705Y-120984734D01*
X113918276Y-120813444D01*
X113952341Y-120726200D01*
X113995161Y-120613447D01*
X114016876Y-120549522D01*
X114017122Y-120548400D01*
X114044540Y-120486384D01*
X114052714Y-120472200D01*
X114084474Y-120398797D01*
X114134469Y-120262499D01*
X114175491Y-120142000D01*
X114267709Y-119862600D01*
X114382936Y-120573800D01*
X114426827Y-120841516D01*
X114467258Y-121082334D01*
X114500410Y-121273913D01*
X114522466Y-121393916D01*
X114526211Y-121412000D01*
X114550027Y-121529957D01*
X114582939Y-121705199D01*
X114610144Y-121856500D01*
X114666030Y-122174000D01*
X114843951Y-122174000D01*
X114959230Y-122168562D01*
X115004288Y-122132366D01*
X115002956Y-122035584D01*
X114996159Y-121983500D01*
X114979011Y-121872107D01*
X114947356Y-121681024D01*
X114904652Y-121430557D01*
X114854355Y-121141015D01*
X114808082Y-120878600D01*
X114755281Y-120576709D01*
X114708597Y-120301232D01*
X114671122Y-120071094D01*
X114645945Y-119905226D01*
X114636398Y-119827172D01*
X114617039Y-119712199D01*
X114590540Y-119653606D01*
X114561268Y-119578211D01*
X114554000Y-119502688D01*
X114534921Y-119340460D01*
X114466225Y-119255390D01*
X114330724Y-119228349D01*
X114307265Y-119228099D01*
X114194602Y-119235622D01*
G37*
X114194602Y-119235622D02*
X114126355Y-119274154D01*
X114074405Y-119368810D01*
X114037092Y-119469399D01*
X113948818Y-119714913D01*
X113852190Y-119976840D01*
X113757888Y-120226851D01*
X113676594Y-120436615D01*
X113620715Y-120573800D01*
X113556890Y-120724367D01*
X113505856Y-120847584D01*
X113479608Y-120899168D01*
X113447835Y-120910241D01*
X113397723Y-120870230D01*
X113316456Y-120768558D01*
X113191221Y-120594652D01*
X113179767Y-120578500D01*
X113049320Y-120396040D01*
X112933359Y-120236664D01*
X112849690Y-120124726D01*
X112826729Y-120095604D01*
X112763716Y-120014282D01*
X112669419Y-119888000D01*
X112318800Y-119888000D01*
X112300214Y-119929814D01*
X112284934Y-119921866D01*
X112278854Y-119861578D01*
X112284934Y-119854133D01*
X112315134Y-119861106D01*
X112318800Y-119888000D01*
X112669419Y-119888000D01*
X112659512Y-119874734D01*
X112532182Y-119701261D01*
X112471129Y-119617193D01*
X112337031Y-119435734D01*
X112241264Y-119322093D01*
X112164556Y-119260396D01*
X112087635Y-119234769D01*
X112000333Y-119229405D01*
X111876694Y-119234680D01*
X111829530Y-119264969D01*
X111834041Y-119337159D01*
X111835116Y-119341900D01*
X111852447Y-119430905D01*
X111882569Y-119599345D01*
X111921852Y-119826387D01*
X111966664Y-120091203D01*
X111987842Y-120218200D01*
X112039860Y-120529322D01*
X112093620Y-120846952D01*
X112143493Y-121138088D01*
X112183855Y-121369730D01*
X112191358Y-121412000D01*
X112230542Y-121632890D01*
X112266052Y-121835306D01*
X112291588Y-121983270D01*
X112295902Y-122008900D01*
X112326037Y-122121162D01*
X112388860Y-122166287D01*
X112498902Y-122174000D01*
X112586430Y-122169268D01*
X112642440Y-122144580D01*
X112669168Y-122084192D01*
X112668847Y-121972362D01*
X112643712Y-121793349D01*
X112595996Y-121531411D01*
X112592632Y-121513600D01*
X112553520Y-121299654D01*
X112521312Y-121110522D01*
X112501469Y-120978687D01*
X112498707Y-120954800D01*
X112477539Y-120824434D01*
X112457178Y-120751600D01*
X112432609Y-120660504D01*
X112403333Y-120514993D01*
X112374275Y-120345858D01*
X112350360Y-120183889D01*
X112336513Y-120059876D01*
X112337659Y-120004608D01*
X112337689Y-120004578D01*
X112371772Y-120037767D01*
X112456057Y-120140399D01*
X112580733Y-120299936D01*
X112735993Y-120503836D01*
X112901344Y-120725134D01*
X113122352Y-121019749D01*
X113294180Y-121235600D01*
X113425799Y-121377237D01*
X113526179Y-121449210D01*
X113604288Y-121456070D01*
X113669098Y-121402367D01*
X113729578Y-121292651D01*
X113779677Y-121170700D01*
X113851705Y-120984734D01*
X113918276Y-120813444D01*
X113952341Y-120726200D01*
X113995161Y-120613447D01*
X114016876Y-120549522D01*
X114017122Y-120548400D01*
X114044540Y-120486384D01*
X114052714Y-120472200D01*
X114084474Y-120398797D01*
X114134469Y-120262499D01*
X114175491Y-120142000D01*
X114267709Y-119862600D01*
X114382936Y-120573800D01*
X114426827Y-120841516D01*
X114467258Y-121082334D01*
X114500410Y-121273913D01*
X114522466Y-121393916D01*
X114526211Y-121412000D01*
X114550027Y-121529957D01*
X114582939Y-121705199D01*
X114610144Y-121856500D01*
X114666030Y-122174000D01*
X114843951Y-122174000D01*
X114959230Y-122168562D01*
X115004288Y-122132366D01*
X115002956Y-122035584D01*
X114996159Y-121983500D01*
X114979011Y-121872107D01*
X114947356Y-121681024D01*
X114904652Y-121430557D01*
X114854355Y-121141015D01*
X114808082Y-120878600D01*
X114755281Y-120576709D01*
X114708597Y-120301232D01*
X114671122Y-120071094D01*
X114645945Y-119905226D01*
X114636398Y-119827172D01*
X114617039Y-119712199D01*
X114590540Y-119653606D01*
X114561268Y-119578211D01*
X114554000Y-119502688D01*
X114534921Y-119340460D01*
X114466225Y-119255390D01*
X114330724Y-119228349D01*
X114307265Y-119228099D01*
X114194602Y-119235622D01*
G36*
X116465208Y-119228841D02*
G01*
X116071099Y-119241559D01*
X115763835Y-119281158D01*
X115530964Y-119353008D01*
X115360033Y-119462477D01*
X115238590Y-119614935D01*
X115162187Y-119790683D01*
X115131282Y-120037198D01*
X115185221Y-120297924D01*
X115315469Y-120547028D01*
X115469571Y-120721214D01*
X115594531Y-120824246D01*
X115696295Y-120890893D01*
X115735247Y-120904777D01*
X115828691Y-120917329D01*
X115876814Y-120961608D01*
X115879509Y-121051828D01*
X115836667Y-121202199D01*
X115748180Y-121426934D01*
X115730970Y-121467922D01*
X115616672Y-121739136D01*
X115539778Y-121930262D01*
X115499311Y-122055283D01*
X115494293Y-122128184D01*
X115523750Y-122162948D01*
X115586702Y-122173558D01*
X115681653Y-122174000D01*
X115808355Y-122170011D01*
X115883593Y-122142394D01*
X115934991Y-122067676D01*
X115990169Y-121922382D01*
X115995471Y-121907300D01*
X116068133Y-121710010D01*
X116145494Y-121513919D01*
X116177708Y-121437400D01*
X116240480Y-121289471D01*
X116288715Y-121169182D01*
X116297520Y-121145300D01*
X116336259Y-121093806D01*
X116422170Y-121066384D01*
X116579088Y-121056761D01*
X116635206Y-121056400D01*
X116829424Y-121065657D01*
X116928955Y-121094148D01*
X116945375Y-121119900D01*
X116958518Y-121221535D01*
X116970274Y-121285000D01*
X116988948Y-121383400D01*
X117018512Y-121548225D01*
X117052924Y-121745719D01*
X117056679Y-121767600D01*
X117121960Y-122148600D01*
X117311180Y-122164366D01*
X117432779Y-122163453D01*
X117497271Y-122141437D01*
X117500400Y-122133200D01*
X117490923Y-122060403D01*
X117466560Y-121923417D01*
X117444821Y-121812633D01*
X117421346Y-121696911D01*
X117402184Y-121600855D01*
X117384042Y-121506359D01*
X117363628Y-121395311D01*
X117337651Y-121249603D01*
X117302817Y-121051127D01*
X117255835Y-120781773D01*
X117226245Y-120611900D01*
X116839931Y-120611900D01*
X116827997Y-120655975D01*
X116779055Y-120682604D01*
X116673521Y-120695905D01*
X116491814Y-120699999D01*
X116420900Y-120700051D01*
X116207538Y-120692193D01*
X116021262Y-120672017D01*
X115895657Y-120643464D01*
X115879698Y-120636551D01*
X115717713Y-120507512D01*
X115598823Y-120325483D01*
X115534928Y-120121247D01*
X115537924Y-119925586D01*
X115570419Y-119836417D01*
X115656377Y-119742755D01*
X115787415Y-119661059D01*
X115801058Y-119655099D01*
X115933174Y-119619190D01*
X116109753Y-119595497D01*
X116300946Y-119584800D01*
X116476907Y-119587881D01*
X116607789Y-119605520D01*
X116661328Y-119632588D01*
X116683714Y-119703570D01*
X116715814Y-119846274D01*
X116752383Y-120031930D01*
X116788173Y-120231769D01*
X116817937Y-120417019D01*
X116836428Y-120558911D01*
X116839931Y-120611900D01*
X117226245Y-120611900D01*
X117219608Y-120573800D01*
X117172283Y-120302844D01*
X117130315Y-120063941D01*
X117097156Y-119876629D01*
X117076255Y-119760446D01*
X117071574Y-119735600D01*
X117053380Y-119639525D01*
X117026641Y-119492698D01*
X117017842Y-119443500D01*
X116979415Y-119227600D01*
X116465208Y-119228841D01*
G37*
X116465208Y-119228841D02*
X116071099Y-119241559D01*
X115763835Y-119281158D01*
X115530964Y-119353008D01*
X115360033Y-119462477D01*
X115238590Y-119614935D01*
X115162187Y-119790683D01*
X115131282Y-120037198D01*
X115185221Y-120297924D01*
X115315469Y-120547028D01*
X115469571Y-120721214D01*
X115594531Y-120824246D01*
X115696295Y-120890893D01*
X115735247Y-120904777D01*
X115828691Y-120917329D01*
X115876814Y-120961608D01*
X115879509Y-121051828D01*
X115836667Y-121202199D01*
X115748180Y-121426934D01*
X115730970Y-121467922D01*
X115616672Y-121739136D01*
X115539778Y-121930262D01*
X115499311Y-122055283D01*
X115494293Y-122128184D01*
X115523750Y-122162948D01*
X115586702Y-122173558D01*
X115681653Y-122174000D01*
X115808355Y-122170011D01*
X115883593Y-122142394D01*
X115934991Y-122067676D01*
X115990169Y-121922382D01*
X115995471Y-121907300D01*
X116068133Y-121710010D01*
X116145494Y-121513919D01*
X116177708Y-121437400D01*
X116240480Y-121289471D01*
X116288715Y-121169182D01*
X116297520Y-121145300D01*
X116336259Y-121093806D01*
X116422170Y-121066384D01*
X116579088Y-121056761D01*
X116635206Y-121056400D01*
X116829424Y-121065657D01*
X116928955Y-121094148D01*
X116945375Y-121119900D01*
X116958518Y-121221535D01*
X116970274Y-121285000D01*
X116988948Y-121383400D01*
X117018512Y-121548225D01*
X117052924Y-121745719D01*
X117056679Y-121767600D01*
X117121960Y-122148600D01*
X117311180Y-122164366D01*
X117432779Y-122163453D01*
X117497271Y-122141437D01*
X117500400Y-122133200D01*
X117490923Y-122060403D01*
X117466560Y-121923417D01*
X117444821Y-121812633D01*
X117421346Y-121696911D01*
X117402184Y-121600855D01*
X117384042Y-121506359D01*
X117363628Y-121395311D01*
X117337651Y-121249603D01*
X117302817Y-121051127D01*
X117255835Y-120781773D01*
X117226245Y-120611900D01*
X116839931Y-120611900D01*
X116827997Y-120655975D01*
X116779055Y-120682604D01*
X116673521Y-120695905D01*
X116491814Y-120699999D01*
X116420900Y-120700051D01*
X116207538Y-120692193D01*
X116021262Y-120672017D01*
X115895657Y-120643464D01*
X115879698Y-120636551D01*
X115717713Y-120507512D01*
X115598823Y-120325483D01*
X115534928Y-120121247D01*
X115537924Y-119925586D01*
X115570419Y-119836417D01*
X115656377Y-119742755D01*
X115787415Y-119661059D01*
X115801058Y-119655099D01*
X115933174Y-119619190D01*
X116109753Y-119595497D01*
X116300946Y-119584800D01*
X116476907Y-119587881D01*
X116607789Y-119605520D01*
X116661328Y-119632588D01*
X116683714Y-119703570D01*
X116715814Y-119846274D01*
X116752383Y-120031930D01*
X116788173Y-120231769D01*
X116817937Y-120417019D01*
X116836428Y-120558911D01*
X116839931Y-120611900D01*
X117226245Y-120611900D01*
X117219608Y-120573800D01*
X117172283Y-120302844D01*
X117130315Y-120063941D01*
X117097156Y-119876629D01*
X117076255Y-119760446D01*
X117071574Y-119735600D01*
X117053380Y-119639525D01*
X117026641Y-119492698D01*
X117017842Y-119443500D01*
X116979415Y-119227600D01*
X116465208Y-119228841D01*
G36*
X117500400Y-119580683D02*
G01*
X118324795Y-119594641D01*
X119149189Y-119608600D01*
X119210673Y-119964200D01*
X119241736Y-120149942D01*
X119264863Y-120299688D01*
X119275206Y-120381990D01*
X119275279Y-120383300D01*
X119248860Y-120411905D01*
X119158534Y-120431187D01*
X118992666Y-120442366D01*
X118739620Y-120446658D01*
X118668800Y-120446800D01*
X118411153Y-120447905D01*
X118238324Y-120453008D01*
X118133542Y-120464790D01*
X118080033Y-120485932D01*
X118061026Y-120519115D01*
X118059200Y-120544245D01*
X118064020Y-120649089D01*
X118089236Y-120720884D01*
X118150988Y-120765869D01*
X118265414Y-120790289D01*
X118448652Y-120800385D01*
X118716841Y-120802399D01*
X118726630Y-120802400D01*
X118989994Y-120803243D01*
X119169295Y-120810619D01*
X119282066Y-120831794D01*
X119345841Y-120874036D01*
X119378154Y-120944612D01*
X119396540Y-121050789D01*
X119400749Y-121081800D01*
X119423091Y-121221053D01*
X119456886Y-121405876D01*
X119476944Y-121507833D01*
X119507525Y-121661807D01*
X119527666Y-121769129D01*
X119532400Y-121799933D01*
X119484480Y-121806262D01*
X119352236Y-121811656D01*
X119152942Y-121815710D01*
X118903874Y-121818019D01*
X118745000Y-121818400D01*
X117957600Y-121818400D01*
X117957600Y-122174000D01*
X119938800Y-122174000D01*
X119938800Y-122056329D01*
X119927882Y-121927391D01*
X119897843Y-121724680D01*
X119852755Y-121473342D01*
X119809737Y-121259600D01*
X119791884Y-121165155D01*
X119761083Y-120992251D01*
X119721140Y-120762637D01*
X119675861Y-120498062D01*
X119658575Y-120396000D01*
X119602629Y-120065975D01*
X119560263Y-119820231D01*
X119528445Y-119642817D01*
X119504140Y-119517781D01*
X119484316Y-119429171D01*
X119465937Y-119361035D01*
X119454912Y-119325141D01*
X119438390Y-119291127D01*
X119404301Y-119266077D01*
X119338781Y-119248628D01*
X119227963Y-119237419D01*
X119057979Y-119231086D01*
X118814963Y-119228267D01*
X118485048Y-119227601D01*
X118462177Y-119227600D01*
X117500400Y-119227600D01*
X117500400Y-119580683D01*
G37*
X117500400Y-119580683D02*
X118324795Y-119594641D01*
X119149189Y-119608600D01*
X119210673Y-119964200D01*
X119241736Y-120149942D01*
X119264863Y-120299688D01*
X119275206Y-120381990D01*
X119275279Y-120383300D01*
X119248860Y-120411905D01*
X119158534Y-120431187D01*
X118992666Y-120442366D01*
X118739620Y-120446658D01*
X118668800Y-120446800D01*
X118411153Y-120447905D01*
X118238324Y-120453008D01*
X118133542Y-120464790D01*
X118080033Y-120485932D01*
X118061026Y-120519115D01*
X118059200Y-120544245D01*
X118064020Y-120649089D01*
X118089236Y-120720884D01*
X118150988Y-120765869D01*
X118265414Y-120790289D01*
X118448652Y-120800385D01*
X118716841Y-120802399D01*
X118726630Y-120802400D01*
X118989994Y-120803243D01*
X119169295Y-120810619D01*
X119282066Y-120831794D01*
X119345841Y-120874036D01*
X119378154Y-120944612D01*
X119396540Y-121050789D01*
X119400749Y-121081800D01*
X119423091Y-121221053D01*
X119456886Y-121405876D01*
X119476944Y-121507833D01*
X119507525Y-121661807D01*
X119527666Y-121769129D01*
X119532400Y-121799933D01*
X119484480Y-121806262D01*
X119352236Y-121811656D01*
X119152942Y-121815710D01*
X118903874Y-121818019D01*
X118745000Y-121818400D01*
X117957600Y-121818400D01*
X117957600Y-122174000D01*
X119938800Y-122174000D01*
X119938800Y-122056329D01*
X119927882Y-121927391D01*
X119897843Y-121724680D01*
X119852755Y-121473342D01*
X119809737Y-121259600D01*
X119791884Y-121165155D01*
X119761083Y-120992251D01*
X119721140Y-120762637D01*
X119675861Y-120498062D01*
X119658575Y-120396000D01*
X119602629Y-120065975D01*
X119560263Y-119820231D01*
X119528445Y-119642817D01*
X119504140Y-119517781D01*
X119484316Y-119429171D01*
X119465937Y-119361035D01*
X119454912Y-119325141D01*
X119438390Y-119291127D01*
X119404301Y-119266077D01*
X119338781Y-119248628D01*
X119227963Y-119237419D01*
X119057979Y-119231086D01*
X118814963Y-119228267D01*
X118485048Y-119227601D01*
X118462177Y-119227600D01*
X117500400Y-119227600D01*
X117500400Y-119580683D01*
G36*
X121157834Y-119237967D02*
G01*
X120883004Y-119249398D01*
X120687663Y-119263158D01*
X120549716Y-119283320D01*
X120447068Y-119313957D01*
X120357622Y-119359145D01*
X120299017Y-119396315D01*
X120118534Y-119573002D01*
X120019710Y-119804723D01*
X120007143Y-120080302D01*
X120009509Y-120100150D01*
X120089298Y-120417521D01*
X120240626Y-120671010D01*
X120467116Y-120863357D01*
X120772389Y-120997304D01*
X121160068Y-121075591D01*
X121318552Y-121090539D01*
X121543380Y-121109236D01*
X121687509Y-121135742D01*
X121771680Y-121183621D01*
X121816632Y-121266436D01*
X121843103Y-121397750D01*
X121848925Y-121437400D01*
X121865782Y-121540160D01*
X121894651Y-121703683D01*
X121922617Y-121856500D01*
X121956850Y-122028521D01*
X121989532Y-122123486D01*
X122037347Y-122164287D01*
X122116982Y-122173816D01*
X122154028Y-122174000D01*
X122271137Y-122164574D01*
X122317582Y-122119663D01*
X122324188Y-122034300D01*
X122311798Y-121896144D01*
X122283537Y-121720857D01*
X122272345Y-121666000D01*
X122246272Y-121533780D01*
X122208419Y-121326092D01*
X122163181Y-121067769D01*
X122114955Y-120783647D01*
X122103306Y-120713500D01*
X121716638Y-120713500D01*
X121670859Y-120736513D01*
X121551532Y-120748457D01*
X121386044Y-120749893D01*
X121201778Y-120741386D01*
X121026120Y-120723497D01*
X120886453Y-120696790D01*
X120885067Y-120696407D01*
X120653485Y-120583519D01*
X120488176Y-120395422D01*
X120408925Y-120198094D01*
X120387200Y-119968215D01*
X120450616Y-119791645D01*
X120597531Y-119671583D01*
X120698685Y-119634569D01*
X120877601Y-119602014D01*
X121075995Y-119589653D01*
X121267388Y-119595908D01*
X121425299Y-119619203D01*
X121523248Y-119657959D01*
X121541892Y-119684800D01*
X121555851Y-119766726D01*
X121582852Y-119921335D01*
X121618107Y-120121287D01*
X121635287Y-120218200D01*
X121671102Y-120423720D01*
X121698884Y-120590437D01*
X121714583Y-120693695D01*
X121716638Y-120713500D01*
X122103306Y-120713500D01*
X122096978Y-120675400D01*
X122049050Y-120390776D01*
X122002602Y-120125330D01*
X121961943Y-119902979D01*
X121931383Y-119747641D01*
X121923087Y-119710200D01*
X121883207Y-119537855D01*
X121848108Y-119379780D01*
X121844031Y-119360652D01*
X121813128Y-119214305D01*
X121157834Y-119237967D01*
G37*
X121157834Y-119237967D02*
X120883004Y-119249398D01*
X120687663Y-119263158D01*
X120549716Y-119283320D01*
X120447068Y-119313957D01*
X120357622Y-119359145D01*
X120299017Y-119396315D01*
X120118534Y-119573002D01*
X120019710Y-119804723D01*
X120007143Y-120080302D01*
X120009509Y-120100150D01*
X120089298Y-120417521D01*
X120240626Y-120671010D01*
X120467116Y-120863357D01*
X120772389Y-120997304D01*
X121160068Y-121075591D01*
X121318552Y-121090539D01*
X121543380Y-121109236D01*
X121687509Y-121135742D01*
X121771680Y-121183621D01*
X121816632Y-121266436D01*
X121843103Y-121397750D01*
X121848925Y-121437400D01*
X121865782Y-121540160D01*
X121894651Y-121703683D01*
X121922617Y-121856500D01*
X121956850Y-122028521D01*
X121989532Y-122123486D01*
X122037347Y-122164287D01*
X122116982Y-122173816D01*
X122154028Y-122174000D01*
X122271137Y-122164574D01*
X122317582Y-122119663D01*
X122324188Y-122034300D01*
X122311798Y-121896144D01*
X122283537Y-121720857D01*
X122272345Y-121666000D01*
X122246272Y-121533780D01*
X122208419Y-121326092D01*
X122163181Y-121067769D01*
X122114955Y-120783647D01*
X122103306Y-120713500D01*
X121716638Y-120713500D01*
X121670859Y-120736513D01*
X121551532Y-120748457D01*
X121386044Y-120749893D01*
X121201778Y-120741386D01*
X121026120Y-120723497D01*
X120886453Y-120696790D01*
X120885067Y-120696407D01*
X120653485Y-120583519D01*
X120488176Y-120395422D01*
X120408925Y-120198094D01*
X120387200Y-119968215D01*
X120450616Y-119791645D01*
X120597531Y-119671583D01*
X120698685Y-119634569D01*
X120877601Y-119602014D01*
X121075995Y-119589653D01*
X121267388Y-119595908D01*
X121425299Y-119619203D01*
X121523248Y-119657959D01*
X121541892Y-119684800D01*
X121555851Y-119766726D01*
X121582852Y-119921335D01*
X121618107Y-120121287D01*
X121635287Y-120218200D01*
X121671102Y-120423720D01*
X121698884Y-120590437D01*
X121714583Y-120693695D01*
X121716638Y-120713500D01*
X122103306Y-120713500D01*
X122096978Y-120675400D01*
X122049050Y-120390776D01*
X122002602Y-120125330D01*
X121961943Y-119902979D01*
X121931383Y-119747641D01*
X121923087Y-119710200D01*
X121883207Y-119537855D01*
X121848108Y-119379780D01*
X121844031Y-119360652D01*
X121813128Y-119214305D01*
X121157834Y-119237967D01*
G36*
X100921292Y-119226127D02*
G01*
X100619951Y-119329593D01*
X100360740Y-119498023D01*
X100168227Y-119714162D01*
X100128558Y-119782954D01*
X100067359Y-119915340D01*
X100066552Y-119989240D01*
X100140004Y-120030024D01*
X100279510Y-120059105D01*
X100403542Y-120071540D01*
X100472633Y-120035073D01*
X100525719Y-119937305D01*
X100646739Y-119781216D01*
X100840615Y-119663902D01*
X101084396Y-119590325D01*
X101355130Y-119565446D01*
X101629863Y-119594227D01*
X101828600Y-119655621D01*
X102019838Y-119764914D01*
X102219411Y-119925027D01*
X102391371Y-120103878D01*
X102487390Y-120243600D01*
X102590208Y-120514011D01*
X102637148Y-120804930D01*
X102629468Y-121090681D01*
X102568428Y-121345586D01*
X102455288Y-121543966D01*
X102421882Y-121579037D01*
X102158951Y-121761836D01*
X101859870Y-121850828D01*
X101529073Y-121845343D01*
X101212915Y-121760960D01*
X100924627Y-121619188D01*
X100712258Y-121441903D01*
X100586073Y-121238797D01*
X100560761Y-121145300D01*
X100528597Y-120954800D01*
X100968134Y-120954800D01*
X101180543Y-120952527D01*
X101308734Y-120943438D01*
X101370029Y-120924128D01*
X101381753Y-120891189D01*
X101376836Y-120874445D01*
X101348899Y-120760008D01*
X101346000Y-120722045D01*
X101327667Y-120690676D01*
X101262782Y-120669554D01*
X101136521Y-120656928D01*
X100934057Y-120651044D01*
X100736400Y-120650000D01*
X100501073Y-120653419D01*
X100307949Y-120662736D01*
X100176659Y-120676539D01*
X100126833Y-120693414D01*
X100126800Y-120693866D01*
X100136256Y-120764820D01*
X100160568Y-120900440D01*
X100182380Y-121011366D01*
X100211651Y-121156075D01*
X100234484Y-121271913D01*
X100256434Y-121388647D01*
X100283053Y-121536048D01*
X100319895Y-121743886D01*
X100335293Y-121831100D01*
X100395820Y-122174000D01*
X100566110Y-122174000D01*
X100684466Y-122159329D01*
X100732558Y-122103397D01*
X100717601Y-121988326D01*
X100682319Y-121885969D01*
X100628238Y-121743724D01*
X100751415Y-121859443D01*
X100948474Y-121992271D01*
X101212519Y-122098895D01*
X101510630Y-122171589D01*
X101809886Y-122202624D01*
X102077366Y-122184273D01*
X102108000Y-122177877D01*
X102269880Y-122133873D01*
X102411532Y-122084702D01*
X102412800Y-122084174D01*
X102569252Y-121983121D01*
X102733775Y-121821560D01*
X102876820Y-121633359D01*
X102968839Y-121452389D01*
X102971797Y-121443430D01*
X103012430Y-121216131D01*
X103017060Y-120935504D01*
X102988862Y-120641964D01*
X102931015Y-120375922D01*
X102876551Y-120231731D01*
X102655623Y-119882166D01*
X102369410Y-119595648D01*
X102033105Y-119379990D01*
X101661901Y-119243006D01*
X101270992Y-119192511D01*
X100921292Y-119226127D01*
G37*
X100921292Y-119226127D02*
X100619951Y-119329593D01*
X100360740Y-119498023D01*
X100168227Y-119714162D01*
X100128558Y-119782954D01*
X100067359Y-119915340D01*
X100066552Y-119989240D01*
X100140004Y-120030024D01*
X100279510Y-120059105D01*
X100403542Y-120071540D01*
X100472633Y-120035073D01*
X100525719Y-119937305D01*
X100646739Y-119781216D01*
X100840615Y-119663902D01*
X101084396Y-119590325D01*
X101355130Y-119565446D01*
X101629863Y-119594227D01*
X101828600Y-119655621D01*
X102019838Y-119764914D01*
X102219411Y-119925027D01*
X102391371Y-120103878D01*
X102487390Y-120243600D01*
X102590208Y-120514011D01*
X102637148Y-120804930D01*
X102629468Y-121090681D01*
X102568428Y-121345586D01*
X102455288Y-121543966D01*
X102421882Y-121579037D01*
X102158951Y-121761836D01*
X101859870Y-121850828D01*
X101529073Y-121845343D01*
X101212915Y-121760960D01*
X100924627Y-121619188D01*
X100712258Y-121441903D01*
X100586073Y-121238797D01*
X100560761Y-121145300D01*
X100528597Y-120954800D01*
X100968134Y-120954800D01*
X101180543Y-120952527D01*
X101308734Y-120943438D01*
X101370029Y-120924128D01*
X101381753Y-120891189D01*
X101376836Y-120874445D01*
X101348899Y-120760008D01*
X101346000Y-120722045D01*
X101327667Y-120690676D01*
X101262782Y-120669554D01*
X101136521Y-120656928D01*
X100934057Y-120651044D01*
X100736400Y-120650000D01*
X100501073Y-120653419D01*
X100307949Y-120662736D01*
X100176659Y-120676539D01*
X100126833Y-120693414D01*
X100126800Y-120693866D01*
X100136256Y-120764820D01*
X100160568Y-120900440D01*
X100182380Y-121011366D01*
X100211651Y-121156075D01*
X100234484Y-121271913D01*
X100256434Y-121388647D01*
X100283053Y-121536048D01*
X100319895Y-121743886D01*
X100335293Y-121831100D01*
X100395820Y-122174000D01*
X100566110Y-122174000D01*
X100684466Y-122159329D01*
X100732558Y-122103397D01*
X100717601Y-121988326D01*
X100682319Y-121885969D01*
X100628238Y-121743724D01*
X100751415Y-121859443D01*
X100948474Y-121992271D01*
X101212519Y-122098895D01*
X101510630Y-122171589D01*
X101809886Y-122202624D01*
X102077366Y-122184273D01*
X102108000Y-122177877D01*
X102269880Y-122133873D01*
X102411532Y-122084702D01*
X102412800Y-122084174D01*
X102569252Y-121983121D01*
X102733775Y-121821560D01*
X102876820Y-121633359D01*
X102968839Y-121452389D01*
X102971797Y-121443430D01*
X103012430Y-121216131D01*
X103017060Y-120935504D01*
X102988862Y-120641964D01*
X102931015Y-120375922D01*
X102876551Y-120231731D01*
X102655623Y-119882166D01*
X102369410Y-119595648D01*
X102033105Y-119379990D01*
X101661901Y-119243006D01*
X101270992Y-119192511D01*
X100921292Y-119226127D01*
G36*
X124426396Y-119236598D02*
G01*
X124361519Y-119258848D01*
X124358413Y-119265700D01*
X124366985Y-119334537D01*
X124390034Y-119480526D01*
X124423584Y-119680908D01*
X124463654Y-119912924D01*
X124506267Y-120153817D01*
X124547444Y-120380827D01*
X124583207Y-120571197D01*
X124609281Y-120700800D01*
X124649144Y-120959585D01*
X124659870Y-121211720D01*
X124642257Y-121428764D01*
X124597104Y-121582279D01*
X124583917Y-121604186D01*
X124418984Y-121756662D01*
X124198161Y-121845098D01*
X123947942Y-121864915D01*
X123694818Y-121811536D01*
X123607077Y-121773005D01*
X123455467Y-121682800D01*
X123333625Y-121574781D01*
X123234845Y-121434502D01*
X123152427Y-121247514D01*
X123079667Y-120999370D01*
X123009861Y-120675621D01*
X122953747Y-120364790D01*
X122905839Y-120082493D01*
X122862212Y-119820288D01*
X122826738Y-119601805D01*
X122803285Y-119450671D01*
X122798269Y-119415367D01*
X122775142Y-119290328D01*
X122729957Y-119239056D01*
X122630344Y-119234243D01*
X122587504Y-119237567D01*
X122486847Y-119249026D01*
X122432547Y-119277453D01*
X122416166Y-119345629D01*
X122429265Y-119476339D01*
X122450067Y-119608600D01*
X122470327Y-119727994D01*
X122502885Y-119912404D01*
X122543848Y-120140545D01*
X122589323Y-120391137D01*
X122635419Y-120642897D01*
X122678243Y-120874544D01*
X122713902Y-121064795D01*
X122738504Y-121192368D01*
X122747382Y-121234200D01*
X122865242Y-121515931D01*
X123048491Y-121776238D01*
X123273380Y-121986668D01*
X123471584Y-122101785D01*
X123708736Y-122167338D01*
X123994619Y-122197236D01*
X124281956Y-122189072D01*
X124482286Y-122153194D01*
X124738340Y-122036470D01*
X124920737Y-121850785D01*
X125028541Y-121598131D01*
X125060814Y-121280500D01*
X125032152Y-120984117D01*
X125004350Y-120817642D01*
X124964737Y-120580182D01*
X124918188Y-120300973D01*
X124869579Y-120009253D01*
X124859967Y-119951548D01*
X124739400Y-119227697D01*
X124548900Y-119227648D01*
X124426396Y-119236598D01*
G37*
X124426396Y-119236598D02*
X124361519Y-119258848D01*
X124358413Y-119265700D01*
X124366985Y-119334537D01*
X124390034Y-119480526D01*
X124423584Y-119680908D01*
X124463654Y-119912924D01*
X124506267Y-120153817D01*
X124547444Y-120380827D01*
X124583207Y-120571197D01*
X124609281Y-120700800D01*
X124649144Y-120959585D01*
X124659870Y-121211720D01*
X124642257Y-121428764D01*
X124597104Y-121582279D01*
X124583917Y-121604186D01*
X124418984Y-121756662D01*
X124198161Y-121845098D01*
X123947942Y-121864915D01*
X123694818Y-121811536D01*
X123607077Y-121773005D01*
X123455467Y-121682800D01*
X123333625Y-121574781D01*
X123234845Y-121434502D01*
X123152427Y-121247514D01*
X123079667Y-120999370D01*
X123009861Y-120675621D01*
X122953747Y-120364790D01*
X122905839Y-120082493D01*
X122862212Y-119820288D01*
X122826738Y-119601805D01*
X122803285Y-119450671D01*
X122798269Y-119415367D01*
X122775142Y-119290328D01*
X122729957Y-119239056D01*
X122630344Y-119234243D01*
X122587504Y-119237567D01*
X122486847Y-119249026D01*
X122432547Y-119277453D01*
X122416166Y-119345629D01*
X122429265Y-119476339D01*
X122450067Y-119608600D01*
X122470327Y-119727994D01*
X122502885Y-119912404D01*
X122543848Y-120140545D01*
X122589323Y-120391137D01*
X122635419Y-120642897D01*
X122678243Y-120874544D01*
X122713902Y-121064795D01*
X122738504Y-121192368D01*
X122747382Y-121234200D01*
X122865242Y-121515931D01*
X123048491Y-121776238D01*
X123273380Y-121986668D01*
X123471584Y-122101785D01*
X123708736Y-122167338D01*
X123994619Y-122197236D01*
X124281956Y-122189072D01*
X124482286Y-122153194D01*
X124738340Y-122036470D01*
X124920737Y-121850785D01*
X125028541Y-121598131D01*
X125060814Y-121280500D01*
X125032152Y-120984117D01*
X125004350Y-120817642D01*
X124964737Y-120580182D01*
X124918188Y-120300973D01*
X124869579Y-120009253D01*
X124859967Y-119951548D01*
X124739400Y-119227697D01*
X124548900Y-119227648D01*
X124426396Y-119236598D01*
G36*
X125985110Y-119211829D02*
G01*
X125844039Y-119227177D01*
X125700415Y-119277067D01*
X125561576Y-119376331D01*
X125439620Y-119506219D01*
X125346647Y-119647983D01*
X125294753Y-119782871D01*
X125296036Y-119892134D01*
X125362594Y-119957024D01*
X125371330Y-119959802D01*
X125511490Y-119999653D01*
X125577600Y-120018423D01*
X125654655Y-120020505D01*
X125678706Y-119949468D01*
X125679200Y-119925678D01*
X125725376Y-119768976D01*
X125852716Y-119647256D01*
X126044437Y-119568497D01*
X126283756Y-119540678D01*
X126460450Y-119554222D01*
X126693316Y-119627826D01*
X126856925Y-119762373D01*
X126940527Y-119947190D01*
X126949200Y-120039453D01*
X126929732Y-120188092D01*
X126860980Y-120298006D01*
X126727426Y-120381840D01*
X126513550Y-120452238D01*
X126412002Y-120477169D01*
X126225529Y-120521827D01*
X126072271Y-120561129D01*
X125984857Y-120586700D01*
X125984000Y-120587015D01*
X125898092Y-120608926D01*
X125875502Y-120609198D01*
X125823466Y-120637965D01*
X125727051Y-120718072D01*
X125665243Y-120775900D01*
X125558360Y-120891471D01*
X125505805Y-120996617D01*
X125489173Y-121137416D01*
X125488473Y-121218466D01*
X125530139Y-121539143D01*
X125651745Y-121797300D01*
X125852856Y-121992568D01*
X126133040Y-122124582D01*
X126491863Y-122192971D01*
X126646783Y-122202144D01*
X126883727Y-122200906D01*
X127060354Y-122176655D01*
X127216579Y-122123013D01*
X127256138Y-122104737D01*
X127425647Y-121990936D01*
X127565801Y-121838395D01*
X127658345Y-121673774D01*
X127685025Y-121523733D01*
X127678278Y-121488200D01*
X127651518Y-121405756D01*
X127615099Y-121366381D01*
X127533136Y-121343304D01*
X127466196Y-121329979D01*
X127352046Y-121318016D01*
X127308167Y-121349954D01*
X127304800Y-121377859D01*
X127261860Y-121551818D01*
X127152715Y-121712528D01*
X127043433Y-121796809D01*
X126913714Y-121837411D01*
X126731697Y-121863591D01*
X126608823Y-121869010D01*
X126317319Y-121834907D01*
X126097521Y-121731253D01*
X125944665Y-121555391D01*
X125906584Y-121477453D01*
X125859281Y-121284511D01*
X125897485Y-121128029D01*
X126024926Y-121003850D01*
X126245334Y-120907816D01*
X126466600Y-120853187D01*
X126823184Y-120758296D01*
X127085672Y-120630572D01*
X127257409Y-120465953D01*
X127341741Y-120260380D01*
X127342014Y-120009791D01*
X127303527Y-119837200D01*
X127182804Y-119592468D01*
X126983197Y-119404471D01*
X126712111Y-119276302D01*
X126376947Y-119211057D01*
X125985110Y-119211829D01*
G37*
X125985110Y-119211829D02*
X125844039Y-119227177D01*
X125700415Y-119277067D01*
X125561576Y-119376331D01*
X125439620Y-119506219D01*
X125346647Y-119647983D01*
X125294753Y-119782871D01*
X125296036Y-119892134D01*
X125362594Y-119957024D01*
X125371330Y-119959802D01*
X125511490Y-119999653D01*
X125577600Y-120018423D01*
X125654655Y-120020505D01*
X125678706Y-119949468D01*
X125679200Y-119925678D01*
X125725376Y-119768976D01*
X125852716Y-119647256D01*
X126044437Y-119568497D01*
X126283756Y-119540678D01*
X126460450Y-119554222D01*
X126693316Y-119627826D01*
X126856925Y-119762373D01*
X126940527Y-119947190D01*
X126949200Y-120039453D01*
X126929732Y-120188092D01*
X126860980Y-120298006D01*
X126727426Y-120381840D01*
X126513550Y-120452238D01*
X126412002Y-120477169D01*
X126225529Y-120521827D01*
X126072271Y-120561129D01*
X125984857Y-120586700D01*
X125984000Y-120587015D01*
X125898092Y-120608926D01*
X125875502Y-120609198D01*
X125823466Y-120637965D01*
X125727051Y-120718072D01*
X125665243Y-120775900D01*
X125558360Y-120891471D01*
X125505805Y-120996617D01*
X125489173Y-121137416D01*
X125488473Y-121218466D01*
X125530139Y-121539143D01*
X125651745Y-121797300D01*
X125852856Y-121992568D01*
X126133040Y-122124582D01*
X126491863Y-122192971D01*
X126646783Y-122202144D01*
X126883727Y-122200906D01*
X127060354Y-122176655D01*
X127216579Y-122123013D01*
X127256138Y-122104737D01*
X127425647Y-121990936D01*
X127565801Y-121838395D01*
X127658345Y-121673774D01*
X127685025Y-121523733D01*
X127678278Y-121488200D01*
X127651518Y-121405756D01*
X127615099Y-121366381D01*
X127533136Y-121343304D01*
X127466196Y-121329979D01*
X127352046Y-121318016D01*
X127308167Y-121349954D01*
X127304800Y-121377859D01*
X127261860Y-121551818D01*
X127152715Y-121712528D01*
X127043433Y-121796809D01*
X126913714Y-121837411D01*
X126731697Y-121863591D01*
X126608823Y-121869010D01*
X126317319Y-121834907D01*
X126097521Y-121731253D01*
X125944665Y-121555391D01*
X125906584Y-121477453D01*
X125859281Y-121284511D01*
X125897485Y-121128029D01*
X126024926Y-121003850D01*
X126245334Y-120907816D01*
X126466600Y-120853187D01*
X126823184Y-120758296D01*
X127085672Y-120630572D01*
X127257409Y-120465953D01*
X127341741Y-120260380D01*
X127342014Y-120009791D01*
X127303527Y-119837200D01*
X127182804Y-119592468D01*
X126983197Y-119404471D01*
X126712111Y-119276302D01*
X126376947Y-119211057D01*
X125985110Y-119211829D01*
G36*
X126345669Y-113489184D02*
G01*
X126080987Y-113502771D01*
X125727541Y-113527404D01*
X125282477Y-113563267D01*
X124742942Y-113610540D01*
X124106084Y-113669409D01*
X123926600Y-113686408D01*
X123702375Y-113707187D01*
X123406264Y-113733832D01*
X123067627Y-113763743D01*
X122715826Y-113794319D01*
X122478800Y-113814613D01*
X122148080Y-113843855D01*
X121822453Y-113874667D01*
X121527401Y-113904494D01*
X121288405Y-113930780D01*
X121158000Y-113947083D01*
X120997777Y-113967231D01*
X120756237Y-113995053D01*
X120453188Y-114028392D01*
X120108435Y-114065090D01*
X119741787Y-114102991D01*
X119532400Y-114124125D01*
X119094993Y-114168900D01*
X118594177Y-114221871D01*
X118067397Y-114278970D01*
X117552102Y-114336127D01*
X117085738Y-114389273D01*
X116992400Y-114400142D01*
X116533011Y-114454549D01*
X116039159Y-114514214D01*
X115521344Y-114577778D01*
X114990067Y-114643879D01*
X114455829Y-114711158D01*
X113929129Y-114778254D01*
X113420467Y-114843806D01*
X112940344Y-114906455D01*
X112499261Y-114964839D01*
X112107717Y-115017597D01*
X111776212Y-115063371D01*
X111515248Y-115100799D01*
X111335324Y-115128520D01*
X111252000Y-115143892D01*
X111163466Y-115160465D01*
X110992230Y-115188647D01*
X110756164Y-115225644D01*
X110473140Y-115268658D01*
X110161030Y-115314893D01*
X110134400Y-115318784D01*
X109049612Y-115484026D01*
X107938834Y-115666302D01*
X106821641Y-115861917D01*
X105717609Y-116067179D01*
X104646313Y-116278392D01*
X103627329Y-116491864D01*
X102680231Y-116703900D01*
X102235000Y-116809376D01*
X101872874Y-116898307D01*
X101518370Y-116987815D01*
X101186960Y-117073773D01*
X100894116Y-117152052D01*
X100655307Y-117218525D01*
X100486006Y-117269063D01*
X100406200Y-117297351D01*
X100294600Y-117338196D01*
X100136047Y-117385206D01*
X100076000Y-117400870D01*
X99729623Y-117498388D01*
X99319045Y-117631690D01*
X98870789Y-117790821D01*
X98411375Y-117965824D01*
X97967324Y-118146744D01*
X97565158Y-118323624D01*
X97366200Y-118418147D01*
X96912069Y-118656707D01*
X96546517Y-118884968D01*
X96258513Y-119112652D01*
X96037028Y-119349483D01*
X95871034Y-119605184D01*
X95773720Y-119822036D01*
X95684131Y-120138963D01*
X95668170Y-120442801D01*
X95726263Y-120765806D01*
X95788643Y-120959752D01*
X95926915Y-121284565D01*
X96104236Y-121588879D01*
X96331774Y-121886037D01*
X96620693Y-122189386D01*
X96982160Y-122512270D01*
X97307997Y-122775601D01*
X97388902Y-122832657D01*
X97516350Y-122916386D01*
X97664183Y-123010387D01*
X97806247Y-123098254D01*
X97916385Y-123163587D01*
X97968441Y-123189980D01*
X97968787Y-123190000D01*
X97992855Y-123151266D01*
X97993200Y-123143468D01*
X97956271Y-123088552D01*
X97861372Y-122997214D01*
X97777300Y-122927568D01*
X97533428Y-122731186D01*
X97337453Y-122559322D01*
X97153304Y-122379304D01*
X97033847Y-122254172D01*
X96899897Y-122111549D01*
X96783338Y-121987841D01*
X96716089Y-121916861D01*
X96596641Y-121762489D01*
X96462515Y-121544081D01*
X96330708Y-121294139D01*
X96218218Y-121045163D01*
X96142039Y-120829656D01*
X96136283Y-120808130D01*
X96083560Y-120425363D01*
X96127171Y-120063827D01*
X96267869Y-119722376D01*
X96506410Y-119399866D01*
X96843548Y-119095150D01*
X97280036Y-118807083D01*
X97549369Y-118662051D01*
X97909892Y-118495957D01*
X98314590Y-118335473D01*
X98721004Y-118196206D01*
X99086675Y-118093763D01*
X99110800Y-118088109D01*
X99313686Y-118039089D01*
X99492607Y-117991948D01*
X99611689Y-117956183D01*
X99618800Y-117953643D01*
X99724680Y-117924069D01*
X99921271Y-117878766D01*
X100199232Y-117819667D01*
X100549222Y-117748705D01*
X100961899Y-117667813D01*
X101427922Y-117578924D01*
X101447600Y-117575218D01*
X101662909Y-117537445D01*
X101937588Y-117493165D01*
X102230252Y-117448907D01*
X102412800Y-117422931D01*
X102698611Y-117383519D01*
X102997650Y-117342295D01*
X103266780Y-117305205D01*
X103403400Y-117286384D01*
X103550674Y-117273604D01*
X103794698Y-117262119D01*
X104130628Y-117252014D01*
X104553622Y-117243371D01*
X105058835Y-117236275D01*
X105641426Y-117230809D01*
X106296551Y-117227058D01*
X106934000Y-117225234D01*
X107604268Y-117224032D01*
X108182235Y-117222368D01*
X108677201Y-117219579D01*
X109098465Y-117215002D01*
X109455326Y-117207976D01*
X109757084Y-117197837D01*
X110013038Y-117183923D01*
X110232488Y-117165571D01*
X110424732Y-117142120D01*
X110599070Y-117112905D01*
X110764801Y-117077265D01*
X110931225Y-117034537D01*
X111107641Y-116984058D01*
X111303347Y-116925167D01*
X111351687Y-116910477D01*
X111640460Y-116823916D01*
X111950451Y-116732941D01*
X112237389Y-116650459D01*
X112395000Y-116606292D01*
X112608473Y-116545488D01*
X112793546Y-116489254D01*
X112921822Y-116446367D01*
X112953800Y-116433599D01*
X113046609Y-116399643D01*
X113209166Y-116348155D01*
X113413098Y-116287955D01*
X113512600Y-116259874D01*
X113773814Y-116186228D01*
X114080544Y-116098200D01*
X114381023Y-116010692D01*
X114490500Y-115978391D01*
X114785941Y-115890797D01*
X115120643Y-115791572D01*
X115436462Y-115697953D01*
X115531900Y-115669665D01*
X116196463Y-115473921D01*
X116774009Y-115306596D01*
X117274261Y-115165054D01*
X117706942Y-115046661D01*
X118081774Y-114948783D01*
X118408478Y-114868783D01*
X118696777Y-114804029D01*
X118821200Y-114778227D01*
X119078817Y-114725636D01*
X119323819Y-114674448D01*
X119525135Y-114631219D01*
X119634000Y-114606737D01*
X119775657Y-114577719D01*
X120004949Y-114536013D01*
X120308987Y-114483665D01*
X120674879Y-114422724D01*
X121089737Y-114355237D01*
X121540669Y-114283250D01*
X122014785Y-114208810D01*
X122499196Y-114133966D01*
X122981011Y-114060764D01*
X123447339Y-113991252D01*
X123885291Y-113927476D01*
X124129800Y-113892714D01*
X124425103Y-113850943D01*
X124719783Y-113808841D01*
X124981774Y-113771014D01*
X125179010Y-113742069D01*
X125196600Y-113739442D01*
X125408439Y-113708275D01*
X125676621Y-113669604D01*
X125956844Y-113629796D01*
X126081095Y-113612366D01*
X126301611Y-113579607D01*
X126482256Y-113549043D01*
X126600846Y-113524655D01*
X126635662Y-113512872D01*
X126620153Y-113494417D01*
X126524440Y-113486460D01*
X126345669Y-113489184D01*
G37*
X126345669Y-113489184D02*
X126080987Y-113502771D01*
X125727541Y-113527404D01*
X125282477Y-113563267D01*
X124742942Y-113610540D01*
X124106084Y-113669409D01*
X123926600Y-113686408D01*
X123702375Y-113707187D01*
X123406264Y-113733832D01*
X123067627Y-113763743D01*
X122715826Y-113794319D01*
X122478800Y-113814613D01*
X122148080Y-113843855D01*
X121822453Y-113874667D01*
X121527401Y-113904494D01*
X121288405Y-113930780D01*
X121158000Y-113947083D01*
X120997777Y-113967231D01*
X120756237Y-113995053D01*
X120453188Y-114028392D01*
X120108435Y-114065090D01*
X119741787Y-114102991D01*
X119532400Y-114124125D01*
X119094993Y-114168900D01*
X118594177Y-114221871D01*
X118067397Y-114278970D01*
X117552102Y-114336127D01*
X117085738Y-114389273D01*
X116992400Y-114400142D01*
X116533011Y-114454549D01*
X116039159Y-114514214D01*
X115521344Y-114577778D01*
X114990067Y-114643879D01*
X114455829Y-114711158D01*
X113929129Y-114778254D01*
X113420467Y-114843806D01*
X112940344Y-114906455D01*
X112499261Y-114964839D01*
X112107717Y-115017597D01*
X111776212Y-115063371D01*
X111515248Y-115100799D01*
X111335324Y-115128520D01*
X111252000Y-115143892D01*
X111163466Y-115160465D01*
X110992230Y-115188647D01*
X110756164Y-115225644D01*
X110473140Y-115268658D01*
X110161030Y-115314893D01*
X110134400Y-115318784D01*
X109049612Y-115484026D01*
X107938834Y-115666302D01*
X106821641Y-115861917D01*
X105717609Y-116067179D01*
X104646313Y-116278392D01*
X103627329Y-116491864D01*
X102680231Y-116703900D01*
X102235000Y-116809376D01*
X101872874Y-116898307D01*
X101518370Y-116987815D01*
X101186960Y-117073773D01*
X100894116Y-117152052D01*
X100655307Y-117218525D01*
X100486006Y-117269063D01*
X100406200Y-117297351D01*
X100294600Y-117338196D01*
X100136047Y-117385206D01*
X100076000Y-117400870D01*
X99729623Y-117498388D01*
X99319045Y-117631690D01*
X98870789Y-117790821D01*
X98411375Y-117965824D01*
X97967324Y-118146744D01*
X97565158Y-118323624D01*
X97366200Y-118418147D01*
X96912069Y-118656707D01*
X96546517Y-118884968D01*
X96258513Y-119112652D01*
X96037028Y-119349483D01*
X95871034Y-119605184D01*
X95773720Y-119822036D01*
X95684131Y-120138963D01*
X95668170Y-120442801D01*
X95726263Y-120765806D01*
X95788643Y-120959752D01*
X95926915Y-121284565D01*
X96104236Y-121588879D01*
X96331774Y-121886037D01*
X96620693Y-122189386D01*
X96982160Y-122512270D01*
X97307997Y-122775601D01*
X97388902Y-122832657D01*
X97516350Y-122916386D01*
X97664183Y-123010387D01*
X97806247Y-123098254D01*
X97916385Y-123163587D01*
X97968441Y-123189980D01*
X97968787Y-123190000D01*
X97992855Y-123151266D01*
X97993200Y-123143468D01*
X97956271Y-123088552D01*
X97861372Y-122997214D01*
X97777300Y-122927568D01*
X97533428Y-122731186D01*
X97337453Y-122559322D01*
X97153304Y-122379304D01*
X97033847Y-122254172D01*
X96899897Y-122111549D01*
X96783338Y-121987841D01*
X96716089Y-121916861D01*
X96596641Y-121762489D01*
X96462515Y-121544081D01*
X96330708Y-121294139D01*
X96218218Y-121045163D01*
X96142039Y-120829656D01*
X96136283Y-120808130D01*
X96083560Y-120425363D01*
X96127171Y-120063827D01*
X96267869Y-119722376D01*
X96506410Y-119399866D01*
X96843548Y-119095150D01*
X97280036Y-118807083D01*
X97549369Y-118662051D01*
X97909892Y-118495957D01*
X98314590Y-118335473D01*
X98721004Y-118196206D01*
X99086675Y-118093763D01*
X99110800Y-118088109D01*
X99313686Y-118039089D01*
X99492607Y-117991948D01*
X99611689Y-117956183D01*
X99618800Y-117953643D01*
X99724680Y-117924069D01*
X99921271Y-117878766D01*
X100199232Y-117819667D01*
X100549222Y-117748705D01*
X100961899Y-117667813D01*
X101427922Y-117578924D01*
X101447600Y-117575218D01*
X101662909Y-117537445D01*
X101937588Y-117493165D01*
X102230252Y-117448907D01*
X102412800Y-117422931D01*
X102698611Y-117383519D01*
X102997650Y-117342295D01*
X103266780Y-117305205D01*
X103403400Y-117286384D01*
X103550674Y-117273604D01*
X103794698Y-117262119D01*
X104130628Y-117252014D01*
X104553622Y-117243371D01*
X105058835Y-117236275D01*
X105641426Y-117230809D01*
X106296551Y-117227058D01*
X106934000Y-117225234D01*
X107604268Y-117224032D01*
X108182235Y-117222368D01*
X108677201Y-117219579D01*
X109098465Y-117215002D01*
X109455326Y-117207976D01*
X109757084Y-117197837D01*
X110013038Y-117183923D01*
X110232488Y-117165571D01*
X110424732Y-117142120D01*
X110599070Y-117112905D01*
X110764801Y-117077265D01*
X110931225Y-117034537D01*
X111107641Y-116984058D01*
X111303347Y-116925167D01*
X111351687Y-116910477D01*
X111640460Y-116823916D01*
X111950451Y-116732941D01*
X112237389Y-116650459D01*
X112395000Y-116606292D01*
X112608473Y-116545488D01*
X112793546Y-116489254D01*
X112921822Y-116446367D01*
X112953800Y-116433599D01*
X113046609Y-116399643D01*
X113209166Y-116348155D01*
X113413098Y-116287955D01*
X113512600Y-116259874D01*
X113773814Y-116186228D01*
X114080544Y-116098200D01*
X114381023Y-116010692D01*
X114490500Y-115978391D01*
X114785941Y-115890797D01*
X115120643Y-115791572D01*
X115436462Y-115697953D01*
X115531900Y-115669665D01*
X116196463Y-115473921D01*
X116774009Y-115306596D01*
X117274261Y-115165054D01*
X117706942Y-115046661D01*
X118081774Y-114948783D01*
X118408478Y-114868783D01*
X118696777Y-114804029D01*
X118821200Y-114778227D01*
X119078817Y-114725636D01*
X119323819Y-114674448D01*
X119525135Y-114631219D01*
X119634000Y-114606737D01*
X119775657Y-114577719D01*
X120004949Y-114536013D01*
X120308987Y-114483665D01*
X120674879Y-114422724D01*
X121089737Y-114355237D01*
X121540669Y-114283250D01*
X122014785Y-114208810D01*
X122499196Y-114133966D01*
X122981011Y-114060764D01*
X123447339Y-113991252D01*
X123885291Y-113927476D01*
X124129800Y-113892714D01*
X124425103Y-113850943D01*
X124719783Y-113808841D01*
X124981774Y-113771014D01*
X125179010Y-113742069D01*
X125196600Y-113739442D01*
X125408439Y-113708275D01*
X125676621Y-113669604D01*
X125956844Y-113629796D01*
X126081095Y-113612366D01*
X126301611Y-113579607D01*
X126482256Y-113549043D01*
X126600846Y-113524655D01*
X126635662Y-113512872D01*
X126620153Y-113494417D01*
X126524440Y-113486460D01*
X126345669Y-113489184D01*
%LPC*%
D12*
X130810000Y-109220000D03*
X115570000Y-109220000D03*
X130810000Y-73660000D03*
X115570000Y-106680000D03*
X130810000Y-76200000D03*
X115570000Y-104140000D03*
X130810000Y-78740000D03*
X115570000Y-101600000D03*
X130810000Y-81280000D03*
X115570000Y-99060000D03*
X130810000Y-83820000D03*
X115570000Y-96520000D03*
X130810000Y-86360000D03*
X115570000Y-93980000D03*
X130810000Y-88900000D03*
X115570000Y-91440000D03*
X130810000Y-91440000D03*
X115570000Y-88900000D03*
X130810000Y-93980000D03*
X115570000Y-86360000D03*
X130810000Y-96520000D03*
X115570000Y-83820000D03*
X130810000Y-99060000D03*
X115570000Y-81280000D03*
X130810000Y-101600000D03*
X115570000Y-78740000D03*
X130810000Y-104140000D03*
X115570000Y-76200000D03*
X130810000Y-106680000D03*
D13*
X115570000Y-73660000D03*
D14*
X105410000Y-67310000D03*
D15*
X71120000Y-113030000D03*
X151130000Y-128270000D03*
X151130000Y-66040000D03*
X71120000Y-66040000D03*
D14*
X91440000Y-67310000D03*
X135890000Y-124460000D03*
X111760000Y-66040000D03*
X142240000Y-111760000D03*
X95250000Y-116840000D03*
X146050000Y-111760000D03*
X95250000Y-124460000D03*
D16*
X72390000Y-73910000D03*
X72390000Y-77410000D03*
X72390000Y-80910000D03*
X72390000Y-84410000D03*
X72390000Y-87910000D03*
X72390000Y-91410000D03*
X72390000Y-94910000D03*
X72390000Y-98410000D03*
X72390000Y-101910000D03*
G36*
G01*
X73940000Y-106310000D02*
X70840000Y-106310000D01*
G75*
G02*
X70590000Y-106060000I0J250000D01*
G01*
X70590000Y-104760000D01*
G75*
G02*
X70840000Y-104510000I250000J0D01*
G01*
X73940000Y-104510000D01*
G75*
G02*
X74190000Y-104760000I0J-250000D01*
G01*
X74190000Y-106060000D01*
G75*
G02*
X73940000Y-106310000I-250000J0D01*
G01*
G37*
X83820000Y-73910000D03*
X83820000Y-77410000D03*
X83820000Y-80910000D03*
X83820000Y-84410000D03*
X83820000Y-87910000D03*
X83820000Y-91410000D03*
X83820000Y-94910000D03*
X83820000Y-98410000D03*
X83820000Y-101910000D03*
G36*
G01*
X85370000Y-106310000D02*
X82270000Y-106310000D01*
G75*
G02*
X82020000Y-106060000I0J250000D01*
G01*
X82020000Y-104760000D01*
G75*
G02*
X82270000Y-104510000I250000J0D01*
G01*
X85370000Y-104510000D01*
G75*
G02*
X85620000Y-104760000I0J-250000D01*
G01*
X85620000Y-106060000D01*
G75*
G02*
X85370000Y-106310000I-250000J0D01*
G01*
G37*
D17*
X147000000Y-119380000D03*
D18*
X134200000Y-119380000D03*
G36*
G01*
X138100001Y-118030000D02*
X141299999Y-118030000D01*
G75*
G02*
X141550000Y-118280001I0J-250001D01*
G01*
X141550000Y-120479999D01*
G75*
G02*
X141299999Y-120730000I-250001J0D01*
G01*
X138100001Y-120730000D01*
G75*
G02*
X137850000Y-120479999I0J250001D01*
G01*
X137850000Y-118280001D01*
G75*
G02*
X138100001Y-118030000I250001J0D01*
G01*
G37*
D19*
X137160000Y-73660000D03*
X137160000Y-76200000D03*
X137160000Y-78740000D03*
X137160000Y-81280000D03*
X137160000Y-83820000D03*
X137160000Y-86360000D03*
X137160000Y-88900000D03*
X137160000Y-91440000D03*
X137160000Y-93980000D03*
X137160000Y-96520000D03*
X137160000Y-99060000D03*
X137160000Y-101600000D03*
X137160000Y-104140000D03*
X137160000Y-106680000D03*
D14*
X137160000Y-109220000D03*
D17*
X75250000Y-120650000D03*
D18*
X88050000Y-120650000D03*
G36*
G01*
X84149999Y-122000000D02*
X80950001Y-122000000D01*
G75*
G02*
X80700000Y-121749999I0J250001D01*
G01*
X80700000Y-119550001D01*
G75*
G02*
X80950001Y-119300000I250001J0D01*
G01*
X84149999Y-119300000D01*
G75*
G02*
X84400000Y-119550001I0J-250001D01*
G01*
X84400000Y-121749999D01*
G75*
G02*
X84149999Y-122000000I-250001J0D01*
G01*
G37*
D17*
X75250000Y-128270000D03*
D18*
X88050000Y-128270000D03*
G36*
G01*
X84149999Y-129620000D02*
X80950001Y-129620000D01*
G75*
G02*
X80700000Y-129369999I0J250001D01*
G01*
X80700000Y-127170001D01*
G75*
G02*
X80950001Y-126920000I250001J0D01*
G01*
X84149999Y-126920000D01*
G75*
G02*
X84400000Y-127170001I0J-250001D01*
G01*
X84400000Y-129369999D01*
G75*
G02*
X84149999Y-129620000I-250001J0D01*
G01*
G37*
D19*
X109220000Y-109220000D03*
X109220000Y-106680000D03*
X109220000Y-104140000D03*
X109220000Y-101600000D03*
X109220000Y-99060000D03*
X109220000Y-96520000D03*
X109220000Y-93980000D03*
X109220000Y-91440000D03*
X109220000Y-88900000D03*
X109220000Y-86360000D03*
X109220000Y-83820000D03*
X109220000Y-81280000D03*
X109220000Y-78740000D03*
X109220000Y-76200000D03*
D14*
X109220000Y-73660000D03*
D17*
X143510000Y-70170000D03*
D20*
X143510000Y-82970000D03*
G36*
G01*
X142160000Y-79069999D02*
X142160000Y-75870001D01*
G75*
G02*
X142410001Y-75620000I250001J0D01*
G01*
X144609999Y-75620000D01*
G75*
G02*
X144860000Y-75870001I0J-250001D01*
G01*
X144860000Y-79069999D01*
G75*
G02*
X144609999Y-79320000I-250001J0D01*
G01*
X142410001Y-79320000D01*
G75*
G02*
X142160000Y-79069999I0J250001D01*
G01*
G37*
M02*
