G04 #@! TF.GenerationSoftware,KiCad,Pcbnew,(5.1.10)-1*
G04 #@! TF.CreationDate,2021-12-04T11:06:55-08:00*
G04 #@! TF.ProjectId,fuelCellControl,6675656c-4365-46c6-9c43-6f6e74726f6c,rev?*
G04 #@! TF.SameCoordinates,Original*
G04 #@! TF.FileFunction,Legend,Top*
G04 #@! TF.FilePolarity,Positive*
%FSLAX46Y46*%
G04 Gerber Fmt 4.6, Leading zero omitted, Abs format (unit mm)*
G04 Created by KiCad (PCBNEW (5.1.10)-1) date 2021-12-04 11:06:55*
%MOMM*%
%LPD*%
G01*
G04 APERTURE LIST*
%ADD10C,0.150000*%
%ADD11C,0.120000*%
%ADD12C,0.100000*%
%ADD13O,1.600000X1.600000*%
%ADD14R,1.600000X1.600000*%
%ADD15R,1.300000X0.900000*%
%ADD16R,1.700000X1.700000*%
%ADD17C,3.200000*%
%ADD18R,2.000000X0.600000*%
%ADD19O,3.600000X1.800000*%
%ADD20C,3.000000*%
%ADD21O,3.700000X2.700000*%
%ADD22O,1.700000X1.700000*%
%ADD23O,2.700000X3.700000*%
%ADD24R,1.700000X2.660000*%
G04 APERTURE END LIST*
D10*
X145490952Y-114692380D02*
X144919523Y-114692380D01*
X145205238Y-114692380D02*
X145205238Y-113692380D01*
X145110000Y-113835238D01*
X145014761Y-113930476D01*
X144919523Y-113978095D01*
X145871904Y-113787619D02*
X145919523Y-113740000D01*
X146014761Y-113692380D01*
X146252857Y-113692380D01*
X146348095Y-113740000D01*
X146395714Y-113787619D01*
X146443333Y-113882857D01*
X146443333Y-113978095D01*
X146395714Y-114120952D01*
X145824285Y-114692380D01*
X146443333Y-114692380D01*
X146729047Y-113692380D02*
X147062380Y-114692380D01*
X147395714Y-113692380D01*
X141478095Y-113800000D02*
X141382857Y-113752380D01*
X141240000Y-113752380D01*
X141097142Y-113800000D01*
X141001904Y-113895238D01*
X140954285Y-113990476D01*
X140906666Y-114180952D01*
X140906666Y-114323809D01*
X140954285Y-114514285D01*
X141001904Y-114609523D01*
X141097142Y-114704761D01*
X141240000Y-114752380D01*
X141335238Y-114752380D01*
X141478095Y-114704761D01*
X141525714Y-114657142D01*
X141525714Y-114323809D01*
X141335238Y-114323809D01*
X141954285Y-114752380D02*
X141954285Y-113752380D01*
X142525714Y-114752380D01*
X142525714Y-113752380D01*
X143001904Y-114752380D02*
X143001904Y-113752380D01*
X143240000Y-113752380D01*
X143382857Y-113800000D01*
X143478095Y-113895238D01*
X143525714Y-113990476D01*
X143573333Y-114180952D01*
X143573333Y-114323809D01*
X143525714Y-114514285D01*
X143478095Y-114609523D01*
X143382857Y-114704761D01*
X143240000Y-114752380D01*
X143001904Y-114752380D01*
D11*
X132210000Y-69720000D02*
X114170000Y-69720000D01*
X132210000Y-113160000D02*
X132210000Y-69720000D01*
X114170000Y-113160000D02*
X132210000Y-113160000D01*
X116840000Y-110490000D02*
X114170000Y-110490000D01*
X116840000Y-74930000D02*
X116840000Y-110490000D01*
X116840000Y-74930000D02*
X114170000Y-74930000D01*
X129540000Y-110490000D02*
X132210000Y-110490000D01*
X129540000Y-72390000D02*
X129540000Y-110490000D01*
X129540000Y-72390000D02*
X132210000Y-72390000D01*
X114170000Y-69720000D02*
X114170000Y-72390000D01*
X114170000Y-74930000D02*
X114170000Y-113160000D01*
X116840000Y-72390000D02*
X114170000Y-72390000D01*
X116840000Y-74930000D02*
X116840000Y-72390000D01*
X123580000Y-125510000D02*
X123580000Y-126820000D01*
X123580000Y-126820000D02*
X120860000Y-126820000D01*
X119720000Y-122330000D02*
X120860000Y-122330000D01*
X123580000Y-122100000D02*
X123580000Y-123410000D01*
X120860000Y-122100000D02*
X123580000Y-122100000D01*
X120860000Y-122100000D02*
X120860000Y-122330000D01*
X120860000Y-126820000D02*
X120860000Y-126590000D01*
X99940000Y-127220000D02*
X99940000Y-125910000D01*
X99940000Y-125910000D02*
X102660000Y-125910000D01*
X103800000Y-130400000D02*
X102660000Y-130400000D01*
X99940000Y-130630000D02*
X99940000Y-129320000D01*
X102660000Y-130630000D02*
X99940000Y-130630000D01*
X102660000Y-130630000D02*
X102660000Y-130400000D01*
X102660000Y-125910000D02*
X102660000Y-126140000D01*
X99940000Y-119600000D02*
X99940000Y-118290000D01*
X99940000Y-118290000D02*
X102660000Y-118290000D01*
X103800000Y-122780000D02*
X102660000Y-122780000D01*
X99940000Y-123010000D02*
X99940000Y-121700000D01*
X102660000Y-123010000D02*
X99940000Y-123010000D01*
X102660000Y-123010000D02*
X102660000Y-122780000D01*
X102660000Y-118290000D02*
X102660000Y-118520000D01*
X122952742Y-120127500D02*
X123427258Y-120127500D01*
X122952742Y-121172500D02*
X123427258Y-121172500D01*
X111522742Y-123937500D02*
X111997258Y-123937500D01*
X111522742Y-124982500D02*
X111997258Y-124982500D01*
X111522742Y-120127500D02*
X111997258Y-120127500D01*
X111522742Y-121172500D02*
X111997258Y-121172500D01*
X120180000Y-119915000D02*
X117895000Y-119915000D01*
X117895000Y-119915000D02*
X117895000Y-121385000D01*
X117895000Y-121385000D02*
X120180000Y-121385000D01*
X108750000Y-123725000D02*
X106465000Y-123725000D01*
X106465000Y-123725000D02*
X106465000Y-125195000D01*
X106465000Y-125195000D02*
X108750000Y-125195000D01*
X108750000Y-119915000D02*
X106465000Y-119915000D01*
X106465000Y-119915000D02*
X106465000Y-121385000D01*
X106465000Y-121385000D02*
X108750000Y-121385000D01*
X104080000Y-68640000D02*
X106740000Y-68640000D01*
X104080000Y-68520000D02*
X104080000Y-68640000D01*
X106740000Y-68520000D02*
X106740000Y-68640000D01*
X106740000Y-65980000D02*
X106740000Y-67310000D01*
X105410000Y-65980000D02*
X106740000Y-65980000D01*
X101362742Y-68057500D02*
X101837258Y-68057500D01*
X101362742Y-69102500D02*
X101837258Y-69102500D01*
X101837258Y-71642500D02*
X101362742Y-71642500D01*
X101837258Y-70597500D02*
X101362742Y-70597500D01*
X96282742Y-68057500D02*
X96757258Y-68057500D01*
X96282742Y-69102500D02*
X96757258Y-69102500D01*
X96282742Y-70597500D02*
X96757258Y-70597500D01*
X96282742Y-71642500D02*
X96757258Y-71642500D01*
X91580580Y-95760000D02*
X91299420Y-95760000D01*
X91580580Y-94740000D02*
X91299420Y-94740000D01*
X90930000Y-75070580D02*
X90930000Y-74789420D01*
X91950000Y-75070580D02*
X91950000Y-74789420D01*
X118870000Y-66180580D02*
X118870000Y-65899420D01*
X119890000Y-66180580D02*
X119890000Y-65899420D01*
X131570000Y-66180580D02*
X131570000Y-65899420D01*
X132590000Y-66180580D02*
X132590000Y-65899420D01*
X91440000Y-65980000D02*
X92770000Y-65980000D01*
X92770000Y-65980000D02*
X92770000Y-67310000D01*
X92770000Y-68520000D02*
X92770000Y-68640000D01*
X90110000Y-68520000D02*
X90110000Y-68640000D01*
X90110000Y-68640000D02*
X92770000Y-68640000D01*
X134560000Y-124460000D02*
X134560000Y-123130000D01*
X134560000Y-123130000D02*
X135890000Y-123130000D01*
X137100000Y-123130000D02*
X137220000Y-123130000D01*
X137100000Y-125790000D02*
X137220000Y-125790000D01*
X137220000Y-125790000D02*
X137220000Y-123130000D01*
X111760000Y-67370000D02*
X110430000Y-67370000D01*
X110430000Y-67370000D02*
X110430000Y-66040000D01*
X110430000Y-64830000D02*
X110430000Y-64710000D01*
X113090000Y-64830000D02*
X113090000Y-64710000D01*
X113090000Y-64710000D02*
X110430000Y-64710000D01*
X142240000Y-110430000D02*
X143570000Y-110430000D01*
X143570000Y-110430000D02*
X143570000Y-111760000D01*
X143570000Y-112970000D02*
X143570000Y-113090000D01*
X140910000Y-112970000D02*
X140910000Y-113090000D01*
X140910000Y-113090000D02*
X143570000Y-113090000D01*
X93920000Y-116840000D02*
X93920000Y-115510000D01*
X93920000Y-115510000D02*
X95250000Y-115510000D01*
X96460000Y-115510000D02*
X96580000Y-115510000D01*
X96460000Y-118170000D02*
X96580000Y-118170000D01*
X96580000Y-118170000D02*
X96580000Y-115510000D01*
X146050000Y-110430000D02*
X147380000Y-110430000D01*
X147380000Y-110430000D02*
X147380000Y-111760000D01*
X147380000Y-112970000D02*
X147380000Y-113090000D01*
X144720000Y-112970000D02*
X144720000Y-113090000D01*
X144720000Y-113090000D02*
X147380000Y-113090000D01*
X93920000Y-124460000D02*
X93920000Y-123130000D01*
X93920000Y-123130000D02*
X95250000Y-123130000D01*
X96460000Y-123130000D02*
X96580000Y-123130000D01*
X96460000Y-125790000D02*
X96580000Y-125790000D01*
X96580000Y-125790000D02*
X96580000Y-123130000D01*
D12*
X95210000Y-73900000D02*
X93510000Y-73900000D01*
X102910000Y-73500000D02*
X102410000Y-73500000D01*
X102910000Y-73500000D02*
X102910000Y-73900000D01*
X102910000Y-91600000D02*
X102410000Y-91600000D01*
X102910000Y-91600000D02*
X102910000Y-91200000D01*
X95210000Y-91600000D02*
X95710000Y-91600000D01*
X95210000Y-91600000D02*
X95210000Y-91200000D01*
X95610000Y-73500000D02*
X95860000Y-73500000D01*
X95210000Y-73900000D02*
X95610000Y-73500000D01*
X95210000Y-92950000D02*
X93510000Y-92950000D01*
X102910000Y-92550000D02*
X102410000Y-92550000D01*
X102910000Y-92550000D02*
X102910000Y-92950000D01*
X102910000Y-110650000D02*
X102410000Y-110650000D01*
X102910000Y-110650000D02*
X102910000Y-110250000D01*
X95210000Y-110650000D02*
X95710000Y-110650000D01*
X95210000Y-110650000D02*
X95210000Y-110250000D01*
X95610000Y-92550000D02*
X95860000Y-92550000D01*
X95210000Y-92950000D02*
X95610000Y-92550000D01*
D11*
X67640000Y-108360000D02*
X67640000Y-106360000D01*
X68890000Y-108360000D02*
X67640000Y-108360000D01*
X74640000Y-72410000D02*
X74640000Y-73160000D01*
X70340000Y-72410000D02*
X74640000Y-72410000D01*
X70340000Y-73160000D02*
X70340000Y-72410000D01*
X69990000Y-73160000D02*
X70340000Y-73160000D01*
X69990000Y-72660000D02*
X69990000Y-73160000D01*
X68990000Y-72410000D02*
X69990000Y-72660000D01*
X68990000Y-75410000D02*
X68990000Y-72410000D01*
X69990000Y-75160000D02*
X68990000Y-75410000D01*
X69990000Y-74660000D02*
X69990000Y-75160000D01*
X70340000Y-74660000D02*
X69990000Y-74660000D01*
X70340000Y-75410000D02*
X70340000Y-74660000D01*
X74640000Y-75410000D02*
X70340000Y-75410000D01*
X74640000Y-74660000D02*
X74640000Y-75410000D01*
X74640000Y-75910000D02*
X74640000Y-76660000D01*
X70340000Y-75910000D02*
X74640000Y-75910000D01*
X70340000Y-76660000D02*
X70340000Y-75910000D01*
X69990000Y-76660000D02*
X70340000Y-76660000D01*
X69990000Y-76160000D02*
X69990000Y-76660000D01*
X68990000Y-75910000D02*
X69990000Y-76160000D01*
X68990000Y-78910000D02*
X68990000Y-75910000D01*
X69990000Y-78660000D02*
X68990000Y-78910000D01*
X69990000Y-78160000D02*
X69990000Y-78660000D01*
X70340000Y-78160000D02*
X69990000Y-78160000D01*
X70340000Y-78910000D02*
X70340000Y-78160000D01*
X74640000Y-78910000D02*
X70340000Y-78910000D01*
X74640000Y-78160000D02*
X74640000Y-78910000D01*
X74640000Y-79410000D02*
X74640000Y-80160000D01*
X70340000Y-79410000D02*
X74640000Y-79410000D01*
X70340000Y-80160000D02*
X70340000Y-79410000D01*
X69990000Y-80160000D02*
X70340000Y-80160000D01*
X69990000Y-79660000D02*
X69990000Y-80160000D01*
X68990000Y-79410000D02*
X69990000Y-79660000D01*
X68990000Y-82410000D02*
X68990000Y-79410000D01*
X69990000Y-82160000D02*
X68990000Y-82410000D01*
X69990000Y-81660000D02*
X69990000Y-82160000D01*
X70340000Y-81660000D02*
X69990000Y-81660000D01*
X70340000Y-82410000D02*
X70340000Y-81660000D01*
X74640000Y-82410000D02*
X70340000Y-82410000D01*
X74640000Y-81660000D02*
X74640000Y-82410000D01*
X74640000Y-82910000D02*
X74640000Y-83660000D01*
X70340000Y-82910000D02*
X74640000Y-82910000D01*
X70340000Y-83660000D02*
X70340000Y-82910000D01*
X69990000Y-83660000D02*
X70340000Y-83660000D01*
X69990000Y-83160000D02*
X69990000Y-83660000D01*
X68990000Y-82910000D02*
X69990000Y-83160000D01*
X68990000Y-85910000D02*
X68990000Y-82910000D01*
X69990000Y-85660000D02*
X68990000Y-85910000D01*
X69990000Y-85160000D02*
X69990000Y-85660000D01*
X70340000Y-85160000D02*
X69990000Y-85160000D01*
X70340000Y-85910000D02*
X70340000Y-85160000D01*
X74640000Y-85910000D02*
X70340000Y-85910000D01*
X74640000Y-85160000D02*
X74640000Y-85910000D01*
X74640000Y-86410000D02*
X74640000Y-87160000D01*
X70340000Y-86410000D02*
X74640000Y-86410000D01*
X70340000Y-87160000D02*
X70340000Y-86410000D01*
X69990000Y-87160000D02*
X70340000Y-87160000D01*
X69990000Y-86660000D02*
X69990000Y-87160000D01*
X68990000Y-86410000D02*
X69990000Y-86660000D01*
X68990000Y-89410000D02*
X68990000Y-86410000D01*
X69990000Y-89160000D02*
X68990000Y-89410000D01*
X69990000Y-88660000D02*
X69990000Y-89160000D01*
X70340000Y-88660000D02*
X69990000Y-88660000D01*
X70340000Y-89410000D02*
X70340000Y-88660000D01*
X74640000Y-89410000D02*
X70340000Y-89410000D01*
X74640000Y-88660000D02*
X74640000Y-89410000D01*
X74640000Y-89910000D02*
X74640000Y-90660000D01*
X70340000Y-89910000D02*
X74640000Y-89910000D01*
X70340000Y-90660000D02*
X70340000Y-89910000D01*
X69990000Y-90660000D02*
X70340000Y-90660000D01*
X69990000Y-90160000D02*
X69990000Y-90660000D01*
X68990000Y-89910000D02*
X69990000Y-90160000D01*
X68990000Y-92910000D02*
X68990000Y-89910000D01*
X69990000Y-92660000D02*
X68990000Y-92910000D01*
X69990000Y-92160000D02*
X69990000Y-92660000D01*
X70340000Y-92160000D02*
X69990000Y-92160000D01*
X70340000Y-92910000D02*
X70340000Y-92160000D01*
X74640000Y-92910000D02*
X70340000Y-92910000D01*
X74640000Y-92160000D02*
X74640000Y-92910000D01*
X74640000Y-93410000D02*
X74640000Y-94160000D01*
X70340000Y-93410000D02*
X74640000Y-93410000D01*
X70340000Y-94160000D02*
X70340000Y-93410000D01*
X69990000Y-94160000D02*
X70340000Y-94160000D01*
X69990000Y-93660000D02*
X69990000Y-94160000D01*
X68990000Y-93410000D02*
X69990000Y-93660000D01*
X68990000Y-96410000D02*
X68990000Y-93410000D01*
X69990000Y-96160000D02*
X68990000Y-96410000D01*
X69990000Y-95660000D02*
X69990000Y-96160000D01*
X70340000Y-95660000D02*
X69990000Y-95660000D01*
X70340000Y-96410000D02*
X70340000Y-95660000D01*
X74640000Y-96410000D02*
X70340000Y-96410000D01*
X74640000Y-95660000D02*
X74640000Y-96410000D01*
X74640000Y-96910000D02*
X74640000Y-97660000D01*
X70340000Y-96910000D02*
X74640000Y-96910000D01*
X70340000Y-97660000D02*
X70340000Y-96910000D01*
X69990000Y-97660000D02*
X70340000Y-97660000D01*
X69990000Y-97160000D02*
X69990000Y-97660000D01*
X68990000Y-96910000D02*
X69990000Y-97160000D01*
X68990000Y-99910000D02*
X68990000Y-96910000D01*
X69990000Y-99660000D02*
X68990000Y-99910000D01*
X69990000Y-99160000D02*
X69990000Y-99660000D01*
X70340000Y-99160000D02*
X69990000Y-99160000D01*
X70340000Y-99910000D02*
X70340000Y-99160000D01*
X74640000Y-99910000D02*
X70340000Y-99910000D01*
X74640000Y-99160000D02*
X74640000Y-99910000D01*
X74640000Y-100410000D02*
X74640000Y-101160000D01*
X70340000Y-100410000D02*
X74640000Y-100410000D01*
X70340000Y-101160000D02*
X70340000Y-100410000D01*
X69990000Y-101160000D02*
X70340000Y-101160000D01*
X69990000Y-100660000D02*
X69990000Y-101160000D01*
X68990000Y-100410000D02*
X69990000Y-100660000D01*
X68990000Y-103410000D02*
X68990000Y-100410000D01*
X69990000Y-103160000D02*
X68990000Y-103410000D01*
X69990000Y-102660000D02*
X69990000Y-103160000D01*
X70340000Y-102660000D02*
X69990000Y-102660000D01*
X70340000Y-103410000D02*
X70340000Y-102660000D01*
X74640000Y-103410000D02*
X70340000Y-103410000D01*
X74640000Y-102660000D02*
X74640000Y-103410000D01*
X74640000Y-103910000D02*
X74640000Y-104660000D01*
X70340000Y-103910000D02*
X74640000Y-103910000D01*
X70340000Y-104660000D02*
X70340000Y-103910000D01*
X69990000Y-104660000D02*
X70340000Y-104660000D01*
X69990000Y-104160000D02*
X69990000Y-104660000D01*
X68990000Y-103910000D02*
X69990000Y-104160000D01*
X68990000Y-106910000D02*
X68990000Y-103910000D01*
X69990000Y-106660000D02*
X68990000Y-106910000D01*
X69990000Y-106160000D02*
X69990000Y-106660000D01*
X70340000Y-106160000D02*
X69990000Y-106160000D01*
X70340000Y-106910000D02*
X70340000Y-106160000D01*
X74640000Y-106910000D02*
X70340000Y-106910000D01*
X74640000Y-106160000D02*
X74640000Y-106910000D01*
X68030000Y-71350000D02*
X68030000Y-107970000D01*
X75500000Y-71350000D02*
X68030000Y-71350000D01*
X75500000Y-107970000D02*
X75500000Y-71350000D01*
X68030000Y-107970000D02*
X75500000Y-107970000D01*
X74639845Y-73160353D02*
G75*
G03*
X74640000Y-74660000I1700155J-749647D01*
G01*
X74639845Y-76660353D02*
G75*
G03*
X74640000Y-78160000I1700155J-749647D01*
G01*
X74639845Y-80160353D02*
G75*
G03*
X74640000Y-81660000I1700155J-749647D01*
G01*
X74639845Y-83660353D02*
G75*
G03*
X74640000Y-85160000I1700155J-749647D01*
G01*
X74639845Y-87160353D02*
G75*
G03*
X74640000Y-88660000I1700155J-749647D01*
G01*
X74639845Y-90660353D02*
G75*
G03*
X74640000Y-92160000I1700155J-749647D01*
G01*
X74639845Y-94160353D02*
G75*
G03*
X74640000Y-95660000I1700155J-749647D01*
G01*
X74639845Y-97660353D02*
G75*
G03*
X74640000Y-99160000I1700155J-749647D01*
G01*
X74639845Y-101160353D02*
G75*
G03*
X74640000Y-102660000I1700155J-749647D01*
G01*
X74639845Y-104660353D02*
G75*
G03*
X74640000Y-106160000I1700155J-749647D01*
G01*
X79070000Y-108360000D02*
X79070000Y-106360000D01*
X80320000Y-108360000D02*
X79070000Y-108360000D01*
X86070000Y-72410000D02*
X86070000Y-73160000D01*
X81770000Y-72410000D02*
X86070000Y-72410000D01*
X81770000Y-73160000D02*
X81770000Y-72410000D01*
X81420000Y-73160000D02*
X81770000Y-73160000D01*
X81420000Y-72660000D02*
X81420000Y-73160000D01*
X80420000Y-72410000D02*
X81420000Y-72660000D01*
X80420000Y-75410000D02*
X80420000Y-72410000D01*
X81420000Y-75160000D02*
X80420000Y-75410000D01*
X81420000Y-74660000D02*
X81420000Y-75160000D01*
X81770000Y-74660000D02*
X81420000Y-74660000D01*
X81770000Y-75410000D02*
X81770000Y-74660000D01*
X86070000Y-75410000D02*
X81770000Y-75410000D01*
X86070000Y-74660000D02*
X86070000Y-75410000D01*
X86070000Y-75910000D02*
X86070000Y-76660000D01*
X81770000Y-75910000D02*
X86070000Y-75910000D01*
X81770000Y-76660000D02*
X81770000Y-75910000D01*
X81420000Y-76660000D02*
X81770000Y-76660000D01*
X81420000Y-76160000D02*
X81420000Y-76660000D01*
X80420000Y-75910000D02*
X81420000Y-76160000D01*
X80420000Y-78910000D02*
X80420000Y-75910000D01*
X81420000Y-78660000D02*
X80420000Y-78910000D01*
X81420000Y-78160000D02*
X81420000Y-78660000D01*
X81770000Y-78160000D02*
X81420000Y-78160000D01*
X81770000Y-78910000D02*
X81770000Y-78160000D01*
X86070000Y-78910000D02*
X81770000Y-78910000D01*
X86070000Y-78160000D02*
X86070000Y-78910000D01*
X86070000Y-79410000D02*
X86070000Y-80160000D01*
X81770000Y-79410000D02*
X86070000Y-79410000D01*
X81770000Y-80160000D02*
X81770000Y-79410000D01*
X81420000Y-80160000D02*
X81770000Y-80160000D01*
X81420000Y-79660000D02*
X81420000Y-80160000D01*
X80420000Y-79410000D02*
X81420000Y-79660000D01*
X80420000Y-82410000D02*
X80420000Y-79410000D01*
X81420000Y-82160000D02*
X80420000Y-82410000D01*
X81420000Y-81660000D02*
X81420000Y-82160000D01*
X81770000Y-81660000D02*
X81420000Y-81660000D01*
X81770000Y-82410000D02*
X81770000Y-81660000D01*
X86070000Y-82410000D02*
X81770000Y-82410000D01*
X86070000Y-81660000D02*
X86070000Y-82410000D01*
X86070000Y-82910000D02*
X86070000Y-83660000D01*
X81770000Y-82910000D02*
X86070000Y-82910000D01*
X81770000Y-83660000D02*
X81770000Y-82910000D01*
X81420000Y-83660000D02*
X81770000Y-83660000D01*
X81420000Y-83160000D02*
X81420000Y-83660000D01*
X80420000Y-82910000D02*
X81420000Y-83160000D01*
X80420000Y-85910000D02*
X80420000Y-82910000D01*
X81420000Y-85660000D02*
X80420000Y-85910000D01*
X81420000Y-85160000D02*
X81420000Y-85660000D01*
X81770000Y-85160000D02*
X81420000Y-85160000D01*
X81770000Y-85910000D02*
X81770000Y-85160000D01*
X86070000Y-85910000D02*
X81770000Y-85910000D01*
X86070000Y-85160000D02*
X86070000Y-85910000D01*
X86070000Y-86410000D02*
X86070000Y-87160000D01*
X81770000Y-86410000D02*
X86070000Y-86410000D01*
X81770000Y-87160000D02*
X81770000Y-86410000D01*
X81420000Y-87160000D02*
X81770000Y-87160000D01*
X81420000Y-86660000D02*
X81420000Y-87160000D01*
X80420000Y-86410000D02*
X81420000Y-86660000D01*
X80420000Y-89410000D02*
X80420000Y-86410000D01*
X81420000Y-89160000D02*
X80420000Y-89410000D01*
X81420000Y-88660000D02*
X81420000Y-89160000D01*
X81770000Y-88660000D02*
X81420000Y-88660000D01*
X81770000Y-89410000D02*
X81770000Y-88660000D01*
X86070000Y-89410000D02*
X81770000Y-89410000D01*
X86070000Y-88660000D02*
X86070000Y-89410000D01*
X86070000Y-89910000D02*
X86070000Y-90660000D01*
X81770000Y-89910000D02*
X86070000Y-89910000D01*
X81770000Y-90660000D02*
X81770000Y-89910000D01*
X81420000Y-90660000D02*
X81770000Y-90660000D01*
X81420000Y-90160000D02*
X81420000Y-90660000D01*
X80420000Y-89910000D02*
X81420000Y-90160000D01*
X80420000Y-92910000D02*
X80420000Y-89910000D01*
X81420000Y-92660000D02*
X80420000Y-92910000D01*
X81420000Y-92160000D02*
X81420000Y-92660000D01*
X81770000Y-92160000D02*
X81420000Y-92160000D01*
X81770000Y-92910000D02*
X81770000Y-92160000D01*
X86070000Y-92910000D02*
X81770000Y-92910000D01*
X86070000Y-92160000D02*
X86070000Y-92910000D01*
X86070000Y-93410000D02*
X86070000Y-94160000D01*
X81770000Y-93410000D02*
X86070000Y-93410000D01*
X81770000Y-94160000D02*
X81770000Y-93410000D01*
X81420000Y-94160000D02*
X81770000Y-94160000D01*
X81420000Y-93660000D02*
X81420000Y-94160000D01*
X80420000Y-93410000D02*
X81420000Y-93660000D01*
X80420000Y-96410000D02*
X80420000Y-93410000D01*
X81420000Y-96160000D02*
X80420000Y-96410000D01*
X81420000Y-95660000D02*
X81420000Y-96160000D01*
X81770000Y-95660000D02*
X81420000Y-95660000D01*
X81770000Y-96410000D02*
X81770000Y-95660000D01*
X86070000Y-96410000D02*
X81770000Y-96410000D01*
X86070000Y-95660000D02*
X86070000Y-96410000D01*
X86070000Y-96910000D02*
X86070000Y-97660000D01*
X81770000Y-96910000D02*
X86070000Y-96910000D01*
X81770000Y-97660000D02*
X81770000Y-96910000D01*
X81420000Y-97660000D02*
X81770000Y-97660000D01*
X81420000Y-97160000D02*
X81420000Y-97660000D01*
X80420000Y-96910000D02*
X81420000Y-97160000D01*
X80420000Y-99910000D02*
X80420000Y-96910000D01*
X81420000Y-99660000D02*
X80420000Y-99910000D01*
X81420000Y-99160000D02*
X81420000Y-99660000D01*
X81770000Y-99160000D02*
X81420000Y-99160000D01*
X81770000Y-99910000D02*
X81770000Y-99160000D01*
X86070000Y-99910000D02*
X81770000Y-99910000D01*
X86070000Y-99160000D02*
X86070000Y-99910000D01*
X86070000Y-100410000D02*
X86070000Y-101160000D01*
X81770000Y-100410000D02*
X86070000Y-100410000D01*
X81770000Y-101160000D02*
X81770000Y-100410000D01*
X81420000Y-101160000D02*
X81770000Y-101160000D01*
X81420000Y-100660000D02*
X81420000Y-101160000D01*
X80420000Y-100410000D02*
X81420000Y-100660000D01*
X80420000Y-103410000D02*
X80420000Y-100410000D01*
X81420000Y-103160000D02*
X80420000Y-103410000D01*
X81420000Y-102660000D02*
X81420000Y-103160000D01*
X81770000Y-102660000D02*
X81420000Y-102660000D01*
X81770000Y-103410000D02*
X81770000Y-102660000D01*
X86070000Y-103410000D02*
X81770000Y-103410000D01*
X86070000Y-102660000D02*
X86070000Y-103410000D01*
X86070000Y-103910000D02*
X86070000Y-104660000D01*
X81770000Y-103910000D02*
X86070000Y-103910000D01*
X81770000Y-104660000D02*
X81770000Y-103910000D01*
X81420000Y-104660000D02*
X81770000Y-104660000D01*
X81420000Y-104160000D02*
X81420000Y-104660000D01*
X80420000Y-103910000D02*
X81420000Y-104160000D01*
X80420000Y-106910000D02*
X80420000Y-103910000D01*
X81420000Y-106660000D02*
X80420000Y-106910000D01*
X81420000Y-106160000D02*
X81420000Y-106660000D01*
X81770000Y-106160000D02*
X81420000Y-106160000D01*
X81770000Y-106910000D02*
X81770000Y-106160000D01*
X86070000Y-106910000D02*
X81770000Y-106910000D01*
X86070000Y-106160000D02*
X86070000Y-106910000D01*
X79460000Y-71350000D02*
X79460000Y-107970000D01*
X86930000Y-71350000D02*
X79460000Y-71350000D01*
X86930000Y-107970000D02*
X86930000Y-71350000D01*
X79460000Y-107970000D02*
X86930000Y-107970000D01*
X86069845Y-73160353D02*
G75*
G03*
X86070000Y-74660000I1700155J-749647D01*
G01*
X86069845Y-76660353D02*
G75*
G03*
X86070000Y-78160000I1700155J-749647D01*
G01*
X86069845Y-80160353D02*
G75*
G03*
X86070000Y-81660000I1700155J-749647D01*
G01*
X86069845Y-83660353D02*
G75*
G03*
X86070000Y-85160000I1700155J-749647D01*
G01*
X86069845Y-87160353D02*
G75*
G03*
X86070000Y-88660000I1700155J-749647D01*
G01*
X86069845Y-90660353D02*
G75*
G03*
X86070000Y-92160000I1700155J-749647D01*
G01*
X86069845Y-94160353D02*
G75*
G03*
X86070000Y-95660000I1700155J-749647D01*
G01*
X86069845Y-97660353D02*
G75*
G03*
X86070000Y-99160000I1700155J-749647D01*
G01*
X86069845Y-101160353D02*
G75*
G03*
X86070000Y-102660000I1700155J-749647D01*
G01*
X86069845Y-104660353D02*
G75*
G03*
X86070000Y-106160000I1700155J-749647D01*
G01*
X140000000Y-116780000D02*
X139700000Y-117380000D01*
X139400000Y-116780000D02*
X140000000Y-116780000D01*
X139700000Y-117380000D02*
X139400000Y-116780000D01*
X137590000Y-119680000D02*
X136310000Y-119680000D01*
X137590000Y-119080000D02*
X136310000Y-119080000D01*
X153710000Y-122190000D02*
X153710000Y-119380000D01*
X140690000Y-122190000D02*
X153710000Y-122190000D01*
X140690000Y-121380000D02*
X140690000Y-122190000D01*
X153710000Y-116570000D02*
X153710000Y-119380000D01*
X140690000Y-116570000D02*
X153710000Y-116570000D01*
X140690000Y-117380000D02*
X140690000Y-116570000D01*
X137160000Y-110550000D02*
X135830000Y-110550000D01*
X135830000Y-110550000D02*
X135830000Y-109220000D01*
X135830000Y-107950000D02*
X135830000Y-72330000D01*
X138490000Y-72330000D02*
X135830000Y-72330000D01*
X138490000Y-107950000D02*
X138490000Y-72330000D01*
X138490000Y-107950000D02*
X135830000Y-107950000D01*
X82250000Y-123250000D02*
X82550000Y-122650000D01*
X82850000Y-123250000D02*
X82250000Y-123250000D01*
X82550000Y-122650000D02*
X82850000Y-123250000D01*
X84660000Y-120350000D02*
X85940000Y-120350000D01*
X84660000Y-120950000D02*
X85940000Y-120950000D01*
X68540000Y-117840000D02*
X68540000Y-120650000D01*
X81560000Y-117840000D02*
X68540000Y-117840000D01*
X81560000Y-118650000D02*
X81560000Y-117840000D01*
X68540000Y-123460000D02*
X68540000Y-120650000D01*
X81560000Y-123460000D02*
X68540000Y-123460000D01*
X81560000Y-122650000D02*
X81560000Y-123460000D01*
X82250000Y-130870000D02*
X82550000Y-130270000D01*
X82850000Y-130870000D02*
X82250000Y-130870000D01*
X82550000Y-130270000D02*
X82850000Y-130870000D01*
X84660000Y-127970000D02*
X85940000Y-127970000D01*
X84660000Y-128570000D02*
X85940000Y-128570000D01*
X68540000Y-125460000D02*
X68540000Y-128270000D01*
X81560000Y-125460000D02*
X68540000Y-125460000D01*
X81560000Y-126270000D02*
X81560000Y-125460000D01*
X68540000Y-131080000D02*
X68540000Y-128270000D01*
X81560000Y-131080000D02*
X68540000Y-131080000D01*
X81560000Y-130270000D02*
X81560000Y-131080000D01*
X109220000Y-72330000D02*
X110550000Y-72330000D01*
X110550000Y-72330000D02*
X110550000Y-73660000D01*
X110550000Y-74930000D02*
X110550000Y-110550000D01*
X107890000Y-110550000D02*
X110550000Y-110550000D01*
X107890000Y-74930000D02*
X107890000Y-110550000D01*
X107890000Y-74930000D02*
X110550000Y-74930000D01*
X140910000Y-77170000D02*
X141510000Y-77470000D01*
X140910000Y-77770000D02*
X140910000Y-77170000D01*
X141510000Y-77470000D02*
X140910000Y-77770000D01*
X143810000Y-79580000D02*
X143810000Y-80860000D01*
X143210000Y-79580000D02*
X143210000Y-80860000D01*
X146320000Y-63460000D02*
X143510000Y-63460000D01*
X146320000Y-76480000D02*
X146320000Y-63460000D01*
X145510000Y-76480000D02*
X146320000Y-76480000D01*
X140700000Y-63460000D02*
X143510000Y-63460000D01*
X140700000Y-76480000D02*
X140700000Y-63460000D01*
X141510000Y-76480000D02*
X140700000Y-76480000D01*
D12*
X148209000Y-99587000D02*
X148209000Y-101137000D01*
X144399000Y-99587000D02*
X148209000Y-99587000D01*
X144399000Y-101137000D02*
X144399000Y-99587000D01*
X148209000Y-98279000D02*
X144399000Y-98279000D01*
X144399000Y-98279000D02*
X144399000Y-96729000D01*
X148209000Y-96729000D02*
X148209000Y-98279000D01*
D10*
X122475714Y-117006666D02*
X122951904Y-117006666D01*
X122380476Y-117292380D02*
X122713809Y-116292380D01*
X123047142Y-117292380D01*
X123904285Y-117292380D02*
X123332857Y-117292380D01*
X123618571Y-117292380D02*
X123618571Y-116292380D01*
X123523333Y-116435238D01*
X123428095Y-116530476D01*
X123332857Y-116578095D01*
X122124761Y-128817619D02*
X122029523Y-128770000D01*
X121934285Y-128674761D01*
X121791428Y-128531904D01*
X121696190Y-128484285D01*
X121600952Y-128484285D01*
X121648571Y-128722380D02*
X121553333Y-128674761D01*
X121458095Y-128579523D01*
X121410476Y-128389047D01*
X121410476Y-128055714D01*
X121458095Y-127865238D01*
X121553333Y-127770000D01*
X121648571Y-127722380D01*
X121839047Y-127722380D01*
X121934285Y-127770000D01*
X122029523Y-127865238D01*
X122077142Y-128055714D01*
X122077142Y-128389047D01*
X122029523Y-128579523D01*
X121934285Y-128674761D01*
X121839047Y-128722380D01*
X121648571Y-128722380D01*
X122410476Y-127722380D02*
X123029523Y-127722380D01*
X122696190Y-128103333D01*
X122839047Y-128103333D01*
X122934285Y-128150952D01*
X122981904Y-128198571D01*
X123029523Y-128293809D01*
X123029523Y-128531904D01*
X122981904Y-128627142D01*
X122934285Y-128674761D01*
X122839047Y-128722380D01*
X122553333Y-128722380D01*
X122458095Y-128674761D01*
X122410476Y-128627142D01*
X101204761Y-125007619D02*
X101109523Y-124960000D01*
X101014285Y-124864761D01*
X100871428Y-124721904D01*
X100776190Y-124674285D01*
X100680952Y-124674285D01*
X100728571Y-124912380D02*
X100633333Y-124864761D01*
X100538095Y-124769523D01*
X100490476Y-124579047D01*
X100490476Y-124245714D01*
X100538095Y-124055238D01*
X100633333Y-123960000D01*
X100728571Y-123912380D01*
X100919047Y-123912380D01*
X101014285Y-123960000D01*
X101109523Y-124055238D01*
X101157142Y-124245714D01*
X101157142Y-124579047D01*
X101109523Y-124769523D01*
X101014285Y-124864761D01*
X100919047Y-124912380D01*
X100728571Y-124912380D01*
X101538095Y-124007619D02*
X101585714Y-123960000D01*
X101680952Y-123912380D01*
X101919047Y-123912380D01*
X102014285Y-123960000D01*
X102061904Y-124007619D01*
X102109523Y-124102857D01*
X102109523Y-124198095D01*
X102061904Y-124340952D01*
X101490476Y-124912380D01*
X102109523Y-124912380D01*
X101204761Y-117387619D02*
X101109523Y-117340000D01*
X101014285Y-117244761D01*
X100871428Y-117101904D01*
X100776190Y-117054285D01*
X100680952Y-117054285D01*
X100728571Y-117292380D02*
X100633333Y-117244761D01*
X100538095Y-117149523D01*
X100490476Y-116959047D01*
X100490476Y-116625714D01*
X100538095Y-116435238D01*
X100633333Y-116340000D01*
X100728571Y-116292380D01*
X100919047Y-116292380D01*
X101014285Y-116340000D01*
X101109523Y-116435238D01*
X101157142Y-116625714D01*
X101157142Y-116959047D01*
X101109523Y-117149523D01*
X101014285Y-117244761D01*
X100919047Y-117292380D01*
X100728571Y-117292380D01*
X102109523Y-117292380D02*
X101538095Y-117292380D01*
X101823809Y-117292380D02*
X101823809Y-116292380D01*
X101728571Y-116435238D01*
X101633333Y-116530476D01*
X101538095Y-116578095D01*
X123023333Y-119672380D02*
X122690000Y-119196190D01*
X122451904Y-119672380D02*
X122451904Y-118672380D01*
X122832857Y-118672380D01*
X122928095Y-118720000D01*
X122975714Y-118767619D01*
X123023333Y-118862857D01*
X123023333Y-119005714D01*
X122975714Y-119100952D01*
X122928095Y-119148571D01*
X122832857Y-119196190D01*
X122451904Y-119196190D01*
X123356666Y-118672380D02*
X123975714Y-118672380D01*
X123642380Y-119053333D01*
X123785238Y-119053333D01*
X123880476Y-119100952D01*
X123928095Y-119148571D01*
X123975714Y-119243809D01*
X123975714Y-119481904D01*
X123928095Y-119577142D01*
X123880476Y-119624761D01*
X123785238Y-119672380D01*
X123499523Y-119672380D01*
X123404285Y-119624761D01*
X123356666Y-119577142D01*
X111593333Y-123482380D02*
X111260000Y-123006190D01*
X111021904Y-123482380D02*
X111021904Y-122482380D01*
X111402857Y-122482380D01*
X111498095Y-122530000D01*
X111545714Y-122577619D01*
X111593333Y-122672857D01*
X111593333Y-122815714D01*
X111545714Y-122910952D01*
X111498095Y-122958571D01*
X111402857Y-123006190D01*
X111021904Y-123006190D01*
X111974285Y-122577619D02*
X112021904Y-122530000D01*
X112117142Y-122482380D01*
X112355238Y-122482380D01*
X112450476Y-122530000D01*
X112498095Y-122577619D01*
X112545714Y-122672857D01*
X112545714Y-122768095D01*
X112498095Y-122910952D01*
X111926666Y-123482380D01*
X112545714Y-123482380D01*
X111593333Y-119672380D02*
X111260000Y-119196190D01*
X111021904Y-119672380D02*
X111021904Y-118672380D01*
X111402857Y-118672380D01*
X111498095Y-118720000D01*
X111545714Y-118767619D01*
X111593333Y-118862857D01*
X111593333Y-119005714D01*
X111545714Y-119100952D01*
X111498095Y-119148571D01*
X111402857Y-119196190D01*
X111021904Y-119196190D01*
X112545714Y-119672380D02*
X111974285Y-119672380D01*
X112260000Y-119672380D02*
X112260000Y-118672380D01*
X112164761Y-118815238D01*
X112069523Y-118910476D01*
X111974285Y-118958095D01*
X118641904Y-119672380D02*
X118641904Y-118672380D01*
X118880000Y-118672380D01*
X119022857Y-118720000D01*
X119118095Y-118815238D01*
X119165714Y-118910476D01*
X119213333Y-119100952D01*
X119213333Y-119243809D01*
X119165714Y-119434285D01*
X119118095Y-119529523D01*
X119022857Y-119624761D01*
X118880000Y-119672380D01*
X118641904Y-119672380D01*
X119546666Y-118672380D02*
X120165714Y-118672380D01*
X119832380Y-119053333D01*
X119975238Y-119053333D01*
X120070476Y-119100952D01*
X120118095Y-119148571D01*
X120165714Y-119243809D01*
X120165714Y-119481904D01*
X120118095Y-119577142D01*
X120070476Y-119624761D01*
X119975238Y-119672380D01*
X119689523Y-119672380D01*
X119594285Y-119624761D01*
X119546666Y-119577142D01*
X107211904Y-123482380D02*
X107211904Y-122482380D01*
X107450000Y-122482380D01*
X107592857Y-122530000D01*
X107688095Y-122625238D01*
X107735714Y-122720476D01*
X107783333Y-122910952D01*
X107783333Y-123053809D01*
X107735714Y-123244285D01*
X107688095Y-123339523D01*
X107592857Y-123434761D01*
X107450000Y-123482380D01*
X107211904Y-123482380D01*
X108164285Y-122577619D02*
X108211904Y-122530000D01*
X108307142Y-122482380D01*
X108545238Y-122482380D01*
X108640476Y-122530000D01*
X108688095Y-122577619D01*
X108735714Y-122672857D01*
X108735714Y-122768095D01*
X108688095Y-122910952D01*
X108116666Y-123482380D01*
X108735714Y-123482380D01*
X107211904Y-119672380D02*
X107211904Y-118672380D01*
X107450000Y-118672380D01*
X107592857Y-118720000D01*
X107688095Y-118815238D01*
X107735714Y-118910476D01*
X107783333Y-119100952D01*
X107783333Y-119243809D01*
X107735714Y-119434285D01*
X107688095Y-119529523D01*
X107592857Y-119624761D01*
X107450000Y-119672380D01*
X107211904Y-119672380D01*
X108735714Y-119672380D02*
X108164285Y-119672380D01*
X108450000Y-119672380D02*
X108450000Y-118672380D01*
X108354761Y-118815238D01*
X108259523Y-118910476D01*
X108164285Y-118958095D01*
X103743333Y-65222380D02*
X103743333Y-64222380D01*
X104076666Y-64936666D01*
X104410000Y-64222380D01*
X104410000Y-65222380D01*
X105314761Y-64555714D02*
X105314761Y-65222380D01*
X104886190Y-64555714D02*
X104886190Y-65079523D01*
X104933809Y-65174761D01*
X105029047Y-65222380D01*
X105171904Y-65222380D01*
X105267142Y-65174761D01*
X105314761Y-65127142D01*
X105695714Y-65222380D02*
X106219523Y-64555714D01*
X105695714Y-64555714D02*
X106219523Y-65222380D01*
X106552857Y-64317619D02*
X106600476Y-64270000D01*
X106695714Y-64222380D01*
X106933809Y-64222380D01*
X107029047Y-64270000D01*
X107076666Y-64317619D01*
X107124285Y-64412857D01*
X107124285Y-64508095D01*
X107076666Y-64650952D01*
X106505238Y-65222380D01*
X107124285Y-65222380D01*
X101433333Y-67762380D02*
X101100000Y-67286190D01*
X100861904Y-67762380D02*
X100861904Y-66762380D01*
X101242857Y-66762380D01*
X101338095Y-66810000D01*
X101385714Y-66857619D01*
X101433333Y-66952857D01*
X101433333Y-67095714D01*
X101385714Y-67190952D01*
X101338095Y-67238571D01*
X101242857Y-67286190D01*
X100861904Y-67286190D01*
X101766666Y-66762380D02*
X102433333Y-66762380D01*
X102004761Y-67762380D01*
X101433333Y-70302380D02*
X101100000Y-69826190D01*
X100861904Y-70302380D02*
X100861904Y-69302380D01*
X101242857Y-69302380D01*
X101338095Y-69350000D01*
X101385714Y-69397619D01*
X101433333Y-69492857D01*
X101433333Y-69635714D01*
X101385714Y-69730952D01*
X101338095Y-69778571D01*
X101242857Y-69826190D01*
X100861904Y-69826190D01*
X102290476Y-69302380D02*
X102100000Y-69302380D01*
X102004761Y-69350000D01*
X101957142Y-69397619D01*
X101861904Y-69540476D01*
X101814285Y-69730952D01*
X101814285Y-70111904D01*
X101861904Y-70207142D01*
X101909523Y-70254761D01*
X102004761Y-70302380D01*
X102195238Y-70302380D01*
X102290476Y-70254761D01*
X102338095Y-70207142D01*
X102385714Y-70111904D01*
X102385714Y-69873809D01*
X102338095Y-69778571D01*
X102290476Y-69730952D01*
X102195238Y-69683333D01*
X102004761Y-69683333D01*
X101909523Y-69730952D01*
X101861904Y-69778571D01*
X101814285Y-69873809D01*
X96353333Y-67602380D02*
X96020000Y-67126190D01*
X95781904Y-67602380D02*
X95781904Y-66602380D01*
X96162857Y-66602380D01*
X96258095Y-66650000D01*
X96305714Y-66697619D01*
X96353333Y-66792857D01*
X96353333Y-66935714D01*
X96305714Y-67030952D01*
X96258095Y-67078571D01*
X96162857Y-67126190D01*
X95781904Y-67126190D01*
X97258095Y-66602380D02*
X96781904Y-66602380D01*
X96734285Y-67078571D01*
X96781904Y-67030952D01*
X96877142Y-66983333D01*
X97115238Y-66983333D01*
X97210476Y-67030952D01*
X97258095Y-67078571D01*
X97305714Y-67173809D01*
X97305714Y-67411904D01*
X97258095Y-67507142D01*
X97210476Y-67554761D01*
X97115238Y-67602380D01*
X96877142Y-67602380D01*
X96781904Y-67554761D01*
X96734285Y-67507142D01*
X96353333Y-70142380D02*
X96020000Y-69666190D01*
X95781904Y-70142380D02*
X95781904Y-69142380D01*
X96162857Y-69142380D01*
X96258095Y-69190000D01*
X96305714Y-69237619D01*
X96353333Y-69332857D01*
X96353333Y-69475714D01*
X96305714Y-69570952D01*
X96258095Y-69618571D01*
X96162857Y-69666190D01*
X95781904Y-69666190D01*
X97210476Y-69475714D02*
X97210476Y-70142380D01*
X96972380Y-69094761D02*
X96734285Y-69809047D01*
X97353333Y-69809047D01*
X91273333Y-96877142D02*
X91225714Y-96924761D01*
X91082857Y-96972380D01*
X90987619Y-96972380D01*
X90844761Y-96924761D01*
X90749523Y-96829523D01*
X90701904Y-96734285D01*
X90654285Y-96543809D01*
X90654285Y-96400952D01*
X90701904Y-96210476D01*
X90749523Y-96115238D01*
X90844761Y-96020000D01*
X90987619Y-95972380D01*
X91082857Y-95972380D01*
X91225714Y-96020000D01*
X91273333Y-96067619D01*
X92130476Y-96305714D02*
X92130476Y-96972380D01*
X91892380Y-95924761D02*
X91654285Y-96639047D01*
X92273333Y-96639047D01*
X90367142Y-75096666D02*
X90414761Y-75144285D01*
X90462380Y-75287142D01*
X90462380Y-75382380D01*
X90414761Y-75525238D01*
X90319523Y-75620476D01*
X90224285Y-75668095D01*
X90033809Y-75715714D01*
X89890952Y-75715714D01*
X89700476Y-75668095D01*
X89605238Y-75620476D01*
X89510000Y-75525238D01*
X89462380Y-75382380D01*
X89462380Y-75287142D01*
X89510000Y-75144285D01*
X89557619Y-75096666D01*
X89462380Y-74763333D02*
X89462380Y-74144285D01*
X89843333Y-74477619D01*
X89843333Y-74334761D01*
X89890952Y-74239523D01*
X89938571Y-74191904D01*
X90033809Y-74144285D01*
X90271904Y-74144285D01*
X90367142Y-74191904D01*
X90414761Y-74239523D01*
X90462380Y-74334761D01*
X90462380Y-74620476D01*
X90414761Y-74715714D01*
X90367142Y-74763333D01*
X118307142Y-66206666D02*
X118354761Y-66254285D01*
X118402380Y-66397142D01*
X118402380Y-66492380D01*
X118354761Y-66635238D01*
X118259523Y-66730476D01*
X118164285Y-66778095D01*
X117973809Y-66825714D01*
X117830952Y-66825714D01*
X117640476Y-66778095D01*
X117545238Y-66730476D01*
X117450000Y-66635238D01*
X117402380Y-66492380D01*
X117402380Y-66397142D01*
X117450000Y-66254285D01*
X117497619Y-66206666D01*
X117497619Y-65825714D02*
X117450000Y-65778095D01*
X117402380Y-65682857D01*
X117402380Y-65444761D01*
X117450000Y-65349523D01*
X117497619Y-65301904D01*
X117592857Y-65254285D01*
X117688095Y-65254285D01*
X117830952Y-65301904D01*
X118402380Y-65873333D01*
X118402380Y-65254285D01*
X131007142Y-66206666D02*
X131054761Y-66254285D01*
X131102380Y-66397142D01*
X131102380Y-66492380D01*
X131054761Y-66635238D01*
X130959523Y-66730476D01*
X130864285Y-66778095D01*
X130673809Y-66825714D01*
X130530952Y-66825714D01*
X130340476Y-66778095D01*
X130245238Y-66730476D01*
X130150000Y-66635238D01*
X130102380Y-66492380D01*
X130102380Y-66397142D01*
X130150000Y-66254285D01*
X130197619Y-66206666D01*
X131102380Y-65254285D02*
X131102380Y-65825714D01*
X131102380Y-65540000D02*
X130102380Y-65540000D01*
X130245238Y-65635238D01*
X130340476Y-65730476D01*
X130388095Y-65825714D01*
X89773333Y-65222380D02*
X89773333Y-64222380D01*
X90106666Y-64936666D01*
X90440000Y-64222380D01*
X90440000Y-65222380D01*
X91344761Y-64555714D02*
X91344761Y-65222380D01*
X90916190Y-64555714D02*
X90916190Y-65079523D01*
X90963809Y-65174761D01*
X91059047Y-65222380D01*
X91201904Y-65222380D01*
X91297142Y-65174761D01*
X91344761Y-65127142D01*
X91725714Y-65222380D02*
X92249523Y-64555714D01*
X91725714Y-64555714D02*
X92249523Y-65222380D01*
X93154285Y-65222380D02*
X92582857Y-65222380D01*
X92868571Y-65222380D02*
X92868571Y-64222380D01*
X92773333Y-64365238D01*
X92678095Y-64460476D01*
X92582857Y-64508095D01*
X111569523Y-62722380D02*
X111093333Y-62722380D01*
X111045714Y-63198571D01*
X111093333Y-63150952D01*
X111188571Y-63103333D01*
X111426666Y-63103333D01*
X111521904Y-63150952D01*
X111569523Y-63198571D01*
X111617142Y-63293809D01*
X111617142Y-63531904D01*
X111569523Y-63627142D01*
X111521904Y-63674761D01*
X111426666Y-63722380D01*
X111188571Y-63722380D01*
X111093333Y-63674761D01*
X111045714Y-63627142D01*
X111902857Y-62722380D02*
X112236190Y-63722380D01*
X112569523Y-62722380D01*
X98298095Y-71962380D02*
X98298095Y-72771904D01*
X98345714Y-72867142D01*
X98393333Y-72914761D01*
X98488571Y-72962380D01*
X98679047Y-72962380D01*
X98774285Y-72914761D01*
X98821904Y-72867142D01*
X98869523Y-72771904D01*
X98869523Y-71962380D01*
X99774285Y-72295714D02*
X99774285Y-72962380D01*
X99536190Y-71914761D02*
X99298095Y-72629047D01*
X99917142Y-72629047D01*
X98298095Y-91012380D02*
X98298095Y-91821904D01*
X98345714Y-91917142D01*
X98393333Y-91964761D01*
X98488571Y-92012380D01*
X98679047Y-92012380D01*
X98774285Y-91964761D01*
X98821904Y-91917142D01*
X98869523Y-91821904D01*
X98869523Y-91012380D01*
X99250476Y-91012380D02*
X99869523Y-91012380D01*
X99536190Y-91393333D01*
X99679047Y-91393333D01*
X99774285Y-91440952D01*
X99821904Y-91488571D01*
X99869523Y-91583809D01*
X99869523Y-91821904D01*
X99821904Y-91917142D01*
X99774285Y-91964761D01*
X99679047Y-92012380D01*
X99393333Y-92012380D01*
X99298095Y-91964761D01*
X99250476Y-91917142D01*
X72056666Y-69302380D02*
X72056666Y-70016666D01*
X72009047Y-70159523D01*
X71913809Y-70254761D01*
X71770952Y-70302380D01*
X71675714Y-70302380D01*
X72675714Y-69730952D02*
X72580476Y-69683333D01*
X72532857Y-69635714D01*
X72485238Y-69540476D01*
X72485238Y-69492857D01*
X72532857Y-69397619D01*
X72580476Y-69350000D01*
X72675714Y-69302380D01*
X72866190Y-69302380D01*
X72961428Y-69350000D01*
X73009047Y-69397619D01*
X73056666Y-69492857D01*
X73056666Y-69540476D01*
X73009047Y-69635714D01*
X72961428Y-69683333D01*
X72866190Y-69730952D01*
X72675714Y-69730952D01*
X72580476Y-69778571D01*
X72532857Y-69826190D01*
X72485238Y-69921428D01*
X72485238Y-70111904D01*
X72532857Y-70207142D01*
X72580476Y-70254761D01*
X72675714Y-70302380D01*
X72866190Y-70302380D01*
X72961428Y-70254761D01*
X73009047Y-70207142D01*
X73056666Y-70111904D01*
X73056666Y-69921428D01*
X73009047Y-69826190D01*
X72961428Y-69778571D01*
X72866190Y-69730952D01*
X83486666Y-69302380D02*
X83486666Y-70016666D01*
X83439047Y-70159523D01*
X83343809Y-70254761D01*
X83200952Y-70302380D01*
X83105714Y-70302380D01*
X83867619Y-69302380D02*
X84534285Y-69302380D01*
X84105714Y-70302380D01*
X140636666Y-122642380D02*
X140636666Y-123356666D01*
X140589047Y-123499523D01*
X140493809Y-123594761D01*
X140350952Y-123642380D01*
X140255714Y-123642380D01*
X141541428Y-122642380D02*
X141350952Y-122642380D01*
X141255714Y-122690000D01*
X141208095Y-122737619D01*
X141112857Y-122880476D01*
X141065238Y-123070952D01*
X141065238Y-123451904D01*
X141112857Y-123547142D01*
X141160476Y-123594761D01*
X141255714Y-123642380D01*
X141446190Y-123642380D01*
X141541428Y-123594761D01*
X141589047Y-123547142D01*
X141636666Y-123451904D01*
X141636666Y-123213809D01*
X141589047Y-123118571D01*
X141541428Y-123070952D01*
X141446190Y-123023333D01*
X141255714Y-123023333D01*
X141160476Y-123070952D01*
X141112857Y-123118571D01*
X141065238Y-123213809D01*
X131602380Y-120594285D02*
X131126190Y-120927619D01*
X131602380Y-121165714D02*
X130602380Y-121165714D01*
X130602380Y-120784761D01*
X130650000Y-120689523D01*
X130697619Y-120641904D01*
X130792857Y-120594285D01*
X130935714Y-120594285D01*
X131030952Y-120641904D01*
X131078571Y-120689523D01*
X131126190Y-120784761D01*
X131126190Y-121165714D01*
X131554761Y-119784761D02*
X131602380Y-119880000D01*
X131602380Y-120070476D01*
X131554761Y-120165714D01*
X131459523Y-120213333D01*
X131078571Y-120213333D01*
X130983333Y-120165714D01*
X130935714Y-120070476D01*
X130935714Y-119880000D01*
X130983333Y-119784761D01*
X131078571Y-119737142D01*
X131173809Y-119737142D01*
X131269047Y-120213333D01*
X131602380Y-119165714D02*
X131554761Y-119260952D01*
X131459523Y-119308571D01*
X130602380Y-119308571D01*
X131602380Y-118356190D02*
X131078571Y-118356190D01*
X130983333Y-118403809D01*
X130935714Y-118499047D01*
X130935714Y-118689523D01*
X130983333Y-118784761D01*
X131554761Y-118356190D02*
X131602380Y-118451428D01*
X131602380Y-118689523D01*
X131554761Y-118784761D01*
X131459523Y-118832380D01*
X131364285Y-118832380D01*
X131269047Y-118784761D01*
X131221428Y-118689523D01*
X131221428Y-118451428D01*
X131173809Y-118356190D01*
X130935714Y-117975238D02*
X131602380Y-117737142D01*
X130935714Y-117499047D02*
X131602380Y-117737142D01*
X131840476Y-117832380D01*
X131888095Y-117880000D01*
X131935714Y-117975238D01*
X136826666Y-111442380D02*
X136826666Y-112156666D01*
X136779047Y-112299523D01*
X136683809Y-112394761D01*
X136540952Y-112442380D01*
X136445714Y-112442380D01*
X137779047Y-111442380D02*
X137302857Y-111442380D01*
X137255238Y-111918571D01*
X137302857Y-111870952D01*
X137398095Y-111823333D01*
X137636190Y-111823333D01*
X137731428Y-111870952D01*
X137779047Y-111918571D01*
X137826666Y-112013809D01*
X137826666Y-112251904D01*
X137779047Y-112347142D01*
X137731428Y-112394761D01*
X137636190Y-112442380D01*
X137398095Y-112442380D01*
X137302857Y-112394761D01*
X137255238Y-112347142D01*
X92162380Y-120983333D02*
X92876666Y-120983333D01*
X93019523Y-121030952D01*
X93114761Y-121126190D01*
X93162380Y-121269047D01*
X93162380Y-121364285D01*
X92162380Y-120602380D02*
X92162380Y-119983333D01*
X92543333Y-120316666D01*
X92543333Y-120173809D01*
X92590952Y-120078571D01*
X92638571Y-120030952D01*
X92733809Y-119983333D01*
X92971904Y-119983333D01*
X93067142Y-120030952D01*
X93114761Y-120078571D01*
X93162380Y-120173809D01*
X93162380Y-120459523D01*
X93114761Y-120554761D01*
X93067142Y-120602380D01*
X91552380Y-123911904D02*
X91552380Y-124388095D01*
X90552380Y-124388095D01*
X91552380Y-123578571D02*
X90885714Y-123578571D01*
X90552380Y-123578571D02*
X90600000Y-123626190D01*
X90647619Y-123578571D01*
X90600000Y-123530952D01*
X90552380Y-123578571D01*
X90647619Y-123578571D01*
X90885714Y-123245238D02*
X90885714Y-122864285D01*
X90552380Y-123102380D02*
X91409523Y-123102380D01*
X91504761Y-123054761D01*
X91552380Y-122959523D01*
X91552380Y-122864285D01*
X90885714Y-122673809D02*
X90885714Y-122292857D01*
X90552380Y-122530952D02*
X91409523Y-122530952D01*
X91504761Y-122483333D01*
X91552380Y-122388095D01*
X91552380Y-122292857D01*
X91552380Y-121816666D02*
X91504761Y-121911904D01*
X91409523Y-121959523D01*
X90552380Y-121959523D01*
X91504761Y-121054761D02*
X91552380Y-121150000D01*
X91552380Y-121340476D01*
X91504761Y-121435714D01*
X91409523Y-121483333D01*
X91028571Y-121483333D01*
X90933333Y-121435714D01*
X90885714Y-121340476D01*
X90885714Y-121150000D01*
X90933333Y-121054761D01*
X91028571Y-121007142D01*
X91123809Y-121007142D01*
X91219047Y-121483333D01*
X91552380Y-120578571D02*
X90552380Y-120578571D01*
X90552380Y-120197619D01*
X90600000Y-120102380D01*
X90647619Y-120054761D01*
X90742857Y-120007142D01*
X90885714Y-120007142D01*
X90980952Y-120054761D01*
X91028571Y-120102380D01*
X91076190Y-120197619D01*
X91076190Y-120578571D01*
X90885714Y-119150000D02*
X91552380Y-119150000D01*
X90885714Y-119578571D02*
X91409523Y-119578571D01*
X91504761Y-119530952D01*
X91552380Y-119435714D01*
X91552380Y-119292857D01*
X91504761Y-119197619D01*
X91457142Y-119150000D01*
X91552380Y-118673809D02*
X90885714Y-118673809D01*
X90980952Y-118673809D02*
X90933333Y-118626190D01*
X90885714Y-118530952D01*
X90885714Y-118388095D01*
X90933333Y-118292857D01*
X91028571Y-118245238D01*
X91552380Y-118245238D01*
X91028571Y-118245238D02*
X90933333Y-118197619D01*
X90885714Y-118102380D01*
X90885714Y-117959523D01*
X90933333Y-117864285D01*
X91028571Y-117816666D01*
X91552380Y-117816666D01*
X90885714Y-117340476D02*
X91885714Y-117340476D01*
X90933333Y-117340476D02*
X90885714Y-117245238D01*
X90885714Y-117054761D01*
X90933333Y-116959523D01*
X90980952Y-116911904D01*
X91076190Y-116864285D01*
X91361904Y-116864285D01*
X91457142Y-116911904D01*
X91504761Y-116959523D01*
X91552380Y-117054761D01*
X91552380Y-117245238D01*
X91504761Y-117340476D01*
X92162380Y-128603333D02*
X92876666Y-128603333D01*
X93019523Y-128650952D01*
X93114761Y-128746190D01*
X93162380Y-128889047D01*
X93162380Y-128984285D01*
X92495714Y-127698571D02*
X93162380Y-127698571D01*
X92114761Y-127936666D02*
X92829047Y-128174761D01*
X92829047Y-127555714D01*
X91028571Y-130960476D02*
X91076190Y-130817619D01*
X91123809Y-130770000D01*
X91219047Y-130722380D01*
X91361904Y-130722380D01*
X91457142Y-130770000D01*
X91504761Y-130817619D01*
X91552380Y-130912857D01*
X91552380Y-131293809D01*
X90552380Y-131293809D01*
X90552380Y-130960476D01*
X90600000Y-130865238D01*
X90647619Y-130817619D01*
X90742857Y-130770000D01*
X90838095Y-130770000D01*
X90933333Y-130817619D01*
X90980952Y-130865238D01*
X91028571Y-130960476D01*
X91028571Y-131293809D01*
X91552380Y-130293809D02*
X90885714Y-130293809D01*
X90552380Y-130293809D02*
X90600000Y-130341428D01*
X90647619Y-130293809D01*
X90600000Y-130246190D01*
X90552380Y-130293809D01*
X90647619Y-130293809D01*
X90885714Y-129389047D02*
X91695238Y-129389047D01*
X91790476Y-129436666D01*
X91838095Y-129484285D01*
X91885714Y-129579523D01*
X91885714Y-129722380D01*
X91838095Y-129817619D01*
X91504761Y-129389047D02*
X91552380Y-129484285D01*
X91552380Y-129674761D01*
X91504761Y-129770000D01*
X91457142Y-129817619D01*
X91361904Y-129865238D01*
X91076190Y-129865238D01*
X90980952Y-129817619D01*
X90933333Y-129770000D01*
X90885714Y-129674761D01*
X90885714Y-129484285D01*
X90933333Y-129389047D01*
X91552380Y-128912857D02*
X90552380Y-128912857D01*
X90552380Y-128531904D01*
X90600000Y-128436666D01*
X90647619Y-128389047D01*
X90742857Y-128341428D01*
X90885714Y-128341428D01*
X90980952Y-128389047D01*
X91028571Y-128436666D01*
X91076190Y-128531904D01*
X91076190Y-128912857D01*
X90885714Y-127484285D02*
X91552380Y-127484285D01*
X90885714Y-127912857D02*
X91409523Y-127912857D01*
X91504761Y-127865238D01*
X91552380Y-127770000D01*
X91552380Y-127627142D01*
X91504761Y-127531904D01*
X91457142Y-127484285D01*
X91552380Y-127008095D02*
X90885714Y-127008095D01*
X90980952Y-127008095D02*
X90933333Y-126960476D01*
X90885714Y-126865238D01*
X90885714Y-126722380D01*
X90933333Y-126627142D01*
X91028571Y-126579523D01*
X91552380Y-126579523D01*
X91028571Y-126579523D02*
X90933333Y-126531904D01*
X90885714Y-126436666D01*
X90885714Y-126293809D01*
X90933333Y-126198571D01*
X91028571Y-126150952D01*
X91552380Y-126150952D01*
X90885714Y-125674761D02*
X91885714Y-125674761D01*
X90933333Y-125674761D02*
X90885714Y-125579523D01*
X90885714Y-125389047D01*
X90933333Y-125293809D01*
X90980952Y-125246190D01*
X91076190Y-125198571D01*
X91361904Y-125198571D01*
X91457142Y-125246190D01*
X91504761Y-125293809D01*
X91552380Y-125389047D01*
X91552380Y-125579523D01*
X91504761Y-125674761D01*
X108886666Y-70342380D02*
X108886666Y-71056666D01*
X108839047Y-71199523D01*
X108743809Y-71294761D01*
X108600952Y-71342380D01*
X108505714Y-71342380D01*
X109315238Y-70437619D02*
X109362857Y-70390000D01*
X109458095Y-70342380D01*
X109696190Y-70342380D01*
X109791428Y-70390000D01*
X109839047Y-70437619D01*
X109886666Y-70532857D01*
X109886666Y-70628095D01*
X109839047Y-70770952D01*
X109267619Y-71342380D01*
X109886666Y-71342380D01*
X146772380Y-81613333D02*
X147486666Y-81613333D01*
X147629523Y-81660952D01*
X147724761Y-81756190D01*
X147772380Y-81899047D01*
X147772380Y-81994285D01*
X147772380Y-80613333D02*
X147772380Y-81184761D01*
X147772380Y-80899047D02*
X146772380Y-80899047D01*
X146915238Y-80994285D01*
X147010476Y-81089523D01*
X147058095Y-81184761D01*
X139652857Y-86472380D02*
X139652857Y-85472380D01*
X140129047Y-85805714D02*
X140129047Y-86472380D01*
X140129047Y-85900952D02*
X140176666Y-85853333D01*
X140271904Y-85805714D01*
X140414761Y-85805714D01*
X140510000Y-85853333D01*
X140557619Y-85948571D01*
X140557619Y-86472380D01*
X141033809Y-85805714D02*
X141033809Y-86805714D01*
X141033809Y-85853333D02*
X141129047Y-85805714D01*
X141319523Y-85805714D01*
X141414761Y-85853333D01*
X141462380Y-85900952D01*
X141510000Y-85996190D01*
X141510000Y-86281904D01*
X141462380Y-86377142D01*
X141414761Y-86424761D01*
X141319523Y-86472380D01*
X141129047Y-86472380D01*
X141033809Y-86424761D01*
X142367142Y-85805714D02*
X142367142Y-86472380D01*
X141938571Y-85805714D02*
X141938571Y-86329523D01*
X141986190Y-86424761D01*
X142081428Y-86472380D01*
X142224285Y-86472380D01*
X142319523Y-86424761D01*
X142367142Y-86377142D01*
X142700476Y-85805714D02*
X143081428Y-85805714D01*
X142843333Y-85472380D02*
X142843333Y-86329523D01*
X142890952Y-86424761D01*
X142986190Y-86472380D01*
X143081428Y-86472380D01*
X143414761Y-86472380D02*
X143414761Y-85472380D01*
X143795714Y-85472380D01*
X143890952Y-85520000D01*
X143938571Y-85567619D01*
X143986190Y-85662857D01*
X143986190Y-85805714D01*
X143938571Y-85900952D01*
X143890952Y-85948571D01*
X143795714Y-85996190D01*
X143414761Y-85996190D01*
X144557619Y-86472380D02*
X144462380Y-86424761D01*
X144414761Y-86377142D01*
X144367142Y-86281904D01*
X144367142Y-85996190D01*
X144414761Y-85900952D01*
X144462380Y-85853333D01*
X144557619Y-85805714D01*
X144700476Y-85805714D01*
X144795714Y-85853333D01*
X144843333Y-85900952D01*
X144890952Y-85996190D01*
X144890952Y-86281904D01*
X144843333Y-86377142D01*
X144795714Y-86424761D01*
X144700476Y-86472380D01*
X144557619Y-86472380D01*
X145224285Y-85805714D02*
X145414761Y-86472380D01*
X145605238Y-85996190D01*
X145795714Y-86472380D01*
X145986190Y-85805714D01*
X146748095Y-86424761D02*
X146652857Y-86472380D01*
X146462380Y-86472380D01*
X146367142Y-86424761D01*
X146319523Y-86329523D01*
X146319523Y-85948571D01*
X146367142Y-85853333D01*
X146462380Y-85805714D01*
X146652857Y-85805714D01*
X146748095Y-85853333D01*
X146795714Y-85948571D01*
X146795714Y-86043809D01*
X146319523Y-86139047D01*
X147224285Y-86472380D02*
X147224285Y-85805714D01*
X147224285Y-85996190D02*
X147271904Y-85900952D01*
X147319523Y-85853333D01*
X147414761Y-85805714D01*
X147510000Y-85805714D01*
X150804571Y-103457332D02*
X150804571Y-103790665D01*
X151328380Y-103790665D02*
X150328382Y-103790665D01*
X150328382Y-103314475D01*
X151328380Y-102409715D02*
X151328380Y-102981143D01*
X151328380Y-102695429D02*
X150328382Y-102695429D01*
X150471238Y-102790667D01*
X150566476Y-102885905D01*
X150614095Y-102981143D01*
%LPC*%
D13*
X130810000Y-109220000D03*
X115570000Y-109220000D03*
X130810000Y-73660000D03*
X115570000Y-106680000D03*
X130810000Y-76200000D03*
X115570000Y-104140000D03*
X130810000Y-78740000D03*
X115570000Y-101600000D03*
X130810000Y-81280000D03*
X115570000Y-99060000D03*
X130810000Y-83820000D03*
X115570000Y-96520000D03*
X130810000Y-86360000D03*
X115570000Y-93980000D03*
X130810000Y-88900000D03*
X115570000Y-91440000D03*
X130810000Y-91440000D03*
X115570000Y-88900000D03*
X130810000Y-93980000D03*
X115570000Y-86360000D03*
X130810000Y-96520000D03*
X115570000Y-83820000D03*
X130810000Y-99060000D03*
X115570000Y-81280000D03*
X130810000Y-101600000D03*
X115570000Y-78740000D03*
X130810000Y-104140000D03*
X115570000Y-76200000D03*
X130810000Y-106680000D03*
D14*
X115570000Y-73660000D03*
D12*
G36*
X124220000Y-125326500D02*
G01*
X121095000Y-125326500D01*
X121095000Y-124910000D01*
X119620000Y-124910000D01*
X119620000Y-124010000D01*
X121095000Y-124010000D01*
X121095000Y-123593500D01*
X124220000Y-123593500D01*
X124220000Y-125326500D01*
G37*
D15*
X120270000Y-125960000D03*
X120270000Y-122960000D03*
D12*
G36*
X99300000Y-127403500D02*
G01*
X102425000Y-127403500D01*
X102425000Y-127820000D01*
X103900000Y-127820000D01*
X103900000Y-128720000D01*
X102425000Y-128720000D01*
X102425000Y-129136500D01*
X99300000Y-129136500D01*
X99300000Y-127403500D01*
G37*
D15*
X103250000Y-126770000D03*
X103250000Y-129770000D03*
D12*
G36*
X99300000Y-119783500D02*
G01*
X102425000Y-119783500D01*
X102425000Y-120200000D01*
X103900000Y-120200000D01*
X103900000Y-121100000D01*
X102425000Y-121100000D01*
X102425000Y-121516500D01*
X99300000Y-121516500D01*
X99300000Y-119783500D01*
G37*
D15*
X103250000Y-119150000D03*
X103250000Y-122150000D03*
G36*
G01*
X123615000Y-120925000D02*
X123615000Y-120375000D01*
G75*
G02*
X123815000Y-120175000I200000J0D01*
G01*
X124215000Y-120175000D01*
G75*
G02*
X124415000Y-120375000I0J-200000D01*
G01*
X124415000Y-120925000D01*
G75*
G02*
X124215000Y-121125000I-200000J0D01*
G01*
X123815000Y-121125000D01*
G75*
G02*
X123615000Y-120925000I0J200000D01*
G01*
G37*
G36*
G01*
X121965000Y-120925000D02*
X121965000Y-120375000D01*
G75*
G02*
X122165000Y-120175000I200000J0D01*
G01*
X122565000Y-120175000D01*
G75*
G02*
X122765000Y-120375000I0J-200000D01*
G01*
X122765000Y-120925000D01*
G75*
G02*
X122565000Y-121125000I-200000J0D01*
G01*
X122165000Y-121125000D01*
G75*
G02*
X121965000Y-120925000I0J200000D01*
G01*
G37*
G36*
G01*
X112185000Y-124735000D02*
X112185000Y-124185000D01*
G75*
G02*
X112385000Y-123985000I200000J0D01*
G01*
X112785000Y-123985000D01*
G75*
G02*
X112985000Y-124185000I0J-200000D01*
G01*
X112985000Y-124735000D01*
G75*
G02*
X112785000Y-124935000I-200000J0D01*
G01*
X112385000Y-124935000D01*
G75*
G02*
X112185000Y-124735000I0J200000D01*
G01*
G37*
G36*
G01*
X110535000Y-124735000D02*
X110535000Y-124185000D01*
G75*
G02*
X110735000Y-123985000I200000J0D01*
G01*
X111135000Y-123985000D01*
G75*
G02*
X111335000Y-124185000I0J-200000D01*
G01*
X111335000Y-124735000D01*
G75*
G02*
X111135000Y-124935000I-200000J0D01*
G01*
X110735000Y-124935000D01*
G75*
G02*
X110535000Y-124735000I0J200000D01*
G01*
G37*
G36*
G01*
X112185000Y-120925000D02*
X112185000Y-120375000D01*
G75*
G02*
X112385000Y-120175000I200000J0D01*
G01*
X112785000Y-120175000D01*
G75*
G02*
X112985000Y-120375000I0J-200000D01*
G01*
X112985000Y-120925000D01*
G75*
G02*
X112785000Y-121125000I-200000J0D01*
G01*
X112385000Y-121125000D01*
G75*
G02*
X112185000Y-120925000I0J200000D01*
G01*
G37*
G36*
G01*
X110535000Y-120925000D02*
X110535000Y-120375000D01*
G75*
G02*
X110735000Y-120175000I200000J0D01*
G01*
X111135000Y-120175000D01*
G75*
G02*
X111335000Y-120375000I0J-200000D01*
G01*
X111335000Y-120925000D01*
G75*
G02*
X111135000Y-121125000I-200000J0D01*
G01*
X110735000Y-121125000D01*
G75*
G02*
X110535000Y-120925000I0J200000D01*
G01*
G37*
G36*
G01*
X119730000Y-120906250D02*
X119730000Y-120393750D01*
G75*
G02*
X119948750Y-120175000I218750J0D01*
G01*
X120386250Y-120175000D01*
G75*
G02*
X120605000Y-120393750I0J-218750D01*
G01*
X120605000Y-120906250D01*
G75*
G02*
X120386250Y-121125000I-218750J0D01*
G01*
X119948750Y-121125000D01*
G75*
G02*
X119730000Y-120906250I0J218750D01*
G01*
G37*
G36*
G01*
X118155000Y-120906250D02*
X118155000Y-120393750D01*
G75*
G02*
X118373750Y-120175000I218750J0D01*
G01*
X118811250Y-120175000D01*
G75*
G02*
X119030000Y-120393750I0J-218750D01*
G01*
X119030000Y-120906250D01*
G75*
G02*
X118811250Y-121125000I-218750J0D01*
G01*
X118373750Y-121125000D01*
G75*
G02*
X118155000Y-120906250I0J218750D01*
G01*
G37*
G36*
G01*
X108300000Y-124716250D02*
X108300000Y-124203750D01*
G75*
G02*
X108518750Y-123985000I218750J0D01*
G01*
X108956250Y-123985000D01*
G75*
G02*
X109175000Y-124203750I0J-218750D01*
G01*
X109175000Y-124716250D01*
G75*
G02*
X108956250Y-124935000I-218750J0D01*
G01*
X108518750Y-124935000D01*
G75*
G02*
X108300000Y-124716250I0J218750D01*
G01*
G37*
G36*
G01*
X106725000Y-124716250D02*
X106725000Y-124203750D01*
G75*
G02*
X106943750Y-123985000I218750J0D01*
G01*
X107381250Y-123985000D01*
G75*
G02*
X107600000Y-124203750I0J-218750D01*
G01*
X107600000Y-124716250D01*
G75*
G02*
X107381250Y-124935000I-218750J0D01*
G01*
X106943750Y-124935000D01*
G75*
G02*
X106725000Y-124716250I0J218750D01*
G01*
G37*
G36*
G01*
X108300000Y-120906250D02*
X108300000Y-120393750D01*
G75*
G02*
X108518750Y-120175000I218750J0D01*
G01*
X108956250Y-120175000D01*
G75*
G02*
X109175000Y-120393750I0J-218750D01*
G01*
X109175000Y-120906250D01*
G75*
G02*
X108956250Y-121125000I-218750J0D01*
G01*
X108518750Y-121125000D01*
G75*
G02*
X108300000Y-120906250I0J218750D01*
G01*
G37*
G36*
G01*
X106725000Y-120906250D02*
X106725000Y-120393750D01*
G75*
G02*
X106943750Y-120175000I218750J0D01*
G01*
X107381250Y-120175000D01*
G75*
G02*
X107600000Y-120393750I0J-218750D01*
G01*
X107600000Y-120906250D01*
G75*
G02*
X107381250Y-121125000I-218750J0D01*
G01*
X106943750Y-121125000D01*
G75*
G02*
X106725000Y-120906250I0J218750D01*
G01*
G37*
D16*
X105410000Y-67310000D03*
G36*
G01*
X102025000Y-68855000D02*
X102025000Y-68305000D01*
G75*
G02*
X102225000Y-68105000I200000J0D01*
G01*
X102625000Y-68105000D01*
G75*
G02*
X102825000Y-68305000I0J-200000D01*
G01*
X102825000Y-68855000D01*
G75*
G02*
X102625000Y-69055000I-200000J0D01*
G01*
X102225000Y-69055000D01*
G75*
G02*
X102025000Y-68855000I0J200000D01*
G01*
G37*
G36*
G01*
X100375000Y-68855000D02*
X100375000Y-68305000D01*
G75*
G02*
X100575000Y-68105000I200000J0D01*
G01*
X100975000Y-68105000D01*
G75*
G02*
X101175000Y-68305000I0J-200000D01*
G01*
X101175000Y-68855000D01*
G75*
G02*
X100975000Y-69055000I-200000J0D01*
G01*
X100575000Y-69055000D01*
G75*
G02*
X100375000Y-68855000I0J200000D01*
G01*
G37*
G36*
G01*
X101175000Y-70845000D02*
X101175000Y-71395000D01*
G75*
G02*
X100975000Y-71595000I-200000J0D01*
G01*
X100575000Y-71595000D01*
G75*
G02*
X100375000Y-71395000I0J200000D01*
G01*
X100375000Y-70845000D01*
G75*
G02*
X100575000Y-70645000I200000J0D01*
G01*
X100975000Y-70645000D01*
G75*
G02*
X101175000Y-70845000I0J-200000D01*
G01*
G37*
G36*
G01*
X102825000Y-70845000D02*
X102825000Y-71395000D01*
G75*
G02*
X102625000Y-71595000I-200000J0D01*
G01*
X102225000Y-71595000D01*
G75*
G02*
X102025000Y-71395000I0J200000D01*
G01*
X102025000Y-70845000D01*
G75*
G02*
X102225000Y-70645000I200000J0D01*
G01*
X102625000Y-70645000D01*
G75*
G02*
X102825000Y-70845000I0J-200000D01*
G01*
G37*
G36*
G01*
X96945000Y-68855000D02*
X96945000Y-68305000D01*
G75*
G02*
X97145000Y-68105000I200000J0D01*
G01*
X97545000Y-68105000D01*
G75*
G02*
X97745000Y-68305000I0J-200000D01*
G01*
X97745000Y-68855000D01*
G75*
G02*
X97545000Y-69055000I-200000J0D01*
G01*
X97145000Y-69055000D01*
G75*
G02*
X96945000Y-68855000I0J200000D01*
G01*
G37*
G36*
G01*
X95295000Y-68855000D02*
X95295000Y-68305000D01*
G75*
G02*
X95495000Y-68105000I200000J0D01*
G01*
X95895000Y-68105000D01*
G75*
G02*
X96095000Y-68305000I0J-200000D01*
G01*
X96095000Y-68855000D01*
G75*
G02*
X95895000Y-69055000I-200000J0D01*
G01*
X95495000Y-69055000D01*
G75*
G02*
X95295000Y-68855000I0J200000D01*
G01*
G37*
G36*
G01*
X96945000Y-71395000D02*
X96945000Y-70845000D01*
G75*
G02*
X97145000Y-70645000I200000J0D01*
G01*
X97545000Y-70645000D01*
G75*
G02*
X97745000Y-70845000I0J-200000D01*
G01*
X97745000Y-71395000D01*
G75*
G02*
X97545000Y-71595000I-200000J0D01*
G01*
X97145000Y-71595000D01*
G75*
G02*
X96945000Y-71395000I0J200000D01*
G01*
G37*
G36*
G01*
X95295000Y-71395000D02*
X95295000Y-70845000D01*
G75*
G02*
X95495000Y-70645000I200000J0D01*
G01*
X95895000Y-70645000D01*
G75*
G02*
X96095000Y-70845000I0J-200000D01*
G01*
X96095000Y-71395000D01*
G75*
G02*
X95895000Y-71595000I-200000J0D01*
G01*
X95495000Y-71595000D01*
G75*
G02*
X95295000Y-71395000I0J200000D01*
G01*
G37*
G36*
G01*
X91115000Y-95000000D02*
X91115000Y-95500000D01*
G75*
G02*
X90890000Y-95725000I-225000J0D01*
G01*
X90440000Y-95725000D01*
G75*
G02*
X90215000Y-95500000I0J225000D01*
G01*
X90215000Y-95000000D01*
G75*
G02*
X90440000Y-94775000I225000J0D01*
G01*
X90890000Y-94775000D01*
G75*
G02*
X91115000Y-95000000I0J-225000D01*
G01*
G37*
G36*
G01*
X92665000Y-95000000D02*
X92665000Y-95500000D01*
G75*
G02*
X92440000Y-95725000I-225000J0D01*
G01*
X91990000Y-95725000D01*
G75*
G02*
X91765000Y-95500000I0J225000D01*
G01*
X91765000Y-95000000D01*
G75*
G02*
X91990000Y-94775000I225000J0D01*
G01*
X92440000Y-94775000D01*
G75*
G02*
X92665000Y-95000000I0J-225000D01*
G01*
G37*
G36*
G01*
X91690000Y-74605000D02*
X91190000Y-74605000D01*
G75*
G02*
X90965000Y-74380000I0J225000D01*
G01*
X90965000Y-73930000D01*
G75*
G02*
X91190000Y-73705000I225000J0D01*
G01*
X91690000Y-73705000D01*
G75*
G02*
X91915000Y-73930000I0J-225000D01*
G01*
X91915000Y-74380000D01*
G75*
G02*
X91690000Y-74605000I-225000J0D01*
G01*
G37*
G36*
G01*
X91690000Y-76155000D02*
X91190000Y-76155000D01*
G75*
G02*
X90965000Y-75930000I0J225000D01*
G01*
X90965000Y-75480000D01*
G75*
G02*
X91190000Y-75255000I225000J0D01*
G01*
X91690000Y-75255000D01*
G75*
G02*
X91915000Y-75480000I0J-225000D01*
G01*
X91915000Y-75930000D01*
G75*
G02*
X91690000Y-76155000I-225000J0D01*
G01*
G37*
G36*
G01*
X119630000Y-65715000D02*
X119130000Y-65715000D01*
G75*
G02*
X118905000Y-65490000I0J225000D01*
G01*
X118905000Y-65040000D01*
G75*
G02*
X119130000Y-64815000I225000J0D01*
G01*
X119630000Y-64815000D01*
G75*
G02*
X119855000Y-65040000I0J-225000D01*
G01*
X119855000Y-65490000D01*
G75*
G02*
X119630000Y-65715000I-225000J0D01*
G01*
G37*
G36*
G01*
X119630000Y-67265000D02*
X119130000Y-67265000D01*
G75*
G02*
X118905000Y-67040000I0J225000D01*
G01*
X118905000Y-66590000D01*
G75*
G02*
X119130000Y-66365000I225000J0D01*
G01*
X119630000Y-66365000D01*
G75*
G02*
X119855000Y-66590000I0J-225000D01*
G01*
X119855000Y-67040000D01*
G75*
G02*
X119630000Y-67265000I-225000J0D01*
G01*
G37*
G36*
G01*
X132330000Y-65715000D02*
X131830000Y-65715000D01*
G75*
G02*
X131605000Y-65490000I0J225000D01*
G01*
X131605000Y-65040000D01*
G75*
G02*
X131830000Y-64815000I225000J0D01*
G01*
X132330000Y-64815000D01*
G75*
G02*
X132555000Y-65040000I0J-225000D01*
G01*
X132555000Y-65490000D01*
G75*
G02*
X132330000Y-65715000I-225000J0D01*
G01*
G37*
G36*
G01*
X132330000Y-67265000D02*
X131830000Y-67265000D01*
G75*
G02*
X131605000Y-67040000I0J225000D01*
G01*
X131605000Y-66590000D01*
G75*
G02*
X131830000Y-66365000I225000J0D01*
G01*
X132330000Y-66365000D01*
G75*
G02*
X132555000Y-66590000I0J-225000D01*
G01*
X132555000Y-67040000D01*
G75*
G02*
X132330000Y-67265000I-225000J0D01*
G01*
G37*
D17*
X71120000Y-113030000D03*
X151130000Y-128270000D03*
X151130000Y-66040000D03*
X71120000Y-66040000D03*
D16*
X91440000Y-67310000D03*
X135890000Y-124460000D03*
X111760000Y-66040000D03*
X142240000Y-111760000D03*
X95250000Y-116840000D03*
X146050000Y-111760000D03*
X95250000Y-124460000D03*
D18*
X103760000Y-74295000D03*
X103760000Y-75565000D03*
X103760000Y-76835000D03*
X103760000Y-78105000D03*
X103760000Y-79375000D03*
X103760000Y-80645000D03*
X103760000Y-81915000D03*
X103760000Y-83185000D03*
X103760000Y-84455000D03*
X103760000Y-85725000D03*
X103760000Y-86995000D03*
X103760000Y-88265000D03*
X103760000Y-89535000D03*
X103760000Y-90805000D03*
X94360000Y-90805000D03*
X94360000Y-89535000D03*
X94360000Y-88265000D03*
X94360000Y-86995000D03*
X94360000Y-85725000D03*
X94360000Y-84455000D03*
X94360000Y-83185000D03*
X94360000Y-81915000D03*
X94360000Y-80645000D03*
X94360000Y-79375000D03*
X94360000Y-78105000D03*
X94360000Y-76835000D03*
X94360000Y-75565000D03*
X94360000Y-74295000D03*
X103760000Y-93345000D03*
X103760000Y-94615000D03*
X103760000Y-95885000D03*
X103760000Y-97155000D03*
X103760000Y-98425000D03*
X103760000Y-99695000D03*
X103760000Y-100965000D03*
X103760000Y-102235000D03*
X103760000Y-103505000D03*
X103760000Y-104775000D03*
X103760000Y-106045000D03*
X103760000Y-107315000D03*
X103760000Y-108585000D03*
X103760000Y-109855000D03*
X94360000Y-109855000D03*
X94360000Y-108585000D03*
X94360000Y-107315000D03*
X94360000Y-106045000D03*
X94360000Y-104775000D03*
X94360000Y-103505000D03*
X94360000Y-102235000D03*
X94360000Y-100965000D03*
X94360000Y-99695000D03*
X94360000Y-98425000D03*
X94360000Y-97155000D03*
X94360000Y-95885000D03*
X94360000Y-94615000D03*
X94360000Y-93345000D03*
D19*
X72390000Y-73910000D03*
X72390000Y-77410000D03*
X72390000Y-80910000D03*
X72390000Y-84410000D03*
X72390000Y-87910000D03*
X72390000Y-91410000D03*
X72390000Y-94910000D03*
X72390000Y-98410000D03*
X72390000Y-101910000D03*
G36*
G01*
X73940000Y-106310000D02*
X70840000Y-106310000D01*
G75*
G02*
X70590000Y-106060000I0J250000D01*
G01*
X70590000Y-104760000D01*
G75*
G02*
X70840000Y-104510000I250000J0D01*
G01*
X73940000Y-104510000D01*
G75*
G02*
X74190000Y-104760000I0J-250000D01*
G01*
X74190000Y-106060000D01*
G75*
G02*
X73940000Y-106310000I-250000J0D01*
G01*
G37*
X83820000Y-73910000D03*
X83820000Y-77410000D03*
X83820000Y-80910000D03*
X83820000Y-84410000D03*
X83820000Y-87910000D03*
X83820000Y-91410000D03*
X83820000Y-94910000D03*
X83820000Y-98410000D03*
X83820000Y-101910000D03*
G36*
G01*
X85370000Y-106310000D02*
X82270000Y-106310000D01*
G75*
G02*
X82020000Y-106060000I0J250000D01*
G01*
X82020000Y-104760000D01*
G75*
G02*
X82270000Y-104510000I250000J0D01*
G01*
X85370000Y-104510000D01*
G75*
G02*
X85620000Y-104760000I0J-250000D01*
G01*
X85620000Y-106060000D01*
G75*
G02*
X85370000Y-106310000I-250000J0D01*
G01*
G37*
D20*
X147000000Y-119380000D03*
D21*
X134200000Y-119380000D03*
G36*
G01*
X138100001Y-118030000D02*
X141299999Y-118030000D01*
G75*
G02*
X141550000Y-118280001I0J-250001D01*
G01*
X141550000Y-120479999D01*
G75*
G02*
X141299999Y-120730000I-250001J0D01*
G01*
X138100001Y-120730000D01*
G75*
G02*
X137850000Y-120479999I0J250001D01*
G01*
X137850000Y-118280001D01*
G75*
G02*
X138100001Y-118030000I250001J0D01*
G01*
G37*
D22*
X137160000Y-73660000D03*
X137160000Y-76200000D03*
X137160000Y-78740000D03*
X137160000Y-81280000D03*
X137160000Y-83820000D03*
X137160000Y-86360000D03*
X137160000Y-88900000D03*
X137160000Y-91440000D03*
X137160000Y-93980000D03*
X137160000Y-96520000D03*
X137160000Y-99060000D03*
X137160000Y-101600000D03*
X137160000Y-104140000D03*
X137160000Y-106680000D03*
D16*
X137160000Y-109220000D03*
D20*
X75250000Y-120650000D03*
D21*
X88050000Y-120650000D03*
G36*
G01*
X84149999Y-122000000D02*
X80950001Y-122000000D01*
G75*
G02*
X80700000Y-121749999I0J250001D01*
G01*
X80700000Y-119550001D01*
G75*
G02*
X80950001Y-119300000I250001J0D01*
G01*
X84149999Y-119300000D01*
G75*
G02*
X84400000Y-119550001I0J-250001D01*
G01*
X84400000Y-121749999D01*
G75*
G02*
X84149999Y-122000000I-250001J0D01*
G01*
G37*
D20*
X75250000Y-128270000D03*
D21*
X88050000Y-128270000D03*
G36*
G01*
X84149999Y-129620000D02*
X80950001Y-129620000D01*
G75*
G02*
X80700000Y-129369999I0J250001D01*
G01*
X80700000Y-127170001D01*
G75*
G02*
X80950001Y-126920000I250001J0D01*
G01*
X84149999Y-126920000D01*
G75*
G02*
X84400000Y-127170001I0J-250001D01*
G01*
X84400000Y-129369999D01*
G75*
G02*
X84149999Y-129620000I-250001J0D01*
G01*
G37*
D22*
X109220000Y-109220000D03*
X109220000Y-106680000D03*
X109220000Y-104140000D03*
X109220000Y-101600000D03*
X109220000Y-99060000D03*
X109220000Y-96520000D03*
X109220000Y-93980000D03*
X109220000Y-91440000D03*
X109220000Y-88900000D03*
X109220000Y-86360000D03*
X109220000Y-83820000D03*
X109220000Y-81280000D03*
X109220000Y-78740000D03*
X109220000Y-76200000D03*
D16*
X109220000Y-73660000D03*
D20*
X143510000Y-70170000D03*
D23*
X143510000Y-82970000D03*
G36*
G01*
X142160000Y-79069999D02*
X142160000Y-75870001D01*
G75*
G02*
X142410001Y-75620000I250001J0D01*
G01*
X144609999Y-75620000D01*
G75*
G02*
X144860000Y-75870001I0J-250001D01*
G01*
X144860000Y-79069999D01*
G75*
G02*
X144609999Y-79320000I-250001J0D01*
G01*
X142410001Y-79320000D01*
G75*
G02*
X142160000Y-79069999I0J250001D01*
G01*
G37*
D16*
X146304000Y-92729000D03*
D24*
X143854000Y-95019000D03*
X148754000Y-95019000D03*
X143854000Y-102847000D03*
X148754000Y-102847000D03*
D16*
X146304000Y-105137000D03*
M02*
