%FSLAX45Y45*%
G04 Gerber Fmt 4.5, Leading zero omitted, Abs format (unit mm)*
G04 Created by KiCad (PCBNEW (5.1.10)-1) date 2021-12-04 11:07:23*
%MOMM*%
%LPD*%
G01*
G04 APERTURE LIST*
%TA.AperFunction,Profile*%
%ADD10C,0.050000*%
%TD*%
%ADD11C,0.200000*%
%ADD12C,0.300000*%
G04 APERTURE END LIST*
D10*
X6731000Y-13208000D02*
X6731000Y-6223000D01*
X15494000Y-13208000D02*
X6731000Y-13208000D01*
X15494000Y-6223000D02*
X15494000Y-13208000D01*
X6731000Y-6223000D02*
X15494000Y-6223000D01*
D11*
X7375000Y-11915000D02*
X7675000Y-12215000D01*
X7675000Y-11915000D02*
X7375000Y-12215000D01*
X7375000Y-12677000D02*
X7675000Y-12977000D01*
X7675000Y-12677000D02*
X7375000Y-12977000D01*
X14201000Y-6867000D02*
X14501000Y-7167000D01*
X14501000Y-6867000D02*
X14201000Y-7167000D01*
X14550000Y-11788000D02*
X14850000Y-12088000D01*
X14850000Y-11788000D02*
X14550000Y-12088000D01*
X7272000Y-6604000D02*
G75*
G03*
X7272000Y-6604000I-160000J0D01*
G01*
X7272000Y-11303000D02*
G75*
G03*
X7272000Y-11303000I-160000J0D01*
G01*
X15273000Y-6604000D02*
G75*
G03*
X15273000Y-6604000I-160000J0D01*
G01*
X15273000Y-12827000D02*
G75*
G03*
X15273000Y-12827000I-160000J0D01*
G01*
D12*
X7014928Y-13676214D02*
X7014928Y-13376214D01*
X7086357Y-13376214D01*
X7129214Y-13390500D01*
X7157786Y-13419071D01*
X7172071Y-13447643D01*
X7186357Y-13504786D01*
X7186357Y-13547643D01*
X7172071Y-13604786D01*
X7157786Y-13633357D01*
X7129214Y-13661929D01*
X7086357Y-13676214D01*
X7014928Y-13676214D01*
X7314928Y-13676214D02*
X7314928Y-13476214D01*
X7314928Y-13533357D02*
X7329214Y-13504786D01*
X7343500Y-13490500D01*
X7372071Y-13476214D01*
X7400643Y-13476214D01*
X7500643Y-13676214D02*
X7500643Y-13476214D01*
X7500643Y-13376214D02*
X7486357Y-13390500D01*
X7500643Y-13404786D01*
X7514928Y-13390500D01*
X7500643Y-13376214D01*
X7500643Y-13404786D01*
X7686357Y-13676214D02*
X7657786Y-13661929D01*
X7643500Y-13633357D01*
X7643500Y-13376214D01*
X7843500Y-13676214D02*
X7814928Y-13661929D01*
X7800643Y-13633357D01*
X7800643Y-13376214D01*
X8186357Y-13676214D02*
X8186357Y-13376214D01*
X8286357Y-13590500D01*
X8386357Y-13376214D01*
X8386357Y-13676214D01*
X8657786Y-13676214D02*
X8657786Y-13519071D01*
X8643500Y-13490500D01*
X8614928Y-13476214D01*
X8557786Y-13476214D01*
X8529214Y-13490500D01*
X8657786Y-13661929D02*
X8629214Y-13676214D01*
X8557786Y-13676214D01*
X8529214Y-13661929D01*
X8514928Y-13633357D01*
X8514928Y-13604786D01*
X8529214Y-13576214D01*
X8557786Y-13561929D01*
X8629214Y-13561929D01*
X8657786Y-13547643D01*
X8800643Y-13476214D02*
X8800643Y-13776214D01*
X8800643Y-13490500D02*
X8829214Y-13476214D01*
X8886357Y-13476214D01*
X8914928Y-13490500D01*
X8929214Y-13504786D01*
X8943500Y-13533357D01*
X8943500Y-13619071D01*
X8929214Y-13647643D01*
X8914928Y-13661929D01*
X8886357Y-13676214D01*
X8829214Y-13676214D01*
X8800643Y-13661929D01*
X9072071Y-13647643D02*
X9086357Y-13661929D01*
X9072071Y-13676214D01*
X9057786Y-13661929D01*
X9072071Y-13647643D01*
X9072071Y-13676214D01*
X9072071Y-13490500D02*
X9086357Y-13504786D01*
X9072071Y-13519071D01*
X9057786Y-13504786D01*
X9072071Y-13490500D01*
X9072071Y-13519071D01*
X6428500Y-14020500D02*
X6728500Y-14320500D01*
X6728500Y-14020500D02*
X6428500Y-14320500D01*
X6986357Y-14006214D02*
X7172071Y-14006214D01*
X7072071Y-14120500D01*
X7114928Y-14120500D01*
X7143500Y-14134786D01*
X7157786Y-14149071D01*
X7172071Y-14177643D01*
X7172071Y-14249071D01*
X7157786Y-14277643D01*
X7143500Y-14291929D01*
X7114928Y-14306214D01*
X7029214Y-14306214D01*
X7000643Y-14291929D01*
X6986357Y-14277643D01*
X7300643Y-14277643D02*
X7314928Y-14291929D01*
X7300643Y-14306214D01*
X7286357Y-14291929D01*
X7300643Y-14277643D01*
X7300643Y-14306214D01*
X7500643Y-14006214D02*
X7529214Y-14006214D01*
X7557786Y-14020500D01*
X7572071Y-14034786D01*
X7586357Y-14063357D01*
X7600643Y-14120500D01*
X7600643Y-14191929D01*
X7586357Y-14249071D01*
X7572071Y-14277643D01*
X7557786Y-14291929D01*
X7529214Y-14306214D01*
X7500643Y-14306214D01*
X7472071Y-14291929D01*
X7457786Y-14277643D01*
X7443500Y-14249071D01*
X7429214Y-14191929D01*
X7429214Y-14120500D01*
X7443500Y-14063357D01*
X7457786Y-14034786D01*
X7472071Y-14020500D01*
X7500643Y-14006214D01*
X7786357Y-14006214D02*
X7814928Y-14006214D01*
X7843500Y-14020500D01*
X7857786Y-14034786D01*
X7872071Y-14063357D01*
X7886357Y-14120500D01*
X7886357Y-14191929D01*
X7872071Y-14249071D01*
X7857786Y-14277643D01*
X7843500Y-14291929D01*
X7814928Y-14306214D01*
X7786357Y-14306214D01*
X7757786Y-14291929D01*
X7743500Y-14277643D01*
X7729214Y-14249071D01*
X7714928Y-14191929D01*
X7714928Y-14120500D01*
X7729214Y-14063357D01*
X7743500Y-14034786D01*
X7757786Y-14020500D01*
X7786357Y-14006214D01*
X8072071Y-14006214D02*
X8100643Y-14006214D01*
X8129214Y-14020500D01*
X8143500Y-14034786D01*
X8157786Y-14063357D01*
X8172071Y-14120500D01*
X8172071Y-14191929D01*
X8157786Y-14249071D01*
X8143500Y-14277643D01*
X8129214Y-14291929D01*
X8100643Y-14306214D01*
X8072071Y-14306214D01*
X8043500Y-14291929D01*
X8029214Y-14277643D01*
X8014928Y-14249071D01*
X8000643Y-14191929D01*
X8000643Y-14120500D01*
X8014928Y-14063357D01*
X8029214Y-14034786D01*
X8043500Y-14020500D01*
X8072071Y-14006214D01*
X8300643Y-14306214D02*
X8300643Y-14106214D01*
X8300643Y-14134786D02*
X8314928Y-14120500D01*
X8343500Y-14106214D01*
X8386357Y-14106214D01*
X8414928Y-14120500D01*
X8429214Y-14149071D01*
X8429214Y-14306214D01*
X8429214Y-14149071D02*
X8443500Y-14120500D01*
X8472071Y-14106214D01*
X8514928Y-14106214D01*
X8543500Y-14120500D01*
X8557786Y-14149071D01*
X8557786Y-14306214D01*
X8700643Y-14306214D02*
X8700643Y-14106214D01*
X8700643Y-14134786D02*
X8714928Y-14120500D01*
X8743500Y-14106214D01*
X8786357Y-14106214D01*
X8814928Y-14120500D01*
X8829214Y-14149071D01*
X8829214Y-14306214D01*
X8829214Y-14149071D02*
X8843500Y-14120500D01*
X8872071Y-14106214D01*
X8914928Y-14106214D01*
X8943500Y-14120500D01*
X8957786Y-14149071D01*
X8957786Y-14306214D01*
X9543500Y-13991929D02*
X9286357Y-14377643D01*
X9929214Y-14006214D02*
X9957786Y-14006214D01*
X9986357Y-14020500D01*
X10000643Y-14034786D01*
X10014928Y-14063357D01*
X10029214Y-14120500D01*
X10029214Y-14191929D01*
X10014928Y-14249071D01*
X10000643Y-14277643D01*
X9986357Y-14291929D01*
X9957786Y-14306214D01*
X9929214Y-14306214D01*
X9900643Y-14291929D01*
X9886357Y-14277643D01*
X9872071Y-14249071D01*
X9857786Y-14191929D01*
X9857786Y-14120500D01*
X9872071Y-14063357D01*
X9886357Y-14034786D01*
X9900643Y-14020500D01*
X9929214Y-14006214D01*
X10157786Y-14277643D02*
X10172071Y-14291929D01*
X10157786Y-14306214D01*
X10143500Y-14291929D01*
X10157786Y-14277643D01*
X10157786Y-14306214D01*
X10457786Y-14306214D02*
X10286357Y-14306214D01*
X10372071Y-14306214D02*
X10372071Y-14006214D01*
X10343500Y-14049071D01*
X10314928Y-14077643D01*
X10286357Y-14091929D01*
X10743500Y-14306214D02*
X10572071Y-14306214D01*
X10657786Y-14306214D02*
X10657786Y-14006214D01*
X10629214Y-14049071D01*
X10600643Y-14077643D01*
X10572071Y-14091929D01*
X10914928Y-14134786D02*
X10886357Y-14120500D01*
X10872071Y-14106214D01*
X10857786Y-14077643D01*
X10857786Y-14063357D01*
X10872071Y-14034786D01*
X10886357Y-14020500D01*
X10914928Y-14006214D01*
X10972071Y-14006214D01*
X11000643Y-14020500D01*
X11014928Y-14034786D01*
X11029214Y-14063357D01*
X11029214Y-14077643D01*
X11014928Y-14106214D01*
X11000643Y-14120500D01*
X10972071Y-14134786D01*
X10914928Y-14134786D01*
X10886357Y-14149071D01*
X10872071Y-14163357D01*
X10857786Y-14191929D01*
X10857786Y-14249071D01*
X10872071Y-14277643D01*
X10886357Y-14291929D01*
X10914928Y-14306214D01*
X10972071Y-14306214D01*
X11000643Y-14291929D01*
X11014928Y-14277643D01*
X11029214Y-14249071D01*
X11029214Y-14191929D01*
X11014928Y-14163357D01*
X11000643Y-14149071D01*
X10972071Y-14134786D01*
X11314928Y-14306214D02*
X11143500Y-14306214D01*
X11229214Y-14306214D02*
X11229214Y-14006214D01*
X11200643Y-14049071D01*
X11172071Y-14077643D01*
X11143500Y-14091929D01*
X11429214Y-14006214D02*
X11429214Y-14063357D01*
X11543500Y-14006214D02*
X11543500Y-14063357D01*
X11986357Y-14420500D02*
X11972071Y-14406214D01*
X11943500Y-14363357D01*
X11929214Y-14334786D01*
X11914928Y-14291929D01*
X11900643Y-14220500D01*
X11900643Y-14163357D01*
X11914928Y-14091929D01*
X11929214Y-14049071D01*
X11943500Y-14020500D01*
X11972071Y-13977643D01*
X11986357Y-13963357D01*
X12229214Y-14106214D02*
X12229214Y-14306214D01*
X12157786Y-13991929D02*
X12086357Y-14206214D01*
X12272071Y-14206214D01*
X12614928Y-14306214D02*
X12614928Y-14006214D01*
X12743500Y-14306214D02*
X12743500Y-14149071D01*
X12729214Y-14120500D01*
X12700643Y-14106214D01*
X12657786Y-14106214D01*
X12629214Y-14120500D01*
X12614928Y-14134786D01*
X12929214Y-14306214D02*
X12900643Y-14291929D01*
X12886357Y-14277643D01*
X12872071Y-14249071D01*
X12872071Y-14163357D01*
X12886357Y-14134786D01*
X12900643Y-14120500D01*
X12929214Y-14106214D01*
X12972071Y-14106214D01*
X13000643Y-14120500D01*
X13014928Y-14134786D01*
X13029214Y-14163357D01*
X13029214Y-14249071D01*
X13014928Y-14277643D01*
X13000643Y-14291929D01*
X12972071Y-14306214D01*
X12929214Y-14306214D01*
X13200643Y-14306214D02*
X13172071Y-14291929D01*
X13157786Y-14263357D01*
X13157786Y-14006214D01*
X13429214Y-14291929D02*
X13400643Y-14306214D01*
X13343500Y-14306214D01*
X13314928Y-14291929D01*
X13300643Y-14263357D01*
X13300643Y-14149071D01*
X13314928Y-14120500D01*
X13343500Y-14106214D01*
X13400643Y-14106214D01*
X13429214Y-14120500D01*
X13443500Y-14149071D01*
X13443500Y-14177643D01*
X13300643Y-14206214D01*
X13557786Y-14291929D02*
X13586357Y-14306214D01*
X13643500Y-14306214D01*
X13672071Y-14291929D01*
X13686357Y-14263357D01*
X13686357Y-14249071D01*
X13672071Y-14220500D01*
X13643500Y-14206214D01*
X13600643Y-14206214D01*
X13572071Y-14191929D01*
X13557786Y-14163357D01*
X13557786Y-14149071D01*
X13572071Y-14120500D01*
X13600643Y-14106214D01*
X13643500Y-14106214D01*
X13672071Y-14120500D01*
X13786357Y-14420500D02*
X13800643Y-14406214D01*
X13829214Y-14363357D01*
X13843500Y-14334786D01*
X13857786Y-14291929D01*
X13872071Y-14220500D01*
X13872071Y-14163357D01*
X13857786Y-14091929D01*
X13843500Y-14049071D01*
X13829214Y-14020500D01*
X13800643Y-13977643D01*
X13786357Y-13963357D01*
X14329214Y-14420500D02*
X14314928Y-14406214D01*
X14286357Y-14363357D01*
X14272071Y-14334786D01*
X14257786Y-14291929D01*
X14243500Y-14220500D01*
X14243500Y-14163357D01*
X14257786Y-14091929D01*
X14272071Y-14049071D01*
X14286357Y-14020500D01*
X14314928Y-13977643D01*
X14329214Y-13963357D01*
X14443500Y-14106214D02*
X14443500Y-14306214D01*
X14443500Y-14134786D02*
X14457786Y-14120500D01*
X14486357Y-14106214D01*
X14529214Y-14106214D01*
X14557786Y-14120500D01*
X14572071Y-14149071D01*
X14572071Y-14306214D01*
X14757786Y-14306214D02*
X14729214Y-14291929D01*
X14714928Y-14277643D01*
X14700643Y-14249071D01*
X14700643Y-14163357D01*
X14714928Y-14134786D01*
X14729214Y-14120500D01*
X14757786Y-14106214D01*
X14800643Y-14106214D01*
X14829214Y-14120500D01*
X14843500Y-14134786D01*
X14857786Y-14163357D01*
X14857786Y-14249071D01*
X14843500Y-14277643D01*
X14829214Y-14291929D01*
X14800643Y-14306214D01*
X14757786Y-14306214D01*
X14943500Y-14106214D02*
X15057786Y-14106214D01*
X14986357Y-14006214D02*
X14986357Y-14263357D01*
X15000643Y-14291929D01*
X15029214Y-14306214D01*
X15057786Y-14306214D01*
X15386357Y-14106214D02*
X15386357Y-14406214D01*
X15386357Y-14120500D02*
X15414928Y-14106214D01*
X15472071Y-14106214D01*
X15500643Y-14120500D01*
X15514928Y-14134786D01*
X15529214Y-14163357D01*
X15529214Y-14249071D01*
X15514928Y-14277643D01*
X15500643Y-14291929D01*
X15472071Y-14306214D01*
X15414928Y-14306214D01*
X15386357Y-14291929D01*
X15700643Y-14306214D02*
X15672071Y-14291929D01*
X15657786Y-14263357D01*
X15657786Y-14006214D01*
X15943500Y-14306214D02*
X15943500Y-14149071D01*
X15929214Y-14120500D01*
X15900643Y-14106214D01*
X15843500Y-14106214D01*
X15814928Y-14120500D01*
X15943500Y-14291929D02*
X15914928Y-14306214D01*
X15843500Y-14306214D01*
X15814928Y-14291929D01*
X15800643Y-14263357D01*
X15800643Y-14234786D01*
X15814928Y-14206214D01*
X15843500Y-14191929D01*
X15914928Y-14191929D01*
X15943500Y-14177643D01*
X16043500Y-14106214D02*
X16157786Y-14106214D01*
X16086357Y-14006214D02*
X16086357Y-14263357D01*
X16100643Y-14291929D01*
X16129214Y-14306214D01*
X16157786Y-14306214D01*
X16372071Y-14291929D02*
X16343500Y-14306214D01*
X16286357Y-14306214D01*
X16257786Y-14291929D01*
X16243500Y-14263357D01*
X16243500Y-14149071D01*
X16257786Y-14120500D01*
X16286357Y-14106214D01*
X16343500Y-14106214D01*
X16372071Y-14120500D01*
X16386357Y-14149071D01*
X16386357Y-14177643D01*
X16243500Y-14206214D01*
X16643500Y-14306214D02*
X16643500Y-14006214D01*
X16643500Y-14291929D02*
X16614928Y-14306214D01*
X16557786Y-14306214D01*
X16529214Y-14291929D01*
X16514928Y-14277643D01*
X16500643Y-14249071D01*
X16500643Y-14163357D01*
X16514928Y-14134786D01*
X16529214Y-14120500D01*
X16557786Y-14106214D01*
X16614928Y-14106214D01*
X16643500Y-14120500D01*
X16757786Y-14420500D02*
X16772071Y-14406214D01*
X16800643Y-14363357D01*
X16814928Y-14334786D01*
X16829214Y-14291929D01*
X16843500Y-14220500D01*
X16843500Y-14163357D01*
X16829214Y-14091929D01*
X16814928Y-14049071D01*
X16800643Y-14020500D01*
X16772071Y-13977643D01*
X16757786Y-13963357D01*
X6728500Y-14600500D02*
G75*
G03*
X6728500Y-14600500I-160000J0D01*
G01*
X6986357Y-14436214D02*
X7172071Y-14436214D01*
X7072071Y-14550500D01*
X7114928Y-14550500D01*
X7143500Y-14564786D01*
X7157786Y-14579071D01*
X7172071Y-14607643D01*
X7172071Y-14679071D01*
X7157786Y-14707643D01*
X7143500Y-14721929D01*
X7114928Y-14736214D01*
X7029214Y-14736214D01*
X7000643Y-14721929D01*
X6986357Y-14707643D01*
X7300643Y-14707643D02*
X7314928Y-14721929D01*
X7300643Y-14736214D01*
X7286357Y-14721929D01*
X7300643Y-14707643D01*
X7300643Y-14736214D01*
X7429214Y-14464786D02*
X7443500Y-14450500D01*
X7472071Y-14436214D01*
X7543500Y-14436214D01*
X7572071Y-14450500D01*
X7586357Y-14464786D01*
X7600643Y-14493357D01*
X7600643Y-14521929D01*
X7586357Y-14564786D01*
X7414928Y-14736214D01*
X7600643Y-14736214D01*
X7786357Y-14436214D02*
X7814928Y-14436214D01*
X7843500Y-14450500D01*
X7857786Y-14464786D01*
X7872071Y-14493357D01*
X7886357Y-14550500D01*
X7886357Y-14621929D01*
X7872071Y-14679071D01*
X7857786Y-14707643D01*
X7843500Y-14721929D01*
X7814928Y-14736214D01*
X7786357Y-14736214D01*
X7757786Y-14721929D01*
X7743500Y-14707643D01*
X7729214Y-14679071D01*
X7714928Y-14621929D01*
X7714928Y-14550500D01*
X7729214Y-14493357D01*
X7743500Y-14464786D01*
X7757786Y-14450500D01*
X7786357Y-14436214D01*
X8072071Y-14436214D02*
X8100643Y-14436214D01*
X8129214Y-14450500D01*
X8143500Y-14464786D01*
X8157786Y-14493357D01*
X8172071Y-14550500D01*
X8172071Y-14621929D01*
X8157786Y-14679071D01*
X8143500Y-14707643D01*
X8129214Y-14721929D01*
X8100643Y-14736214D01*
X8072071Y-14736214D01*
X8043500Y-14721929D01*
X8029214Y-14707643D01*
X8014928Y-14679071D01*
X8000643Y-14621929D01*
X8000643Y-14550500D01*
X8014928Y-14493357D01*
X8029214Y-14464786D01*
X8043500Y-14450500D01*
X8072071Y-14436214D01*
X8300643Y-14736214D02*
X8300643Y-14536214D01*
X8300643Y-14564786D02*
X8314928Y-14550500D01*
X8343500Y-14536214D01*
X8386357Y-14536214D01*
X8414928Y-14550500D01*
X8429214Y-14579071D01*
X8429214Y-14736214D01*
X8429214Y-14579071D02*
X8443500Y-14550500D01*
X8472071Y-14536214D01*
X8514928Y-14536214D01*
X8543500Y-14550500D01*
X8557786Y-14579071D01*
X8557786Y-14736214D01*
X8700643Y-14736214D02*
X8700643Y-14536214D01*
X8700643Y-14564786D02*
X8714928Y-14550500D01*
X8743500Y-14536214D01*
X8786357Y-14536214D01*
X8814928Y-14550500D01*
X8829214Y-14579071D01*
X8829214Y-14736214D01*
X8829214Y-14579071D02*
X8843500Y-14550500D01*
X8872071Y-14536214D01*
X8914928Y-14536214D01*
X8943500Y-14550500D01*
X8957786Y-14579071D01*
X8957786Y-14736214D01*
X9543500Y-14421929D02*
X9286357Y-14807643D01*
X9929214Y-14436214D02*
X9957786Y-14436214D01*
X9986357Y-14450500D01*
X10000643Y-14464786D01*
X10014928Y-14493357D01*
X10029214Y-14550500D01*
X10029214Y-14621929D01*
X10014928Y-14679071D01*
X10000643Y-14707643D01*
X9986357Y-14721929D01*
X9957786Y-14736214D01*
X9929214Y-14736214D01*
X9900643Y-14721929D01*
X9886357Y-14707643D01*
X9872071Y-14679071D01*
X9857786Y-14621929D01*
X9857786Y-14550500D01*
X9872071Y-14493357D01*
X9886357Y-14464786D01*
X9900643Y-14450500D01*
X9929214Y-14436214D01*
X10157786Y-14707643D02*
X10172071Y-14721929D01*
X10157786Y-14736214D01*
X10143500Y-14721929D01*
X10157786Y-14707643D01*
X10157786Y-14736214D01*
X10457786Y-14736214D02*
X10286357Y-14736214D01*
X10372071Y-14736214D02*
X10372071Y-14436214D01*
X10343500Y-14479071D01*
X10314928Y-14507643D01*
X10286357Y-14521929D01*
X10572071Y-14464786D02*
X10586357Y-14450500D01*
X10614928Y-14436214D01*
X10686357Y-14436214D01*
X10714928Y-14450500D01*
X10729214Y-14464786D01*
X10743500Y-14493357D01*
X10743500Y-14521929D01*
X10729214Y-14564786D01*
X10557786Y-14736214D01*
X10743500Y-14736214D01*
X11000643Y-14436214D02*
X10943500Y-14436214D01*
X10914928Y-14450500D01*
X10900643Y-14464786D01*
X10872071Y-14507643D01*
X10857786Y-14564786D01*
X10857786Y-14679071D01*
X10872071Y-14707643D01*
X10886357Y-14721929D01*
X10914928Y-14736214D01*
X10972071Y-14736214D01*
X11000643Y-14721929D01*
X11014928Y-14707643D01*
X11029214Y-14679071D01*
X11029214Y-14607643D01*
X11014928Y-14579071D01*
X11000643Y-14564786D01*
X10972071Y-14550500D01*
X10914928Y-14550500D01*
X10886357Y-14564786D01*
X10872071Y-14579071D01*
X10857786Y-14607643D01*
X11214928Y-14436214D02*
X11243500Y-14436214D01*
X11272071Y-14450500D01*
X11286357Y-14464786D01*
X11300643Y-14493357D01*
X11314928Y-14550500D01*
X11314928Y-14621929D01*
X11300643Y-14679071D01*
X11286357Y-14707643D01*
X11272071Y-14721929D01*
X11243500Y-14736214D01*
X11214928Y-14736214D01*
X11186357Y-14721929D01*
X11172071Y-14707643D01*
X11157786Y-14679071D01*
X11143500Y-14621929D01*
X11143500Y-14550500D01*
X11157786Y-14493357D01*
X11172071Y-14464786D01*
X11186357Y-14450500D01*
X11214928Y-14436214D01*
X11429214Y-14436214D02*
X11429214Y-14493357D01*
X11543500Y-14436214D02*
X11543500Y-14493357D01*
X11986357Y-14850500D02*
X11972071Y-14836214D01*
X11943500Y-14793357D01*
X11929214Y-14764786D01*
X11914928Y-14721929D01*
X11900643Y-14650500D01*
X11900643Y-14593357D01*
X11914928Y-14521929D01*
X11929214Y-14479071D01*
X11943500Y-14450500D01*
X11972071Y-14407643D01*
X11986357Y-14393357D01*
X12229214Y-14536214D02*
X12229214Y-14736214D01*
X12157786Y-14421929D02*
X12086357Y-14636214D01*
X12272071Y-14636214D01*
X12614928Y-14736214D02*
X12614928Y-14436214D01*
X12743500Y-14736214D02*
X12743500Y-14579071D01*
X12729214Y-14550500D01*
X12700643Y-14536214D01*
X12657786Y-14536214D01*
X12629214Y-14550500D01*
X12614928Y-14564786D01*
X12929214Y-14736214D02*
X12900643Y-14721929D01*
X12886357Y-14707643D01*
X12872071Y-14679071D01*
X12872071Y-14593357D01*
X12886357Y-14564786D01*
X12900643Y-14550500D01*
X12929214Y-14536214D01*
X12972071Y-14536214D01*
X13000643Y-14550500D01*
X13014928Y-14564786D01*
X13029214Y-14593357D01*
X13029214Y-14679071D01*
X13014928Y-14707643D01*
X13000643Y-14721929D01*
X12972071Y-14736214D01*
X12929214Y-14736214D01*
X13200643Y-14736214D02*
X13172071Y-14721929D01*
X13157786Y-14693357D01*
X13157786Y-14436214D01*
X13429214Y-14721929D02*
X13400643Y-14736214D01*
X13343500Y-14736214D01*
X13314928Y-14721929D01*
X13300643Y-14693357D01*
X13300643Y-14579071D01*
X13314928Y-14550500D01*
X13343500Y-14536214D01*
X13400643Y-14536214D01*
X13429214Y-14550500D01*
X13443500Y-14579071D01*
X13443500Y-14607643D01*
X13300643Y-14636214D01*
X13557786Y-14721929D02*
X13586357Y-14736214D01*
X13643500Y-14736214D01*
X13672071Y-14721929D01*
X13686357Y-14693357D01*
X13686357Y-14679071D01*
X13672071Y-14650500D01*
X13643500Y-14636214D01*
X13600643Y-14636214D01*
X13572071Y-14621929D01*
X13557786Y-14593357D01*
X13557786Y-14579071D01*
X13572071Y-14550500D01*
X13600643Y-14536214D01*
X13643500Y-14536214D01*
X13672071Y-14550500D01*
X13786357Y-14850500D02*
X13800643Y-14836214D01*
X13829214Y-14793357D01*
X13843500Y-14764786D01*
X13857786Y-14721929D01*
X13872071Y-14650500D01*
X13872071Y-14593357D01*
X13857786Y-14521929D01*
X13843500Y-14479071D01*
X13829214Y-14450500D01*
X13800643Y-14407643D01*
X13786357Y-14393357D01*
X14329214Y-14850500D02*
X14314928Y-14836214D01*
X14286357Y-14793357D01*
X14272071Y-14764786D01*
X14257786Y-14721929D01*
X14243500Y-14650500D01*
X14243500Y-14593357D01*
X14257786Y-14521929D01*
X14272071Y-14479071D01*
X14286357Y-14450500D01*
X14314928Y-14407643D01*
X14329214Y-14393357D01*
X14443500Y-14536214D02*
X14443500Y-14736214D01*
X14443500Y-14564786D02*
X14457786Y-14550500D01*
X14486357Y-14536214D01*
X14529214Y-14536214D01*
X14557786Y-14550500D01*
X14572071Y-14579071D01*
X14572071Y-14736214D01*
X14757786Y-14736214D02*
X14729214Y-14721929D01*
X14714928Y-14707643D01*
X14700643Y-14679071D01*
X14700643Y-14593357D01*
X14714928Y-14564786D01*
X14729214Y-14550500D01*
X14757786Y-14536214D01*
X14800643Y-14536214D01*
X14829214Y-14550500D01*
X14843500Y-14564786D01*
X14857786Y-14593357D01*
X14857786Y-14679071D01*
X14843500Y-14707643D01*
X14829214Y-14721929D01*
X14800643Y-14736214D01*
X14757786Y-14736214D01*
X14943500Y-14536214D02*
X15057786Y-14536214D01*
X14986357Y-14436214D02*
X14986357Y-14693357D01*
X15000643Y-14721929D01*
X15029214Y-14736214D01*
X15057786Y-14736214D01*
X15386357Y-14536214D02*
X15386357Y-14836214D01*
X15386357Y-14550500D02*
X15414928Y-14536214D01*
X15472071Y-14536214D01*
X15500643Y-14550500D01*
X15514928Y-14564786D01*
X15529214Y-14593357D01*
X15529214Y-14679071D01*
X15514928Y-14707643D01*
X15500643Y-14721929D01*
X15472071Y-14736214D01*
X15414928Y-14736214D01*
X15386357Y-14721929D01*
X15700643Y-14736214D02*
X15672071Y-14721929D01*
X15657786Y-14693357D01*
X15657786Y-14436214D01*
X15943500Y-14736214D02*
X15943500Y-14579071D01*
X15929214Y-14550500D01*
X15900643Y-14536214D01*
X15843500Y-14536214D01*
X15814928Y-14550500D01*
X15943500Y-14721929D02*
X15914928Y-14736214D01*
X15843500Y-14736214D01*
X15814928Y-14721929D01*
X15800643Y-14693357D01*
X15800643Y-14664786D01*
X15814928Y-14636214D01*
X15843500Y-14621929D01*
X15914928Y-14621929D01*
X15943500Y-14607643D01*
X16043500Y-14536214D02*
X16157786Y-14536214D01*
X16086357Y-14436214D02*
X16086357Y-14693357D01*
X16100643Y-14721929D01*
X16129214Y-14736214D01*
X16157786Y-14736214D01*
X16372071Y-14721929D02*
X16343500Y-14736214D01*
X16286357Y-14736214D01*
X16257786Y-14721929D01*
X16243500Y-14693357D01*
X16243500Y-14579071D01*
X16257786Y-14550500D01*
X16286357Y-14536214D01*
X16343500Y-14536214D01*
X16372071Y-14550500D01*
X16386357Y-14579071D01*
X16386357Y-14607643D01*
X16243500Y-14636214D01*
X16643500Y-14736214D02*
X16643500Y-14436214D01*
X16643500Y-14721929D02*
X16614928Y-14736214D01*
X16557786Y-14736214D01*
X16529214Y-14721929D01*
X16514928Y-14707643D01*
X16500643Y-14679071D01*
X16500643Y-14593357D01*
X16514928Y-14564786D01*
X16529214Y-14550500D01*
X16557786Y-14536214D01*
X16614928Y-14536214D01*
X16643500Y-14550500D01*
X16757786Y-14850500D02*
X16772071Y-14836214D01*
X16800643Y-14793357D01*
X16814928Y-14764786D01*
X16829214Y-14721929D01*
X16843500Y-14650500D01*
X16843500Y-14593357D01*
X16829214Y-14521929D01*
X16814928Y-14479071D01*
X16800643Y-14450500D01*
X16772071Y-14407643D01*
X16757786Y-14393357D01*
M02*
