M48
; DRILL file {KiCad (5.1.10)-1} date 12/04/21 11:07:23
; FORMAT={-:-/ absolute / metric / decimal}
; #@! TF.CreationDate,2021-12-04T11:07:23-08:00
; #@! TF.GenerationSoftware,Kicad,Pcbnew,(5.1.10)-1
; #@! TF.FileFunction,Plated,1,2,PTH
FMAT,2
METRIC
T1C0.400
T2C0.813
T3C1.000
T4C1.200
T5C1.800
%
G90
G05
T1
X88.9Y-104.23
X96.52Y-66.04
X97.155Y-90.885
X99.06Y-68.58
X99.06Y-72.39
X100.33Y-81.19
X100.33Y-106.68
X101.6Y-66.04
X101.6Y-87.63
X102.87Y-73.66
X104.14Y-72.39
X106.68Y-95.25
X107.77Y-93.98
X114.395Y-69.755
T2
X90.17Y-93.98
X91.44Y-72.39
X91.44Y-77.47
X91.996Y-93.98
X97.79Y-107.95
X98.425Y-88.265
X100.33Y-76.2
X101.6Y-130.81
X105.41Y-120.65
X105.41Y-124.46
X115.57Y-66.04
X116.84Y-123.19
T3
X91.44Y-67.31
X95.25Y-116.84
X95.25Y-124.46
X105.41Y-67.31
X109.22Y-73.66
X109.22Y-76.2
X109.22Y-78.74
X109.22Y-81.28
X109.22Y-83.82
X109.22Y-86.36
X109.22Y-88.9
X109.22Y-91.44
X109.22Y-93.98
X109.22Y-96.52
X109.22Y-99.06
X109.22Y-101.6
X109.22Y-104.14
X109.22Y-106.68
X109.22Y-109.22
X111.76Y-66.04
X115.57Y-73.66
X115.57Y-76.2
X115.57Y-78.74
X115.57Y-81.28
X115.57Y-83.82
X115.57Y-86.36
X115.57Y-88.9
X115.57Y-91.44
X115.57Y-93.98
X115.57Y-96.52
X115.57Y-99.06
X115.57Y-101.6
X115.57Y-104.14
X115.57Y-106.68
X115.57Y-109.22
X130.81Y-73.66
X130.81Y-76.2
X130.81Y-78.74
X130.81Y-81.28
X130.81Y-83.82
X130.81Y-86.36
X130.81Y-88.9
X130.81Y-91.44
X130.81Y-93.98
X130.81Y-96.52
X130.81Y-99.06
X130.81Y-101.6
X130.81Y-104.14
X130.81Y-106.68
X130.81Y-109.22
X135.89Y-124.46
X137.16Y-73.66
X137.16Y-76.2
X137.16Y-78.74
X137.16Y-81.28
X137.16Y-83.82
X137.16Y-86.36
X137.16Y-88.9
X137.16Y-91.44
X137.16Y-93.98
X137.16Y-96.52
X137.16Y-99.06
X137.16Y-101.6
X137.16Y-104.14
X137.16Y-106.68
X137.16Y-109.22
X142.24Y-111.76
X146.05Y-111.76
T4
X72.39Y-73.91
X72.39Y-77.41
X72.39Y-80.91
X72.39Y-84.41
X72.39Y-87.91
X72.39Y-91.41
X72.39Y-94.91
X72.39Y-98.41
X72.39Y-101.91
X72.39Y-105.41
X83.82Y-73.91
X83.82Y-77.41
X83.82Y-80.91
X83.82Y-84.41
X83.82Y-87.91
X83.82Y-91.41
X83.82Y-94.91
X83.82Y-98.41
X83.82Y-101.91
X83.82Y-105.41
T5
X82.55Y-120.65
X82.55Y-128.27
X88.05Y-120.65
X88.05Y-128.27
X134.2Y-119.38
X139.7Y-119.38
X143.51Y-77.47
X143.51Y-82.97
T0
M30
